0
SECTION
2
HEADER
9
$INSUNITS
70
4
9
$ACADVER
1
AC1014
9
$HANDSEED
5
FFFF
0
ENDSEC
0
SECTION
2
TABLES
0
TABLE
2
VPORT
5
8
100
AcDbSymbolTable
0
ENDTAB
0
TABLE
2
LTYPE
5
5
100
AcDbSymbolTable
0
LTYPE
5
14
100
AcDbSymbolTableRecord
100
AcDbLinetypeTableRecord
2
BYBLOCK
70
0
0
LTYPE
5
15
100
AcDbSymbolTableRecord
100
AcDbLinetypeTableRecord
2
BYLAYER
70
0
0
ENDTAB
0
TABLE
2
LAYER
5
2
100
AcDbSymbolTable
70
2
0
LAYER
5
50
100
AcDbSymbolTableRecord
100
AcDbLayerTableRecord
2
0
70
0
6
CONTINUOUS
0
ENDTAB
0
TABLE
2
STYLE
5
3
100
AcDbSymbolTable
70
1
0
STYLE
5
11
100
AcDbSymbolTableRecord
100
AcDbTextStyleTableRecord
2
STANDARD
70
0
0
ENDTAB
0
TABLE
2
VIEW
5
6
100
AcDbSymbolTable
70
0
0
ENDTAB
0
TABLE
2
UCS
5
7
100
AcDbSymbolTable
70
0
0
ENDTAB
0
TABLE
2
APPID
5
9
100
AcDbSymbolTable
70
2
0
APPID
5
12
100
AcDbSymbolTableRecord
100
AcDbRegAppTableRecord
2
ACAD
70
0
0
ENDTAB
0
TABLE
2
DIMSTYLE
5
A
100
AcDbSymbolTable
70
1
0
ENDTAB
0
TABLE
2
BLOCK_RECORD
5
1
100
AcDbSymbolTable
70
1
0
BLOCK_RECORD
5
1F
100
AcDbSymbolTableRecord
100
AcDbBlockTableRecord
2
*MODEL_SPACE
0
BLOCK_RECORD
5
1B
100
AcDbSymbolTableRecord
100
AcDbBlockTableRecord
2
*PAPER_SPACE
0
ENDTAB
0
ENDSEC
0
SECTION
2
BLOCKS
0
BLOCK
5
20
100
AcDbEntity
100
AcDbBlockBegin
2
*MODEL_SPACE
0
ENDBLK
5
21
100
AcDbEntity
100
AcDbBlockEnd
0
BLOCK
5
1C
100
AcDbEntity
100
AcDbBlockBegin
2
*PAPER_SPACE
0
ENDBLK
5
1D
100
AcDbEntity
100
AcDbBlockEnd
0
ENDSEC
0
SECTION
2
ENTITIES
0
SPLINE
5
100
100
AcDbEntity
8
0
100
AcDbSpline
70
4
71
5
72
26
73
20
74
0
42
0.000000001
43
0.0000000001
44
0.0000000001
40
0
40
0
40
0
40
0
40
0
40
0
40
0.066666666666666666
40
0.13333333333333333
40
0.20000000000000001
40
0.26666666666666666
40
0.33333333333333331
40
0.39999999999999997
40
0.46666666666666662
40
0.53333333333333333
40
0.59999999999999998
40
0.66666666666666663
40
0.73333333333333328
40
0.79999999999999993
40
0.86666666666666659
40
0.93333333333333324
40
1
40
1
40
1
40
1
40
1
40
1
41
1
41
1
41
1
41
1
41
1
41
1
41
1
41
1
41
1
41
1
41
1
41
1
41
1
41
1
41
1
41
1
41
1
41
1
41
1
41
1
10
0
20
0
30
0
10
-1.5871835775884204
20
0.85197918480584622
30
0
10
-4.5133513509246441
20
2.6065827637498904
30
0
10
-8.1579870625067414
20
5.3904337583491309
30
0
10
-11.517596255013592
20
9.4082503247240705
30
0
10
-13.188386550042397
20
14.928756316972436
30
0
10
-12.362108072383828
20
20.886581973787244
30
0
10
-9.1908031983688137
20
27.142486429739911
30
0
10
-4.0395158387340224
20
33.435209213556981
30
0
10
2.4869955171788058
20
39.371751631358151
30
0
10
9.6586930449281105
20
44.489228588232393
30
0
10
16.69406854560059
20
48.298529740863422
30
0
10
22.849465470064708
20
50.339823523574985
30
0
10
27.491696669023277
20
50.229803034377113
30
0
10
30.207677525847537
20
47.73908321681688
30
0
10
30.81166942363464
20
42.793888082444184
30
0
10
29.560737785614823
20
36.878547981430053
30
0
10
27.654261799160388
20
31.357888275006168
30
0
10
25.955969322833248
20
27.199030513439464
30
0
10
25
20
25
30
0
0
LINE
5
101
100
AcDbEntity
8
0
100
AcDbLine
10
25
20
25
30
0
11
50
21
25
31
0
0
LINE
5
102
100
AcDbEntity
8
0
100
AcDbLine
10
50
20
25
30
0
11
25
21
75
31
0
0
ARC
5
103
100
AcDbEntity
8
0
100
AcDbCircle
10
50
20
50
30
0
40
35.355339059327378
210
-0
220
0
230
1
100
AcDbArc
50
-51.34019174590992
51
135
0
SPLINE
5
104
100
AcDbEntity
8
0
100
AcDbSpline
70
4
71
5
72
26
73
20
74
0
42
0.000000001
43
0.0000000001
44
0.0000000001
40
0
40
0
40
0
40
0
40
0
40
0
40
0.066666666666666666
40
0.13333333333333333
40
0.20000000000000001
40
0.26666666666666666
40
0.33333333333333331
40
0.39999999999999997
40
0.46666666666666662
40
0.53333333333333333
40
0.59999999999999998
40
0.66666666666666663
40
0.73333333333333328
40
0.79999999999999993
40
0.86666666666666659
40
0.93333333333333324
40
1
40
1
40
1
40
1
40
1
40
1
41
1
41
1
41
1
41
1
41
1
41
1
41
1
41
1
41
1
41
1
41
1
41
1
41
1
41
1
41
1
41
1
41
1
41
1
41
1
41
1
10
72.0863052149693
20
22.39211848128836
30
0
10
72.060266926938837
20
23.234633266563634
30
0
10
71.934815030273924
20
25.032249394468352
30
0
10
71.526500302897531
20
28.066462393409523
30
0
10
70.538699785661194
20
32.792319644984033
30
0
10
68.567788764620147
20
39.800896480113664
30
0
10
65.905270747009098
20
47.755249894361064
30
0
10
62.665561521468796
20
56.307364723818381
30
0
10
59.078228147342983
20
64.805157952862089
30
0
10
55.456483216550168
20
72.378464885138271
30
0
10
52.141388319193823
20
78.089513208498516
30
0
10
49.457329138034311
20
81.056418157953246
30
0
10
47.658192832516384
20
80.605295489980691
30
0
10
46.884987111722829
20
76.391050916706504
30
0
10
47.203253009733587
20
68.281924181397812
30
0
10
48.627410471690453
20
56.284590356674407
30
0
10
50.641273463699804
20
43.634190747497136
30
0
10
52.634302474262505
20
32.465897910298366
30
0
10
54.175941868937691
20
24.27888097818969
30
0
10
55
20
20
30
0
0
LINE
5
105
100
AcDbEntity
8
0
100
AcDbLine
10
55
20
20
30
0
11
75
21
10
31
0
0
LINE
5
106
100
AcDbEntity
8
0
100
AcDbLine
10
75
20
10
30
0
11
105.00000000000006
21
35.000000000000014
31
0
0
LINE
5
107
100
AcDbEntity
8
0
100
AcDbLine
10
105.00000000000006
20
35.000000000000014
30
0
11
85.000000000000014
21
85
31
0
0
ARC
5
108
100
AcDbEntity
8
0
100
AcDbCircle
10
57.225080682612926
20
38.69989242318276
30
0
40
53.992092983252746
210
0
220
0
230
1
100
AcDbArc
50
-165.30113013624245
51
59.040925427930475
0
ENDSEC
0
SECTION
2
OBJECTS
0
DICTIONARY
5
C
100
AcDbDictionary
3
ACAD_GROUP
350
D
3
ACAD_MLINESTYLE
350
17
0
DICTIONARY
5
D
100
AcDbDictionary
0
DICTIONARY
5
1A
330
C
100
AcDbDictionary
0
DICTIONARY
5
17
100
AcDbDictionary
0
ENDSEC
0
EOF
