0
SECTION
2
HEADER
9
$INSUNITS
70
4
9
$ACADVER
1
AC1014
9
$HANDSEED
5
FFFF
0
ENDSEC
0
SECTION
2
TABLES
0
TABLE
2
VPORT
5
8
100
AcDbSymbolTable
0
ENDTAB
0
TABLE
2
LTYPE
5
5
100
AcDbSymbolTable
0
LTYPE
5
14
100
AcDbSymbolTableRecord
100
AcDbLinetypeTableRecord
2
BYBLOCK
70
0
0
LTYPE
5
15
100
AcDbSymbolTableRecord
100
AcDbLinetypeTableRecord
2
BYLAYER
70
0
0
ENDTAB
0
TABLE
2
LAYER
5
2
100
AcDbSymbolTable
70
2
0
LAYER
5
50
100
AcDbSymbolTableRecord
100
AcDbLayerTableRecord
2
0
70
0
6
CONTINUOUS
0
ENDTAB
0
TABLE
2
STYLE
5
3
100
AcDbSymbolTable
70
1
0
STYLE
5
11
100
AcDbSymbolTableRecord
100
AcDbTextStyleTableRecord
2
STANDARD
70
0
0
ENDTAB
0
TABLE
2
VIEW
5
6
100
AcDbSymbolTable
70
0
0
ENDTAB
0
TABLE
2
UCS
5
7
100
AcDbSymbolTable
70
0
0
ENDTAB
0
TABLE
2
APPID
5
9
100
AcDbSymbolTable
70
2
0
APPID
5
12
100
AcDbSymbolTableRecord
100
AcDbRegAppTableRecord
2
ACAD
70
0
0
ENDTAB
0
TABLE
2
DIMSTYLE
5
A
100
AcDbSymbolTable
70
1
0
ENDTAB
0
TABLE
2
BLOCK_RECORD
5
1
100
AcDbSymbolTable
70
1
0
BLOCK_RECORD
5
1F
100
AcDbSymbolTableRecord
100
AcDbBlockTableRecord
2
*MODEL_SPACE
0
BLOCK_RECORD
5
1B
100
AcDbSymbolTableRecord
100
AcDbBlockTableRecord
2
*PAPER_SPACE
0
ENDTAB
0
ENDSEC
0
SECTION
2
BLOCKS
0
BLOCK
5
20
100
AcDbEntity
100
AcDbBlockBegin
2
*MODEL_SPACE
0
ENDBLK
5
21
100
AcDbEntity
100
AcDbBlockEnd
0
BLOCK
5
1C
100
AcDbEntity
100
AcDbBlockBegin
2
*PAPER_SPACE
0
ENDBLK
5
1D
100
AcDbEntity
100
AcDbBlockEnd
0
ENDSEC
0
SECTION
2
ENTITIES
0
LINE
5
100
100
AcDbEntity
8
0
100
AcDbLine
10
-69.122714809285171
20
15.625441278727319
30
0
11
-51.908245603907623
21
56.145653408308291
31
0
0
LINE
5
101
100
AcDbEntity
8
0
100
AcDbLine
10
-51.908245603907623
20
56.145653408308291
30
0
11
-10
21
70
31
0
0
CIRCLE
5
102
100
AcDbEntity
8
0
100
AcDbCircle
10
-36.282804325180336
20
15.095765303177231
30
0
40
14.633122742817273
210
0
220
0
230
1
0
LWPOLYLINE
5
103
100
AcDbEntity
8
0
100
AcDbPolyline
90
4
70
1
43
0.0
10
19.333173107577863
20
63.03144109045931
10
48.200513775057097
20
63.03144109045931
10
48.200513775057097
20
41.579564080681152
10
19.333173107577863
20
41.579564080681152
0
LWPOLYLINE
5
104
100
AcDbEntity
8
0
100
AcDbPolyline
90
4
70
1
43
0.0
10
66.739172919309837
20
10.063843535451493
10
23.305742924203443
20
10.063843535451493
10
23.305742924203443
20
29.132178655254304
10
66.739172919309837
20
29.132178655254304
0
LINE
5
105
100
AcDbEntity
8
0
100
AcDbLine
10
66.739172919309837
20
10.063843535451493
30
0
11
23.305742924203443
21
29.132178655254304
31
0
0
LINE
5
106
100
AcDbEntity
8
0
100
AcDbLine
10
23.305742924203443
20
10.063843535451493
30
0
11
66.739172919309837
21
29.132178655254304
31
0
0
SPLINE
5
107
100
AcDbEntity
8
0
100
AcDbSpline
70
4
71
5
72
31
73
25
74
0
42
0.000000001
43
0.0000000001
44
0.0000000001
40
0
40
0
40
0
40
0
40
0
40
0
40
0.050000000000000003
40
0.10000000000000001
40
0.15000000000000002
40
0.20000000000000001
40
0.25
40
0.29999999999999999
40
0.34999999999999998
40
0.39999999999999997
40
0.44999999999999996
40
0.49999999999999994
40
0.54999999999999993
40
0.59999999999999998
40
0.65000000000000002
40
0.70000000000000007
40
0.75000000000000011
40
0.80000000000000016
40
0.8500000000000002
40
0.90000000000000024
40
0.95000000000000029
40
1
40
1
40
1
40
1
40
1
40
1
41
1
41
1
41
1
41
1
41
1
41
1
41
1
41
1
41
1
41
1
41
1
41
1
41
1
41
1
41
1
41
1
41
1
41
1
41
1
41
1
41
1
41
1
41
1
41
1
41
1
10
-58.264357310508586
20
-25.159608838628706
30
0
10
-55.801956473764271
20
-23.656008967646613
30
0
10
-51.099947989933895
20
-20.890006302325801
30
0
10
-44.715297412811935
20
-17.464579717916855
30
0
10
-37.54476120079034
20
-14.350525078931938
30
0
10
-30.806540992445356
20
-12.876671202407667
30
0
10
-26.202390667747544
20
-13.752535368320606
30
0
10
-23.500233645124489
20
-16.78743444031209
30
0
10
-22.277666762857464
20
-21.622706689423779
30
0
10
-21.82716558313151
20
-27.649462079459234
30
0
10
-21.265423654340971
20
-34.08245396762436
30
0
10
-19.733743243527858
20
-40.102683583210123
30
0
10
-16.565086600770751
20
-44.974013712449235
30
0
10
-11.476670365674966
20
-48.176823583395397
30
0
10
-4.7347657829314365
20
-49.523603406762156
30
0
10
3.0281199294344043
20
-49.062636852596945
30
0
10
10.964857787761064
20
-47.000854240568366
30
0
10
18.176639960348908
20
-43.622424033080314
30
0
10
23.857215298626873
20
-39.217313977461153
30
0
10
27.476656477061319
20
-33.995857607552047
30
0
10
28.755338082749144
20
-28.086874593179544
30
0
10
27.811751572418437
20
-22.866486500874018
30
0
10
25.990201864962941
20
-18.686404300668706
30
0
10
24.282742537351115
20
-15.782500352588686
30
0
10
23.305742924203443
20
-14.301251339852108
30
0
0
ARC
5
108
100
AcDbEntity
8
0
100
AcDbCircle
10
70.97658072371047
20
-33.369586459654919
30
0
40
28.188766220250955
210
0
220
-0
230
1
100
AcDbArc
50
45
51
153.19421167020022
0
ENDSEC
0
SECTION
2
OBJECTS
0
DICTIONARY
5
C
100
AcDbDictionary
3
ACAD_GROUP
350
D
3
ACAD_MLINESTYLE
350
17
0
DICTIONARY
5
D
100
AcDbDictionary
0
DICTIONARY
5
1A
330
C
100
AcDbDictionary
0
DICTIONARY
5
17
100
AcDbDictionary
0
ENDSEC
0
EOF
