0
SECTION
2
HEADER
9
$INSUNITS
70
4
9
$ACADVER
1
AC1014
9
$HANDSEED
5
FFFF
0
ENDSEC
0
SECTION
2
TABLES
0
TABLE
2
VPORT
5
8
100
AcDbSymbolTable
0
ENDTAB
0
TABLE
2
LTYPE
5
5
100
AcDbSymbolTable
0
LTYPE
5
14
100
AcDbSymbolTableRecord
100
AcDbLinetypeTableRecord
2
BYBLOCK
70
0
0
LTYPE
5
15
100
AcDbSymbolTableRecord
100
AcDbLinetypeTableRecord
2
BYLAYER
70
0
0
ENDTAB
0
TABLE
2
LAYER
5
2
100
AcDbSymbolTable
70
2
0
LAYER
5
50
100
AcDbSymbolTableRecord
100
AcDbLayerTableRecord
2
0
70
0
6
CONTINUOUS
0
ENDTAB
0
TABLE
2
STYLE
5
3
100
AcDbSymbolTable
70
1
0
STYLE
5
11
100
AcDbSymbolTableRecord
100
AcDbTextStyleTableRecord
2
STANDARD
70
0
0
ENDTAB
0
TABLE
2
VIEW
5
6
100
AcDbSymbolTable
70
0
0
ENDTAB
0
TABLE
2
UCS
5
7
100
AcDbSymbolTable
70
0
0
ENDTAB
0
TABLE
2
APPID
5
9
100
AcDbSymbolTable
70
2
0
APPID
5
12
100
AcDbSymbolTableRecord
100
AcDbRegAppTableRecord
2
ACAD
70
0
0
ENDTAB
0
TABLE
2
DIMSTYLE
5
A
100
AcDbSymbolTable
70
1
0
ENDTAB
0
TABLE
2
BLOCK_RECORD
5
1
100
AcDbSymbolTable
70
1
0
BLOCK_RECORD
5
1F
100
AcDbSymbolTableRecord
100
AcDbBlockTableRecord
2
*MODEL_SPACE
0
BLOCK_RECORD
5
1B
100
AcDbSymbolTableRecord
100
AcDbBlockTableRecord
2
*PAPER_SPACE
0
ENDTAB
0
ENDSEC
0
SECTION
2
BLOCKS
0
BLOCK
5
20
100
AcDbEntity
100
AcDbBlockBegin
2
*MODEL_SPACE
0
ENDBLK
5
21
100
AcDbEntity
100
AcDbBlockEnd
0
BLOCK
5
1C
100
AcDbEntity
100
AcDbBlockBegin
2
*PAPER_SPACE
0
ENDBLK
5
1D
100
AcDbEntity
100
AcDbBlockEnd
0
ENDSEC
0
SECTION
2
ENTITIES
0
LINE
5
100
100
AcDbEntity
8
0
100
AcDbLine
10
2.2287529830081048
20
6.4727696001679238
30
0
11
2.6135501812822985
21
6.7132677618433174
31
0
0
LINE
5
101
100
AcDbEntity
8
0
100
AcDbLine
10
2.6135501812822985
20
6.7132677618433174
30
0
11
2.9152101160301651
21
6.907888058947532
31
0
0
LINE
5
102
100
AcDbEntity
8
0
100
AcDbLine
10
2.9152101160301651
20
6.907888058947532
30
0
11
3.2892059165920564
21
7.1476280798392988
31
0
0
LINE
5
103
100
AcDbEntity
8
0
100
AcDbLine
10
3.2892059165920564
20
7.1476280798392988
30
0
11
3.6699293474538246
21
7.3665448373190889
31
0
0
LINE
5
104
100
AcDbEntity
8
0
100
AcDbLine
10
3.6699293474538246
20
7.3665448373190889
30
0
11
3.9402790030179786
21
7.5094048772007982
31
0
0
LINE
5
105
100
AcDbEntity
8
0
100
AcDbLine
10
3.9402790030179786
20
7.5094048772007982
30
0
11
4.1526264820354895
21
7.6204416435767053
31
0
0
LINE
5
106
100
AcDbEntity
8
0
100
AcDbLine
10
4.1526264820354895
20
7.6204416435767053
30
0
11
4.3469059804963104
21
7.724379272209557
31
0
0
LINE
5
107
100
AcDbEntity
8
0
100
AcDbLine
10
4.3469059804963104
20
7.724379272209557
30
0
11
4.47964408619245
21
7.7958370424941794
31
0
0
LINE
5
108
100
AcDbEntity
8
0
100
AcDbLine
10
4.47964408619245
20
7.7958370424941794
30
0
11
4.5983382665649621
21
7.8509710824893073
31
0
0
LINE
5
109
100
AcDbEntity
8
0
100
AcDbLine
10
4.5983382665649621
20
7.8509710824893073
30
0
11
4.6706087841097137
21
7.8861383097762054
31
0
0
LINE
5
110
100
AcDbEntity
8
0
100
AcDbLine
10
4.6706087841097137
20
7.8861383097762054
30
0
11
4.7264625195423084
21
7.9140644167475056
31
0
0
LINE
5
111
100
AcDbEntity
8
0
100
AcDbLine
10
4.7264625195423084
20
7.9140644167475056
30
0
11
4.8283879591522423
21
7.9603948663247825
31
0
0
LINE
5
112
100
AcDbEntity
8
0
100
AcDbLine
10
4.8283879591522423
20
7.9603948663247825
30
0
11
4.9582370091244812
21
8.0170178821111335
31
0
0
LINE
5
113
100
AcDbEntity
8
0
100
AcDbLine
10
4.9582370091244812
20
8.0170178821111335
30
0
11
5.0798861626870364
21
8.0638060180967308
31
0
0
LINE
5
114
100
AcDbEntity
8
0
100
AcDbLine
10
5.0798861626870364
20
8.0638060180967308
30
0
11
5.1655761952288124
21
8.0923693622773225
31
0
0
LINE
5
115
100
AcDbEntity
8
0
100
AcDbLine
10
5.1655761952288124
20
8.0923693622773225
30
0
11
5.2855762009285066
21
8.1323693641772206
31
0
0
LINE
5
116
100
AcDbEntity
8
0
100
AcDbLine
10
5.2855762009285066
20
8.1323693641772206
30
0
11
5.4055762066282025
21
8.1723693660771186
31
0
0
LINE
5
117
100
AcDbEntity
8
0
100
AcDbLine
10
5.4055762066282025
20
8.1723693660771186
30
0
11
5.495576210902974
21
8.2023693675020422
31
0
0
LINE
5
118
100
AcDbEntity
8
0
100
AcDbLine
10
5.495576210902974
20
8.2023693675020422
30
0
11
5.5837864059690512
21
8.2317727658574018
31
0
0
LINE
5
119
100
AcDbEntity
8
0
100
AcDbLine
10
5.5837864059690512
20
8.2317727658574018
30
0
11
5.7389369891742295
21
8.2802573231090211
31
0
0
LINE
5
120
100
AcDbEntity
8
0
100
AcDbLine
10
5.7389369891742295
20
8.2802573231090211
30
0
11
5.9133572289194758
21
8.3287073897049222
31
0
0
LINE
5
121
100
AcDbEntity
8
0
100
AcDbLine
10
5.9133572289194758
20
8.3287073897049222
30
0
11
6.2290031974985594
21
8.4076188818496931
31
0
0
LINE
5
122
100
AcDbEntity
8
0
100
AcDbLine
10
6.2290031974985594
20
8.4076188818496931
30
0
11
6.7227380508566696
21
8.5211778981220583
31
0
0
LINE
5
123
100
AcDbEntity
8
0
100
AcDbLine
10
6.7227380508566696
20
8.5211778981220583
30
0
11
7.2360016948072055
21
8.6149472176899451
31
0
0
LINE
5
124
100
AcDbEntity
8
0
100
AcDbLine
10
7.2360016948072055
20
8.6149472176899451
30
0
11
8.2100416741532065
21
8.7697380482602938
31
0
0
LINE
5
125
100
AcDbEntity
8
0
100
AcDbLine
10
8.2100416741532065
20
8.7697380482602938
30
0
11
9.2759052723493944
21
8.9150869484307798
31
0
0
LINE
5
126
100
AcDbEntity
8
0
100
AcDbLine
10
9.2759052723493944
20
8.9150869484307798
30
0
11
10.047155829458674
21
9.0286051827842506
31
0
0
LINE
5
127
100
AcDbEntity
8
0
100
AcDbLine
10
10.047155829458674
20
9.0286051827842506
30
0
11
12.069862831009445
21
9.237059368124843
31
0
0
LINE
5
128
100
AcDbEntity
8
0
100
AcDbLine
10
12.069862831009445
20
9.237059368124843
30
0
11
13.793661937646444
21
9.3781349911390368
31
0
0
LINE
5
129
100
AcDbEntity
8
0
100
AcDbLine
10
13.793661937646444
20
9.3781349911390368
30
0
11
17.601070018208635
21
9.592435933279214
31
0
0
LINE
5
130
100
AcDbEntity
8
0
100
AcDbLine
10
17.601070018208635
20
9.592435933279214
30
0
11
19.996169048947657
21
9.7272446976527487
31
0
0
LINE
5
131
100
AcDbEntity
8
0
100
AcDbLine
10
19.996169048947657
20
9.7272446976527487
30
0
11
24.251980385828883
21
9.7272446976527487
31
0
0
LINE
5
132
100
AcDbEntity
8
0
100
AcDbLine
10
24.251980385828883
20
9.7272446976527487
30
0
11
26.900027903195056
21
9.7272446976527487
31
0
0
LINE
5
133
100
AcDbEntity
8
0
100
AcDbLine
10
26.900027903195056
20
9.7272446976527487
30
0
11
29.009496330697452
21
9.6891986570877791
31
0
0
LINE
5
134
100
AcDbEntity
8
0
100
AcDbLine
10
29.009496330697452
20
9.6891986570877791
30
0
11
31.831998667737071
21
9.5442067667467541
31
0
0
LINE
5
135
100
AcDbEntity
8
0
100
AcDbLine
10
31.831998667737071
20
9.5442067667467541
30
0
11
35.118142560815016
21
9.1576016028552321
31
0
0
LINE
5
136
100
AcDbEntity
8
0
100
AcDbLine
10
35.118142560815016
20
9.1576016028552321
30
0
11
37.030532657833696
21
8.8280148237566678
31
0
0
LINE
5
137
100
AcDbEntity
8
0
100
AcDbLine
10
37.030532657833696
20
8.8280148237566678
30
0
11
38.921583591583236
21
8.5499312516942023
31
0
0
LINE
5
138
100
AcDbEntity
8
0
100
AcDbLine
10
38.921583591583236
20
8.5499312516942023
30
0
11
41.303788267171612
21
8.0465831353639281
31
0
0
LINE
5
139
100
AcDbEntity
8
0
100
AcDbLine
10
41.303788267171612
20
8.0465831353639281
30
0
11
42.083962809486565
21
7.7981147340699533
31
0
0
LINE
5
140
100
AcDbEntity
8
0
100
AcDbLine
10
42.083962809486565
20
7.7981147340699533
30
0
11
43.130171544824321
21
7.4649203041186336
31
0
0
LINE
5
141
100
AcDbEntity
8
0
100
AcDbLine
10
43.130171544824321
20
7.4649203041186336
30
0
11
43.615713737631808
21
7.2798073431107824
31
0
0
LINE
5
142
100
AcDbEntity
8
0
100
AcDbLine
10
43.615713737631808
20
7.2798073431107824
30
0
11
44.018132945208464
21
7.0490865789985371
31
0
0
LINE
5
143
100
AcDbEntity
8
0
100
AcDbLine
10
44.018132945208464
20
7.0490865789985371
30
0
11
44.480319353424235
21
6.771774734069071
31
0
0
LINE
5
144
100
AcDbEntity
8
0
100
AcDbLine
10
44.480319353424235
20
6.771774734069071
30
0
11
44.734102822165795
21
6.5179912653275114
31
0
0
LINE
5
145
100
AcDbEntity
8
0
100
AcDbLine
10
44.734102822165795
20
6.5179912653275114
30
0
11
44.945603393168163
21
6.1372902375232519
31
0
0
LINE
5
146
100
AcDbEntity
8
0
100
AcDbLine
10
44.945603393168163
20
6.1372902375232519
30
0
11
45.033554522408863
21
5.5656078974586283
31
0
0
LINE
5
147
100
AcDbEntity
8
0
100
AcDbLine
10
45.033554522408863
20
5.5656078974586283
30
0
11
44.987971644540401
21
5.018613363037022
31
0
0
LINE
5
148
100
AcDbEntity
8
0
100
AcDbLine
10
44.987971644540401
20
5.018613363037022
30
0
11
44.893214799147458
21
4.5448291360722939
31
0
0
LINE
5
149
100
AcDbEntity
8
0
100
AcDbLine
10
44.893214799147458
20
4.5448291360722939
30
0
11
44.800055962823734
21
4.0790349544536593
31
0
0
LINE
5
150
100
AcDbEntity
8
0
100
AcDbLine
10
44.800055962823734
20
4.0790349544536593
30
0
11
44.62458997277384
21
3.6553452867156251
31
0
0
LINE
5
151
100
AcDbEntity
8
0
100
AcDbLine
10
44.62458997277384
20
3.6553452867156251
30
0
11
44.381677079496242
21
3.4203967505946671
31
0
0
LINE
5
152
100
AcDbEntity
8
0
100
AcDbLine
10
44.381677079496242
20
3.4203967505946671
30
0
11
43.853524414420804
21
3.1651229624748773
31
0
0
LINE
5
153
100
AcDbEntity
8
0
100
AcDbLine
10
43.853524414420804
20
3.1651229624748773
30
0
11
43.298603177234867
21
3.0669341333633171
31
0
0
LINE
5
154
100
AcDbEntity
8
0
100
AcDbLine
10
43.298603177234867
20
3.0669341333633171
30
0
11
42.205364164319349
21
2.9412686318342018
31
0
0
LINE
5
155
100
AcDbEntity
8
0
100
AcDbLine
10
42.205364164319349
20
2.9412686318342018
30
0
11
40.662592655506941
21
2.813693874917806
31
0
0
LINE
5
156
100
AcDbEntity
8
0
100
AcDbLine
10
40.662592655506941
20
2.813693874917806
30
0
11
40.083844688747789
21
2.7847562133109505
31
0
0
LINE
5
157
100
AcDbEntity
8
0
100
AcDbLine
10
40.083844688747789
20
2.7847562133109505
30
0
11
38.727980458311009
21
2.7169632661201817
31
0
0
LINE
5
158
100
AcDbEntity
8
0
100
AcDbLine
10
38.727980458311009
20
2.7169632661201817
30
0
11
37.031478109775598
21
2.6684917704477469
31
0
0
LINE
5
159
100
AcDbEntity
8
0
100
AcDbLine
10
37.031478109775598
20
2.6684917704477469
30
0
11
35.817490589939631
21
2.6199322696543081
31
0
0
LINE
5
160
100
AcDbEntity
8
0
100
AcDbLine
10
35.817490589939631
20
2.6199322696543081
30
0
11
34.699760440364209
21
2.5713353066292912
31
0
0
LINE
5
161
100
AcDbEntity
8
0
100
AcDbLine
10
33.670861953694846
20
2.5071509005722077
30
0
11
34.699760440364209
21
2.5713353066292912
31
0
0
LINE
5
162
100
AcDbEntity
8
0
100
AcDbLine
10
32.471714736667096
20
2.4647613900800329
30
0
11
33.670861953694846
21
2.5071509005722077
31
0
0
LINE
5
163
100
AcDbEntity
8
0
100
AcDbLine
10
31.348074124517403
20
2.4188292907207152
30
0
11
32.471714736667096
21
2.4647613900800329
31
0
0
LINE
5
164
100
AcDbEntity
8
0
100
AcDbLine
10
30.493232291687605
20
2.3560359247240643
30
0
11
31.348074124517403
21
2.4188292907207152
31
0
0
LINE
5
165
100
AcDbEntity
8
0
100
AcDbLine
10
29.466727105026742
20
2.2806328344587197
30
0
11
30.493232291687605
21
2.3560359247240643
31
0
0
LINE
5
166
100
AcDbEntity
8
0
100
AcDbLine
10
28.564431890471099
20
2.2143537270628362
30
0
11
29.466727105026742
21
2.2806328344587197
31
0
0
LINE
5
167
100
AcDbEntity
8
0
100
AcDbLine
10
27.704360980029556
20
2.1339240111529731
30
0
11
28.564431890471099
21
2.2143537270628362
31
0
0
LINE
5
168
100
AcDbEntity
8
0
100
AcDbLine
10
26.802351973259611
20
2.0188659213964661
30
0
11
27.704360980029556
21
2.1339240111529731
31
0
0
LINE
5
169
100
AcDbEntity
8
0
100
AcDbLine
10
25.931936324457144
20
1.8880792838810052
30
0
11
26.802351973259611
21
2.0188659213964661
31
0
0
LINE
5
170
100
AcDbEntity
8
0
100
AcDbLine
10
25.011358449293112
20
1.7497553865229092
30
0
11
25.931936324457144
21
1.8880792838810052
31
0
0
LINE
5
171
100
AcDbEntity
8
0
100
AcDbLine
10
24.011329922376273
20
1.5994934184218796
30
0
11
25.011358449293112
21
1.7497553865229092
31
0
0
LINE
5
172
100
AcDbEntity
8
0
100
AcDbLine
10
22.99285489237532
20
1.4539969855646002
30
0
11
24.011329922376273
21
1.5994934184218796
31
0
0
LINE
5
173
100
AcDbEntity
8
0
100
AcDbLine
10
22.025306581901354
20
1.308864738993506
30
0
11
22.99285489237532
21
1.4539969855646002
31
0
0
LINE
5
174
100
AcDbEntity
8
0
100
AcDbLine
10
21.19772967376587
20
1.211502749801096
30
0
11
22.025306581901354
21
1.308864738993506
31
0
0
LINE
5
175
100
AcDbEntity
8
0
100
AcDbLine
10
20.132155856640534
20
1.0177620557783078
30
0
11
21.19772967376587
21
1.211502749801096
31
0
0
LINE
5
176
100
AcDbEntity
8
0
100
AcDbLine
10
19.305843321819719
20
0.93265763665688706
30
0
11
20.132155856640534
21
1.0177620557783078
31
0
0
LINE
5
177
100
AcDbEntity
8
0
100
AcDbLine
10
18.582419814257921
20
0.82395769751422465
30
0
11
19.305843321819719
21
0.93265763665688706
31
0
0
LINE
5
178
100
AcDbEntity
8
0
100
AcDbLine
10
17.715622612651703
20
0.72764689733575683
30
0
11
18.582419814257921
21
0.82395769751422465
31
0
0
LINE
5
179
100
AcDbEntity
8
0
100
AcDbLine
10
16.601217423579719
20
0.63074209828601857
30
0
11
17.715622612651703
21
0.72764689733575683
31
0
0
LINE
5
180
100
AcDbEntity
8
0
100
AcDbLine
10
15.729835853431755
20
0.54360362781508087
30
0
11
16.601217423579719
21
0.63074209828601857
31
0
0
LINE
5
181
100
AcDbEntity
8
0
100
AcDbLine
10
14.911006398432205
20
0.48580422642144916
30
0
11
15.729835853431755
21
0.54360362781508087
31
0
0
LINE
5
182
100
AcDbEntity
8
0
100
AcDbLine
10
14.239047838084634
20
0.45700600374757328
30
0
11
14.911006398432205
21
0.48580422642144916
31
0
0
LINE
5
183
100
AcDbEntity
8
0
100
AcDbLine
10
13.274612989757957
20
0.4570056399768197
30
0
11
14.239047838084634
21
0.45700600374757328
31
0
0
LINE
5
184
100
AcDbEntity
8
0
100
AcDbLine
10
12.520789872403066
20
0.46667003891726455
30
0
11
13.274612989757957
21
0.4570056399768197
31
0
0
LINE
5
185
100
AcDbEntity
8
0
100
AcDbLine
10
11.821108243422175
20
0.48610563972229004
30
0
11
12.520789872403066
21
0.46667003891726455
31
0
0
LINE
5
186
100
AcDbEntity
8
0
100
AcDbLine
10
10.947505395390477
20
0.48610600245529645
30
0
11
11.821108243422175
21
0.48610563972229004
31
0
0
LINE
5
187
100
AcDbEntity
8
0
100
AcDbLine
10
10.508698791426138
20
0.49564527710634654
30
0
11
10.947505395390477
21
0.48610600245529645
31
0
0
LINE
5
188
100
AcDbEntity
8
0
100
AcDbLine
10
9.9926721292160554
20
0.53386947368905213
30
0
11
10.508698791426138
21
0.49564527710634654
31
0
0
LINE
5
189
100
AcDbEntity
8
0
100
AcDbLine
10
9.5144349813725384
20
0.58169318847340656
30
0
11
9.9926721292160554
21
0.53386947368905213
31
0
0
LINE
5
190
100
AcDbEntity
8
0
100
AcDbLine
10
8.8498296206195821
20
0.67663681143811649
30
0
11
9.5144349813725384
21
0.58169318847340656
31
0
0
LINE
5
191
100
AcDbEntity
8
0
100
AcDbLine
10
8.2778388831781129
20
0.81963449579848147
30
0
11
8.8498296206195821
21
0.67663681143811649
31
0
0
LINE
5
192
100
AcDbEntity
8
0
100
AcDbLine
10
7.6990718068185284
20
0.96432626825724232
30
0
11
8.2778388831781129
21
0.81963449579848147
31
0
0
LINE
5
193
100
AcDbEntity
8
0
100
AcDbLine
10
7.0274545765860115
20
1.156216902115685
30
0
11
7.6990718068185284
21
0.96432626825724232
31
0
0
LINE
5
194
100
AcDbEntity
8
0
100
AcDbLine
10
6.162089796790573
20
1.4446718287141649
30
0
11
7.0274545765860115
21
1.156216902115685
31
0
0
LINE
5
195
100
AcDbEntity
8
0
100
AcDbLine
10
5.3929295760238958
20
1.7331069115016651
30
0
11
6.162089796790573
21
1.4446718287141649
31
0
0
LINE
5
196
100
AcDbEntity
8
0
100
AcDbLine
10
4.8206134092228545
20
1.9715719810020871
30
0
11
5.3929295760238958
21
1.7331069115016651
31
0
0
LINE
5
197
100
AcDbEntity
8
0
100
AcDbLine
10
4.341774566163723
20
2.210991402531671
30
0
11
4.8206134092228545
21
1.9715719810020871
31
0
0
LINE
5
198
100
AcDbEntity
8
0
100
AcDbLine
10
3.7597745791724311
20
2.501991396027317
30
0
11
4.341774566163723
21
2.210991402531671
31
0
0
LINE
5
199
100
AcDbEntity
8
0
100
AcDbLine
10
2.797373012976716
20
2.9831921791251736
30
0
11
3.7597745791724311
21
2.501991396027317
31
0
0
LINE
5
200
100
AcDbEntity
8
0
100
AcDbLine
10
1.9349888098776877
20
3.5102047476856901
30
0
11
2.797373012976716
21
2.9831921791251736
31
0
0
LINE
5
201
100
AcDbEntity
8
0
100
AcDbLine
10
1.3693969434320197
20
3.887265991982801
30
0
11
1.9349888098776877
21
3.5102047476856901
31
0
0
LINE
5
202
100
AcDbEntity
8
0
100
AcDbLine
10
0.76376715835493902
20
4.4463088705154847
30
0
11
1.3693969434320197
21
3.887265991982801
31
0
0
LINE
5
203
100
AcDbEntity
8
0
100
AcDbLine
10
0.43235082547878195
20
4.8866840941160579
30
0
11
0.76376715835493902
21
4.4463088705154847
31
0
0
LINE
5
204
100
AcDbEntity
8
0
100
AcDbLine
10
0.81111801396513994
20
5.3405492632752392
30
0
11
1.1827027397916803
21
5.7121340886641701
31
0
0
LINE
5
205
100
AcDbEntity
8
0
100
AcDbLine
10
1.1827027397916803
20
5.7121340886641701
30
0
11
1.7507096606456254
21
6.138139185648849
31
0
0
LINE
5
206
100
AcDbEntity
8
0
100
AcDbLine
10
1.7507096606456254
20
6.138139185648849
30
0
11
2.2287529830081048
21
6.4727696001679238
31
0
0
LINE
5
207
100
AcDbEntity
8
0
100
AcDbLine
10
0.13898324389104927
20
4.5351506691242252
30
0
11
0.81111801396513994
21
5.3405492632752392
31
0
0
ENDSEC
0
SECTION
2
OBJECTS
0
DICTIONARY
5
C
100
AcDbDictionary
3
ACAD_GROUP
350
D
3
ACAD_MLINESTYLE
350
17
0
DICTIONARY
5
D
100
AcDbDictionary
0
DICTIONARY
5
1A
330
C
100
AcDbDictionary
0
DICTIONARY
5
17
100
AcDbDictionary
0
ENDSEC
0
EOF
