0
SECTION
2
HEADER
9
$INSUNITS
70
4
9
$ACADVER
1
AC1014
9
$HANDSEED
5
FFFF
0
ENDSEC
0
SECTION
2
TABLES
0
TABLE
2
VPORT
5
8
100
AcDbSymbolTable
0
ENDTAB
0
TABLE
2
LTYPE
5
5
100
AcDbSymbolTable
0
LTYPE
5
14
100
AcDbSymbolTableRecord
100
AcDbLinetypeTableRecord
2
BYBLOCK
70
0
0
LTYPE
5
15
100
AcDbSymbolTableRecord
100
AcDbLinetypeTableRecord
2
BYLAYER
70
0
0
ENDTAB
0
TABLE
2
LAYER
5
2
100
AcDbSymbolTable
70
2
0
LAYER
5
50
100
AcDbSymbolTableRecord
100
AcDbLayerTableRecord
2
0
70
0
6
CONTINUOUS
0
ENDTAB
0
TABLE
2
STYLE
5
3
100
AcDbSymbolTable
70
1
0
STYLE
5
11
100
AcDbSymbolTableRecord
100
AcDbTextStyleTableRecord
2
STANDARD
70
0
0
ENDTAB
0
TABLE
2
VIEW
5
6
100
AcDbSymbolTable
70
0
0
ENDTAB
0
TABLE
2
UCS
5
7
100
AcDbSymbolTable
70
0
0
ENDTAB
0
TABLE
2
APPID
5
9
100
AcDbSymbolTable
70
2
0
APPID
5
12
100
AcDbSymbolTableRecord
100
AcDbRegAppTableRecord
2
ACAD
70
0
0
ENDTAB
0
TABLE
2
DIMSTYLE
5
A
100
AcDbSymbolTable
70
1
0
ENDTAB
0
TABLE
2
BLOCK_RECORD
5
1
100
AcDbSymbolTable
70
1
0
BLOCK_RECORD
5
1F
100
AcDbSymbolTableRecord
100
AcDbBlockTableRecord
2
*MODEL_SPACE
0
BLOCK_RECORD
5
1B
100
AcDbSymbolTableRecord
100
AcDbBlockTableRecord
2
*PAPER_SPACE
0
ENDTAB
0
ENDSEC
0
SECTION
2
BLOCKS
0
BLOCK
5
20
100
AcDbEntity
100
AcDbBlockBegin
2
*MODEL_SPACE
0
ENDBLK
5
21
100
AcDbEntity
100
AcDbBlockEnd
0
BLOCK
5
1C
100
AcDbEntity
100
AcDbBlockBegin
2
*PAPER_SPACE
0
ENDBLK
5
1D
100
AcDbEntity
100
AcDbBlockEnd
0
ENDSEC
0
SECTION
2
ENTITIES
0
LINE
5
100
100
AcDbEntity
8
0
100
AcDbLine
10
50.000000000000007
20
70
30
0
11
50
21
105.00000156462193
31
0
0
LWPOLYLINE
5
101
100
AcDbEntity
8
0
100
AcDbPolyline
90
4
70
1
43
0.0
10
45.000000000000043
20
89.999999999999972
10
55.000000000000007
20
89.999999999999972
10
55.000000000000043
20
79.999999999999957
10
45.000000000000043
20
80
0
LINE
5
102
100
AcDbEntity
8
0
100
AcDbLine
10
45.000000000000043
20
89.999999999999972
30
0
11
55.000000000000043
21
79.999999999999957
31
0
0
LINE
5
103
100
AcDbEntity
8
0
100
AcDbLine
10
55.000000000000007
20
89.999999999999972
30
0
11
45.000000000000043
21
80
31
0
0
LINE
5
104
100
AcDbEntity
8
0
100
AcDbLine
10
43.762563132923667
20
88.762563132923333
30
0
11
46.237436867076354
21
91.237436867076497
31
0
0
LINE
5
105
100
AcDbEntity
8
0
100
AcDbLine
10
46.23743686707661
20
78.76256313292366
30
0
11
43.762563132923432
21
81.23743686707634
31
0
0
LINE
5
106
100
AcDbEntity
8
0
100
AcDbLine
10
56.237436867076333
20
81.237436867076553
30
0
11
53.76256313292366
21
78.762563132923376
31
0
0
LINE
5
107
100
AcDbEntity
8
0
100
AcDbLine
10
53.762563132923447
20
91.237436867076283
30
0
11
56.237436867076617
21
88.762563132923617
31
0
0
SPLINE
5
108
100
AcDbEntity
8
0
100
AcDbSpline
70
6
71
5
72
51
73
45
74
0
42
0.000000001
43
0.0000000001
44
0.0000000001
40
0
40
0
40
0
40
0
40
0
40
0
40
0.025000000000000001
40
0.050000000000000003
40
0.075000000000000011
40
0.10000000000000001
40
0.125
40
0.14999999999999999
40
0.17499999999999999
40
0.19999999999999998
40
0.22499999999999998
40
0.24999999999999997
40
0.27499999999999997
40
0.29999999999999999
40
0.32500000000000001
40
0.35000000000000003
40
0.37500000000000006
40
0.40000000000000008
40
0.4250000000000001
40
0.45000000000000012
40
0.47500000000000014
40
0.50000000000000011
40
0.52500000000000013
40
0.55000000000000016
40
0.57500000000000018
40
0.6000000000000002
40
0.62500000000000022
40
0.65000000000000024
40
0.67500000000000027
40
0.70000000000000029
40
0.72500000000000031
40
0.75000000000000033
40
0.77500000000000036
40
0.80000000000000038
40
0.8250000000000004
40
0.85000000000000042
40
0.87500000000000044
40
0.90000000000000047
40
0.92500000000000049
40
0.95000000000000051
40
0.97500000000000053
40
1
40
1
40
1
40
1
40
1
40
1
41
1
41
1
41
1
41
1
41
1
41
1
41
1
41
1
41
1
41
1
41
1
41
1
41
1
41
1
41
1
41
1
41
1
41
1
41
1
41
1
41
1
41
1
41
1
41
1
41
1
41
1
41
1
41
1
41
1
41
1
41
1
41
1
41
1
41
1
41
1
41
1
41
1
41
1
41
1
41
1
41
1
41
1
41
1
41
1
41
1
10
46.237436867076354
20
91.237436867076497
30
0
10
46.444642079509606
20
91.287059706719376
30
0
10
46.880847821356042
20
91.374241060584168
30
0
10
47.597599538668042
20
91.472538714158645
30
0
10
48.657316661734676
20
91.550993433093097
30
0
10
50.073409331031044
20
91.579580478718611
30
0
10
51.48441725392896
20
91.544337191195154
30
0
10
52.79469123041153
20
91.438305603319705
30
0
10
53.924452964067513
20
91.242058195038396
30
0
10
54.825938356162602
20
90.923272188140473
30
0
10
55.496559989225275
20
90.43774014717178
30
0
10
55.962894303055393
20
89.744286610449379
30
0
10
56.267175270469934
20
88.818562534853115
30
0
10
56.452925034474973
20
87.667329742056651
30
0
10
56.550993433163448
20
86.342683338203727
30
0
10
56.579580478792415
20
84.926590668904566
30
0
10
56.544337191247308
20
83.515582746024222
30
0
10
56.438305603341917
20
82.205308769568035
30
0
10
56.242058195033138
20
81.075547035937049
30
0
10
55.923272188120492
20
80.17406164385649
30
0
10
55.437740147150862
20
79.503440010795842
30
0
10
54.744286610437427
20
79.037105696957695
30
0
10
53.818562534853633
20
78.732824729529938
30
0
10
52.667329742067572
20
78.547074965512238
30
0
10
51.342683338219842
20
78.449006566815385
30
0
10
49.926590668920284
20
78.420419521183945
30
0
10
48.515582746035022
20
78.455662808733081
30
0
10
47.205308769572063
20
78.561694396647709
30
0
10
46.075547035935898
20
78.757941804968297
30
0
10
45.174061643853676
20
79.076727811891487
30
0
10
44.503440010794307
20
79.562259852866674
30
0
10
44.03710569695815
20
80.255713389577295
30
0
10
43.732824729530762
20
81.181437465148235
30
0
10
43.547074965510191
20
82.332670257913847
30
0
10
43.44900656680845
20
83.657316661740296
30
0
10
43.42041952117274
20
85.073409331026056
30
0
10
43.455662808720945
20
86.484417253912525
30
0
10
43.561694396639552
20
87.794691230394889
30
0
10
43.757941804968972
20
88.924452964067029
30
0
10
44.076727811901975
20
89.825938356188402
30
0
10
44.562259852883884
20
90.496559989273692
30
0
10
45.117022682246827
20
90.8696274403286
30
0
10
45.637616546756604
20
91.076504022726795
30
0
10
46.030231654643131
20
91.187814027433589
30
0
10
46.237436867076354
20
91.237436867076497
30
0
0
CIRCLE
5
109
100
AcDbEntity
8
0
100
AcDbCircle
10
50
20
102.50000000000001
30
0
40
7.5
210
0
220
0
230
1
0
LINE
5
110
100
AcDbEntity
8
0
100
AcDbLine
10
50.000000000000007
20
70
30
0
11
45.000000000000007
21
70.000000000000014
31
0
0
LINE
5
111
100
AcDbEntity
8
0
100
AcDbLine
10
50.000000000000007
20
70
30
0
11
50
21
65
31
0
0
LINE
5
112
100
AcDbEntity
8
0
100
AcDbLine
10
50.000000000000007
20
70
30
0
11
54.999999999999993
21
70.000000000000014
31
0
0
LINE
5
113
100
AcDbEntity
8
0
100
AcDbLine
10
50.000000000000007
20
70
30
0
11
50.000000000000007
21
75
31
0
0
SPLINE
5
114
100
AcDbEntity
8
0
100
AcDbSpline
70
6
71
5
72
31
73
25
74
0
42
0.000000001
43
0.0000000001
44
0.0000000001
40
0
40
0
40
0
40
0
40
0
40
0
40
0.050000000000000003
40
0.10000000000000001
40
0.15000000000000002
40
0.20000000000000001
40
0.25
40
0.29999999999999999
40
0.34999999999999998
40
0.39999999999999997
40
0.44999999999999996
40
0.49999999999999994
40
0.54999999999999993
40
0.59999999999999998
40
0.65000000000000002
40
0.70000000000000007
40
0.75000000000000011
40
0.80000000000000016
40
0.8500000000000002
40
0.90000000000000024
40
0.95000000000000029
40
1
40
1
40
1
40
1
40
1
40
1
41
1
41
1
41
1
41
1
41
1
41
1
41
1
41
1
41
1
41
1
41
1
41
1
41
1
41
1
41
1
41
1
41
1
41
1
41
1
41
1
41
1
41
1
41
1
41
1
41
1
10
45.000000000000007
20
70.000000000000014
30
0
10
44.999999999996582
20
69.687808101731278
30
0
10
45.050122563689719
20
69.063424305194459
30
0
10
45.275674100328146
20
68.141756052402229
30
0
10
45.864725744978934
20
67.002309700771036
30
0
10
47.002309700787464
20
65.864725744969093
30
0
10
48.426617640326754
20
65.128411189165377
30
0
10
50.000000000000576
20
64.872623737462106
30
0
10
51.573382359672024
20
65.128411189200136
30
0
10
52.997690299205651
20
65.864725745027769
30
0
10
54.135274255010714
20
67.002309700832384
30
0
10
54.871588810824932
20
68.426617640352106
30
0
10
55.127376262538867
20
70.000000000000085
30
0
10
54.871588810807481
20
71.573382359647752
30
0
10
54.135274254981312
20
72.99769029916699
30
0
10
52.997690299174138
20
74.135274254971023
30
0
10
51.573382359650239
20
74.871588810798798
30
0
10
49.999999999999289
20
75.127376262537723
30
0
10
48.426617640351253
20
74.871588810836002
30
0
10
47.002309700833258
20
74.135274255032769
30
0
10
45.864725745030384
20
72.997690299231536
30
0
10
45.275674100367233
20
71.858243947597515
30
0
10
45.050122563710254
20
70.936575694806763
30
0
10
45.000000000003439
20
70.312191898268722
30
0
10
45.000000000000007
20
70.000000000000014
30
0
0
LINE
5
115
100
AcDbEntity
8
0
100
AcDbLine
10
49.999999999999986
20
102.50000000000001
30
0
11
47.682372542200426
21
109.63292387222748
31
0
0
LINE
5
116
100
AcDbEntity
8
0
100
AcDbLine
10
49.999999999999986
20
102.50000000000016
30
0
11
46.966186271104775
21
104.70419469611187
31
0
0
LINE
5
117
100
AcDbEntity
8
0
100
AcDbLine
10
49.999999999999993
20
102.5
30
0
11
42.499999999990735
21
102.5000000000162
31
0
0
LINE
5
118
100
AcDbEntity
8
0
100
AcDbLine
10
49.999999999999858
20
102.50000000000006
30
0
11
46.966186271086002
21
100.2958053039204
31
0
0
LINE
5
119
100
AcDbEntity
8
0
100
AcDbLine
10
50.000000000000014
20
102.5
30
0
11
47.682372542169638
21
95.367076127782553
31
0
0
LINE
5
120
100
AcDbEntity
8
0
100
AcDbLine
10
49.999999999999929
20
102.49999999999989
30
0
11
51.158813728888013
21
98.933538063891234
31
0
0
LINE
5
121
100
AcDbEntity
8
0
100
AcDbLine
10
50.000000000000014
20
102.50000000000003
30
0
11
56.067627457810083
21
98.091610607787928
31
0
0
LINE
5
122
100
AcDbEntity
8
0
100
AcDbLine
10
50.000000000000099
20
102.49999999999991
30
0
11
53.749999999998785
21
102.49999999998197
31
0
0
LINE
5
123
100
AcDbEntity
8
0
100
AcDbLine
10
49.999999999999993
20
102.50000000000003
30
0
11
56.067627457829104
21
106.90838939218592
31
0
0
LINE
5
124
100
AcDbEntity
8
0
100
AcDbLine
10
50.000000000000135
20
102.50000000000007
30
0
11
51.158813728923313
21
106.06646193609839
31
0
0
SPLINE
5
125
100
AcDbEntity
8
0
100
AcDbSpline
70
6
71
5
72
61
73
55
74
0
42
0.000000001
43
0.0000000001
44
0.0000000001
40
0
40
0
40
0
40
0
40
0
40
0
40
0.02
40
0.040000000000000001
40
0.059999999999999998
40
0.080000000000000002
40
0.10000000000000001
40
0.12000000000000001
40
0.14000000000000001
40
0.16
40
0.17999999999999999
40
0.19999999999999998
40
0.21999999999999997
40
0.23999999999999996
40
0.25999999999999995
40
0.27999999999999997
40
0.29999999999999999
40
0.32000000000000001
40
0.34000000000000002
40
0.36000000000000004
40
0.38000000000000006
40
0.40000000000000008
40
0.4200000000000001
40
0.44000000000000011
40
0.46000000000000013
40
0.48000000000000015
40
0.50000000000000011
40
0.52000000000000013
40
0.54000000000000015
40
0.56000000000000016
40
0.58000000000000018
40
0.6000000000000002
40
0.62000000000000022
40
0.64000000000000024
40
0.66000000000000025
40
0.68000000000000027
40
0.70000000000000029
40
0.72000000000000031
40
0.74000000000000032
40
0.76000000000000034
40
0.78000000000000036
40
0.80000000000000038
40
0.8200000000000004
40
0.84000000000000041
40
0.86000000000000043
40
0.88000000000000045
40
0.90000000000000047
40
0.92000000000000048
40
0.9400000000000005
40
0.96000000000000052
40
0.98000000000000054
40
1
40
1
40
1
40
1
40
1
40
1
41
1
41
1
41
1
41
1
41
1
41
1
41
1
41
1
41
1
41
1
41
1
41
1
41
1
41
1
41
1
41
1
41
1
41
1
41
1
41
1
41
1
41
1
41
1
41
1
41
1
41
1
41
1
41
1
41
1
41
1
41
1
41
1
41
1
41
1
41
1
41
1
41
1
41
1
41
1
41
1
41
1
41
1
41
1
41
1
41
1
41
1
41
1
41
1
41
1
41
1
41
1
41
1
41
1
41
1
41
1
10
42.499999999990735
20
102.5000000000162
30
0
10
42.499999822490501
20
102.38711718607794
30
0
10
42.579125771432977
20
102.16135154902288
30
0
10
42.935193666347971
20
101.83490095612095
30
0
10
43.811531418971335
20
101.4728207998799
30
0
10
45.179871147099277
20
101.13316625645427
30
0
10
46.388046878660958
20
100.81609170636668
30
0
10
47.092750247417129
20
100.38775935216144
30
0
10
47.282353213071353
20
99.585184907972689
30
0
10
47.210562656733892
20
98.338160972315762
30
0
10
47.110753517853297
20
96.931834244835855
30
0
10
47.202697767338755
20
95.750164509753418
30
0
10
47.617475287291889
20
95.167342882946684
30
0
10
48.295610677008575
20
95.395053569829642
30
0
10
49.064563026251882
20
96.297000741618604
30
0
10
49.81043410942096
20
97.49341006231603
30
0
10
50.485337033079404
20
98.544472057675719
30
0
10
51.110470710132709
20
99.08232292304497
30
0
10
51.932354744226558
20
99.014637022825553
30
0
10
53.09616026870966
20
98.561008571343351
30
0
10
54.402813695635437
20
98.031505531402289
30
0
10
55.555060901849458
20
97.753793615905806
30
0
10
56.23753085318009
20
97.968168673943893
30
0
10
56.230520221006721
20
98.683480249444358
30
0
10
55.610335732806831
20
99.693514415720273
30
0
10
54.702968815052969
20
100.77259078342259
30
0
10
53.911906142838973
20
101.73925760736145
30
0
10
53.593558374586252
20
102.50000009501548
30
0
10
53.911909501296606
20
103.26074218990455
30
0
10
54.70297170399968
20
104.22740819452673
30
0
10
55.610336261083134
20
105.30648404906185
30
0
10
56.230518854232841
20
106.31651851701376
30
0
10
56.237530598924337
20
107.03183141163325
30
0
10
55.555062809106573
20
107.24620743442532
30
0
10
54.402815899672412
20
106.96849510239348
30
0
10
53.096161499352078
20
106.43899117103574
30
0
10
51.932354713342207
20
105.9853622475419
30
0
10
51.110470513367659
20
105.91767712143564
30
0
10
50.485337482621169
20
106.4555285761586
30
0
10
49.810434981957243
20
107.50658970536689
30
0
10
49.064563947150724
20
108.70299785802287
30
0
10
48.295611236060516
20
109.60494472399193
30
0
10
47.61747529076456
20
109.83265700588723
30
0
10
47.20269720231385
20
109.2498374323869
30
0
10
47.110752525689492
20
108.06816834777742
30
0
10
47.210561539234554
20
106.66184105323657
30
0
10
47.282352390439343
20
105.41481590069972
30
0
10
47.092750154009472
20
104.61224050733995
30
0
10
46.388047899528132
20
104.18390778165147
30
0
10
45.179873277743766
20
103.86683322855711
30
0
10
43.811533974435605
20
103.52717890837583
30
0
10
42.935195676999804
20
103.1650989429331
30
0
10
42.579126836433822
20
102.8386484326511
30
0
10
42.500000177490975
20
102.61288281395446
30
0
10
42.499999999990735
20
102.5000000000162
30
0
0
CIRCLE
5
126
100
AcDbEntity
8
0
100
AcDbCircle
10
50.000000000000014
20
102.50000000000003
30
0
40
3.7500000000004845
210
0
220
0
230
1
0
ENDSEC
0
SECTION
2
OBJECTS
0
DICTIONARY
5
C
100
AcDbDictionary
3
ACAD_GROUP
350
D
3
ACAD_MLINESTYLE
350
17
0
DICTIONARY
5
D
100
AcDbDictionary
0
DICTIONARY
5
1A
330
C
100
AcDbDictionary
0
DICTIONARY
5
17
100
AcDbDictionary
0
ENDSEC
0
EOF
