0
SECTION
2
HEADER
9
$INSUNITS
70
4
9
$ACADVER
1
AC1014
9
$HANDSEED
5
FFFF
0
ENDSEC
0
SECTION
2
TABLES
0
TABLE
2
VPORT
5
8
100
AcDbSymbolTable
0
ENDTAB
0
TABLE
2
LTYPE
5
5
100
AcDbSymbolTable
0
LTYPE
5
14
100
AcDbSymbolTableRecord
100
AcDbLinetypeTableRecord
2
BYBLOCK
70
0
0
LTYPE
5
15
100
AcDbSymbolTableRecord
100
AcDbLinetypeTableRecord
2
BYLAYER
70
0
0
ENDTAB
0
TABLE
2
LAYER
5
2
100
AcDbSymbolTable
70
2
0
LAYER
5
50
100
AcDbSymbolTableRecord
100
AcDbLayerTableRecord
2
0
70
0
6
CONTINUOUS
0
ENDTAB
0
TABLE
2
STYLE
5
3
100
AcDbSymbolTable
70
1
0
STYLE
5
11
100
AcDbSymbolTableRecord
100
AcDbTextStyleTableRecord
2
STANDARD
70
0
0
ENDTAB
0
TABLE
2
VIEW
5
6
100
AcDbSymbolTable
70
0
0
ENDTAB
0
TABLE
2
UCS
5
7
100
AcDbSymbolTable
70
0
0
ENDTAB
0
TABLE
2
APPID
5
9
100
AcDbSymbolTable
70
2
0
APPID
5
12
100
AcDbSymbolTableRecord
100
AcDbRegAppTableRecord
2
ACAD
70
0
0
ENDTAB
0
TABLE
2
DIMSTYLE
5
A
100
AcDbSymbolTable
70
1
0
ENDTAB
0
TABLE
2
BLOCK_RECORD
5
1
100
AcDbSymbolTable
70
1
0
BLOCK_RECORD
5
1F
100
AcDbSymbolTableRecord
100
AcDbBlockTableRecord
2
*MODEL_SPACE
0
BLOCK_RECORD
5
1B
100
AcDbSymbolTableRecord
100
AcDbBlockTableRecord
2
*PAPER_SPACE
0
ENDTAB
0
ENDSEC
0
SECTION
2
BLOCKS
0
BLOCK
5
20
100
AcDbEntity
100
AcDbBlockBegin
2
*MODEL_SPACE
0
ENDBLK
5
21
100
AcDbEntity
100
AcDbBlockEnd
0
BLOCK
5
1C
100
AcDbEntity
100
AcDbBlockBegin
2
*PAPER_SPACE
0
ENDBLK
5
1D
100
AcDbEntity
100
AcDbBlockEnd
0
ENDSEC
0
SECTION
2
ENTITIES
0
LWPOLYLINE
5
100
100
AcDbEntity
8
0
100
AcDbPolyline
90
4
70
1
43
0.0
10
0
20
0
10
125
20
0
10
125
20
75
10
0
20
75
0
SPLINE
5
101
100
AcDbEntity
8
0
100
AcDbSpline
70
6
71
5
72
76
73
70
74
0
42
0.000000001
43
0.0000000001
44
0.0000000001
40
0
40
0
40
0
40
0
40
0
40
0
40
0.015384615384615385
40
0.030769230769230771
40
0.046153846153846156
40
0.061538461538461542
40
0.076923076923076927
40
0.092307692307692313
40
0.1076923076923077
40
0.12307692307692308
40
0.13846153846153847
40
0.15384615384615385
40
0.16923076923076924
40
0.18461538461538463
40
0.20000000000000001
40
0.2153846153846154
40
0.23076923076923078
40
0.24615384615384617
40
0.26153846153846155
40
0.27692307692307694
40
0.29230769230769232
40
0.30769230769230771
40
0.32307692307692309
40
0.33846153846153848
40
0.35384615384615387
40
0.36923076923076925
40
0.38461538461538464
40
0.40000000000000002
40
0.41538461538461541
40
0.43076923076923079
40
0.44615384615384618
40
0.46153846153846156
40
0.47692307692307695
40
0.49230769230769234
40
0.50769230769230766
40
0.52307692307692299
40
0.53846153846153832
40
0.55384615384615365
40
0.56923076923076898
40
0.58461538461538431
40
0.59999999999999964
40
0.61538461538461497
40
0.6307692307692303
40
0.64615384615384563
40
0.66153846153846096
40
0.67692307692307629
40
0.69230769230769162
40
0.70769230769230695
40
0.72307692307692228
40
0.73846153846153761
40
0.75384615384615294
40
0.76923076923076827
40
0.7846153846153836
40
0.79999999999999893
40
0.81538461538461426
40
0.83076923076922959
40
0.84615384615384492
40
0.86153846153846025
40
0.87692307692307558
40
0.89230769230769091
40
0.90769230769230624
40
0.92307692307692157
40
0.9384615384615369
40
0.95384615384615223
40
0.96923076923076756
40
0.98461538461538289
40
1
40
1
40
1
40
1
40
1
40
1
41
1
41
1
41
1
41
1
41
1
41
1
41
1
41
1
41
1
41
1
41
1
41
1
41
1
41
1
41
1
41
1
41
1
41
1
41
1
41
1
41
1
41
1
41
1
41
1
41
1
41
1
41
1
41
1
41
1
41
1
41
1
41
1
41
1
41
1
41
1
41
1
41
1
41
1
41
1
41
1
41
1
41
1
41
1
41
1
41
1
41
1
41
1
41
1
41
1
41
1
41
1
41
1
41
1
41
1
41
1
41
1
41
1
41
1
41
1
41
1
41
1
41
1
41
1
41
1
41
1
41
1
41
1
41
1
41
1
41
1
10
15.000000223517418
20
67.0000009983778
30
0
10
14.825773904218497
20
67.108418541579283
30
0
10
14.528518343903841
20
67.362723347487574
30
0
10
14.245430456889032
20
67.848889019807558
30
0
10
14.205227846890709
20
68.634396253853197
30
0
10
14.664967724347683
20
69.575575712122415
30
0
10
15.542382050926557
20
70.223458387801514
30
0
10
16.754112010569891
20
70.476181337331369
30
0
10
18.234744503209267
20
70.380421907720859
30
0
10
19.927777919739476
20
70.067760033516024
30
0
10
21.782436407576778
20
69.711859151589877
30
0
10
23.747859492318518
20
69.474707528154198
30
0
10
25.768885182723618
20
69.463079421272568
30
0
10
27.779967408993194
20
69.666605118430297
30
0
10
29.70551187317664
20
69.971489976158551
30
0
10
31.463472096321205
20
70.217844727854242
30
0
10
32.968290339018139
20
70.241857317867073
30
0
10
34.13334396479425
20
69.928004195724085
30
0
10
34.875362201037326
20
69.248231559725454
30
0
10
35.113721187547952
20
68.328303074327806
30
0
10
34.786919217365217
20
67.426155613481868
30
0
10
33.888265912671272
20
66.799577419277838
30
0
10
32.503018844748553
20
66.587834718934914
30
0
10
30.827734144748042
20
66.725130382357932
30
0
10
29.110204064998975
20
67.028189339661736
30
0
10
27.602734861618256
20
67.254771932140699
30
0
10
26.508369516404859
20
67.175538166923587
30
0
10
25.934337489581416
20
66.635543799423985
30
0
10
25.831011242147781
20
65.632540529618367
30
0
10
26.037452422268565
20
64.279054210775584
30
0
10
26.349075022216809
20
62.741020620695274
30
0
10
26.574879797175356
20
61.186828698311537
30
0
10
26.605253529940214
20
59.726929930153794
30
0
10
26.456619802553011
20
58.372821021694826
30
0
10
26.217699805169417
20
57.076551065268831
30
0
10
26.010220957109944
20
55.7586322716556
30
0
10
25.942460405552708
20
54.34133584628583
30
0
10
26.069580535500883
20
52.777503124533993
30
0
10
26.341225852215992
20
51.086996576573242
30
0
10
26.630289901118822
20
49.345941013477258
30
0
10
26.781137200491063
20
47.664895867647886
30
0
10
26.6504778985746
20
46.170934369066465
30
0
10
26.152793553226608
20
44.987945171848345
30
0
10
25.300442573695584
20
44.218112266072048
30
0
10
24.25528609385686
20
43.92173069089776
30
0
10
23.2517647065308
20
44.116336140118271
30
0
10
22.514535255643224
20
44.778541384400256
30
0
10
22.164552690642015
20
45.842985627861339
30
0
10
22.173171250507355
20
47.208358826291658
30
0
10
22.426184712536838
20
48.758285368048362
30
0
10
22.764920918557557
20
50.379102390075595
30
0
10
23.036647501858635
20
51.978996900180697
30
0
10
23.140415596886996
20
53.506289876809603
30
0
10
23.076480158728778
20
54.968956710029133
30
0
10
22.911931987230012
20
56.411194413543512
30
0
10
22.745077093597995
20
57.889309825997785
30
0
10
22.66979729581567
20
59.447450646533341
30
0
10
22.741118809371965
20
61.094376275897531
30
0
10
22.937396824407603
20
62.777408894853373
30
0
10
23.131924840490797
20
64.364156401376079
30
0
10
23.150285757325197
20
65.693675848709432
30
0
10
22.822453848855918
20
66.623939764591952
30
0
10
22.033067623466465
20
67.076542434868756
30
0
10
20.781548561817115
20
67.092525675691562
30
0
10
19.209430451411627
20
66.852127716370987
30
0
10
17.536350589154605
20
66.594390306343612
30
0
10
16.317737851230426
20
66.563279891372162
30
0
10
15.5738762596974
20
66.712218088278632
30
0
10
15.174226542816358
20
66.891583455176288
30
0
10
15.000000223517418
20
67.0000009983778
30
0
0
SPLINE
5
102
100
AcDbEntity
8
0
100
AcDbSpline
70
6
71
5
72
116
73
110
74
0
42
0.000000001
43
0.0000000001
44
0.0000000001
40
0
40
0
40
0
40
0
40
0
40
0
40
0.0095238095238095247
40
0.019047619047619049
40
0.028571428571428574
40
0.038095238095238099
40
0.047619047619047623
40
0.057142857142857148
40
0.06666666666666668
40
0.076190476190476197
40
0.085714285714285715
40
0.095238095238095233
40
0.10476190476190475
40
0.11428571428571427
40
0.12380952380952379
40
0.1333333333333333
40
0.14285714285714282
40
0.15238095238095234
40
0.16190476190476186
40
0.17142857142857137
40
0.18095238095238089
40
0.19047619047619041
40
0.19999999999999993
40
0.20952380952380945
40
0.21904761904761896
40
0.22857142857142848
40
0.238095238095238
40
0.24761904761904752
40
0.25714285714285706
40
0.26666666666666661
40
0.27619047619047615
40
0.2857142857142857
40
0.29523809523809524
40
0.30476190476190479
40
0.31428571428571433
40
0.32380952380952388
40
0.33333333333333343
40
0.34285714285714297
40
0.35238095238095252
40
0.36190476190476206
40
0.37142857142857161
40
0.38095238095238115
40
0.3904761904761907
40
0.40000000000000024
40
0.40952380952380979
40
0.41904761904761934
40
0.42857142857142888
40
0.43809523809523843
40
0.44761904761904797
40
0.45714285714285752
40
0.46666666666666706
40
0.47619047619047661
40
0.48571428571428615
40
0.4952380952380957
40
0.50476190476190519
40
0.51428571428571468
40
0.52380952380952417
40
0.53333333333333366
40
0.54285714285714315
40
0.55238095238095264
40
0.56190476190476213
40
0.57142857142857162
40
0.58095238095238111
40
0.5904761904761906
40
0.60000000000000009
40
0.60952380952380958
40
0.61904761904761907
40
0.62857142857142856
40
0.63809523809523805
40
0.64761904761904754
40
0.65714285714285703
40
0.66666666666666652
40
0.67619047619047601
40
0.6857142857142855
40
0.69523809523809499
40
0.70476190476190448
40
0.71428571428571397
40
0.72380952380952346
40
0.73333333333333295
40
0.74285714285714244
40
0.75238095238095193
40
0.76190476190476142
40
0.77142857142857091
40
0.7809523809523804
40
0.79047619047618989
40
0.79999999999999938
40
0.80952380952380887
40
0.81904761904761836
40
0.82857142857142785
40
0.83809523809523734
40
0.84761904761904683
40
0.85714285714285632
40
0.86666666666666581
40
0.8761904761904753
40
0.88571428571428479
40
0.89523809523809428
40
0.90476190476190377
40
0.91428571428571326
40
0.92380952380952275
40
0.93333333333333224
40
0.94285714285714173
40
0.95238095238095122
40
0.96190476190476071
40
0.9714285714285702
40
0.98095238095237969
40
0.99047619047618918
40
1
40
1
40
1
40
1
40
1
40
1
41
1
41
1
41
1
41
1
41
1
41
1
41
1
41
1
41
1
41
1
41
1
41
1
41
1
41
1
41
1
41
1
41
1
41
1
41
1
41
1
41
1
41
1
41
1
41
1
41
1
41
1
41
1
41
1
41
1
41
1
41
1
41
1
41
1
41
1
41
1
41
1
41
1
41
1
41
1
41
1
41
1
41
1
41
1
41
1
41
1
41
1
41
1
41
1
41
1
41
1
41
1
41
1
41
1
41
1
41
1
41
1
41
1
41
1
41
1
41
1
41
1
41
1
41
1
41
1
41
1
41
1
41
1
41
1
41
1
41
1
41
1
41
1
41
1
41
1
41
1
41
1
41
1
41
1
41
1
41
1
41
1
41
1
41
1
41
1
41
1
41
1
41
1
41
1
41
1
41
1
41
1
41
1
41
1
41
1
41
1
41
1
41
1
41
1
41
1
41
1
41
1
41
1
41
1
41
1
41
1
41
1
41
1
41
1
41
1
41
1
10
37.000000551342964
20
70.000001043081284
30
0
10
37.111159662560155
20
70.123869236686289
30
0
10
37.368257638846167
20
70.342973124802597
30
0
10
37.851935656079064
20
70.582144258368999
30
0
10
38.640161773130366
20
70.71471695178775
30
0
10
39.659137216447093
20
70.577236276612666
30
0
10
40.499463638816316
20
70.160036177870154
30
0
10
41.002800585417233
20
69.494042699831255
30
0
10
41.139012703124429
20
68.606618816350334
30
0
10
40.980025998361072
20
67.528072523726635
30
0
10
40.654824934738357
20
66.300964455522291
30
0
10
40.309296829838999
20
64.989668301918513
30
0
10
40.067949877424098
20
63.687090858966677
30
0
10
39.984969507667401
20
62.529615002445595
30
0
10
40.051620282627169
20
61.670734745710725
30
0
10
40.23392450833483
20
61.229825132752225
30
0
10
40.497407162558474
20
61.256088778470428
30
0
10
40.845283673385353
20
61.668523223058678
30
0
10
41.311358011410142
20
62.291844892749324
30
0
10
41.932211954711278
20
62.936398076822925
30
0
10
42.722339754445969
20
63.475375386997037
30
0
10
43.671877826319736
20
63.846864123130004
30
0
10
44.752164497258953
20
64.032135618097655
30
0
10
45.918473907344463
20
64.042164514809372
30
0
10
47.114037971725068
20
63.900934174575355
30
0
10
48.273219218879262
20
63.629519817818441
30
0
10
49.330677809347286
20
63.243695063592199
30
0
10
50.230555934011122
20
62.752779014423908
30
0
10
50.936136786090245
20
62.157835358263597
30
0
10
51.43824098855476
20
61.450541570803772
30
0
10
51.766971008965228
20
60.610724494307902
30
0
10
51.97994016938118
20
59.612670051935623
30
0
10
52.145400661197954
20
58.433272557089317
30
0
10
52.326659519417063
20
57.059805181450955
30
0
10
52.567005603627578
20
55.497295169050282
30
0
10
52.871889031866097
20
53.777418720652705
30
0
10
53.200201343408231
20
51.962534517167647
30
0
10
53.484010433685192
20
50.134611595603396
30
0
10
53.643249234318773
20
48.386820387574225
30
0
10
53.602541851783023
20
46.814032039829684
30
0
10
53.306759096246992
20
45.503900126931583
30
0
10
52.737963274031813
20
44.527424473993548
30
0
10
51.929814404853289
20
43.930350921145433
30
0
10
50.988302251808307
20
43.722556012426431
30
0
10
50.060170605297785
20
43.883423656436335
30
0
10
49.289835119831402
20
44.370224134362815
30
0
10
48.783699345474261
20
45.125329993211956
30
0
10
48.562890411465517
20
46.084174128348408
30
0
10
48.577636356229419
20
47.180977899679476
30
0
10
48.738783784879303
20
48.353756869068434
30
0
10
48.944781940623692
20
49.549907803639577
30
0
10
49.107835210317873
20
50.730782019437292
30
0
10
49.187205305805719
20
51.878641541305335
30
0
10
49.187468970679753
20
52.993468694947396
30
0
10
49.135366189135325
20
54.083753248965827
30
0
10
49.062624668272889
20
55.158910736837669
30
0
10
48.987551964433393
20
56.221471987822355
30
0
10
48.894218658138577
20
57.258313125369291
30
0
10
48.72152445222838
20
58.235491039433995
30
0
10
48.393423043326663
20
59.108230507818405
30
0
10
47.844635033782481
20
59.828992926998467
30
0
10
47.044840121179959
20
60.355622538761857
30
0
10
46.031660791955431
20
60.661117469270984
30
0
10
44.90122735088346
20
60.73478900456665
30
0
10
43.774217982716827
20
60.578236959909418
30
0
10
42.768119272141305
20
60.202873997433706
30
0
10
41.969822290890697
20
59.626927345661855
30
0
10
41.40069493593537
20
58.872385605912967
30
0
10
41.026040244280956
20
57.963574969263334
30
0
10
40.783122798013018
20
56.926533804533136
30
0
10
40.603969405604303
20
55.788103737166146
30
0
10
40.438546394627423
20
54.575189451618876
30
0
10
40.282449929335314
20
53.313817786149691
30
0
10
40.164785950958361
20
52.029322109539464
30
0
10
40.126484150296442
20
50.746768771883097
30
0
10
40.202477299802311
20
49.491297226624951
30
0
10
40.401014685271662
20
48.288504946656502
30
0
10
40.687099350731884
20
47.164793311385779
30
0
10
40.956549148375075
20
46.147778793877748
30
0
10
41.067946907452857
20
45.266488827072884
30
0
10
40.894674000641949
20
44.551730816431927
30
0
10
40.364435691954441
20
44.035988693368651
30
0
10
39.517703070048846
20
43.75450068744005
30
0
10
38.505636106781125
20
43.742017287818399
30
0
10
37.520067784480233
20
44.024338750802158
30
0
10
36.744565540273165
20
44.611806932060716
30
0
10
36.289629108126064
20
45.490680099963463
30
0
10
36.157616218133519
20
46.619537541534648
30
0
10
36.282055370275224
20
47.93922345488604
30
0
10
36.553449280406667
20
49.380287587876985
30
0
10
36.851041361243489
20
50.871541823229492
30
0
10
37.070480659361976
20
52.347826445912844
30
0
10
37.156960384488322
20
53.758864691668251
30
0
10
37.1245183372871
20
55.075348548746
30
0
10
37.02708518153198
20
56.285548695396102
30
0
10
36.937784687924356
20
57.393375251449747
30
0
10
36.923847024262791
20
58.416013933071085
30
0
10
37.026071910421201
20
59.381445277054254
30
0
10
37.229806569749691
20
60.326767302742972
30
0
10
37.462293387833896
20
61.293595448366048
30
0
10
37.63048129400407
20
62.319023062774306
30
0
10
37.65077074678247
20
63.427225245016132
30
0
10
37.479084468229821
20
64.621641503560028
30
0
10
37.14779373827686
20
65.874883680583281
30
0
10
36.777083703771154
20
67.126150559559889
30
0
10
36.52211636055398
20
68.297139767045238
30
0
10
36.530642738885049
20
69.102900337592004
30
0
10
36.701302971543058
20
69.599763963172464
30
0
10
36.888841440125766
20
69.876132849476249
30
0
10
37.000000551342964
20
70.000001043081284
30
0
0
SPLINE
5
103
100
AcDbEntity
8
0
100
AcDbSpline
70
6
71
5
72
126
73
120
74
0
42
0.000000001
43
0.0000000001
44
0.0000000001
40
0
40
0
40
0
40
0
40
0
40
0
40
0.0086956521739130436
40
0.017391304347826087
40
0.026086956521739132
40
0.034782608695652174
40
0.043478260869565216
40
0.052173913043478258
40
0.0608695652173913
40
0.069565217391304349
40
0.078260869565217397
40
0.086956521739130446
40
0.095652173913043495
40
0.10434782608695654
40
0.11304347826086959
40
0.12173913043478264
40
0.13043478260869568
40
0.13913043478260873
40
0.14782608695652177
40
0.15652173913043482
40
0.16521739130434787
40
0.17391304347826092
40
0.18260869565217397
40
0.19130434782608702
40
0.20000000000000007
40
0.20869565217391312
40
0.21739130434782616
40
0.22608695652173921
40
0.23478260869565226
40
0.24347826086956531
40
0.25217391304347836
40
0.26086956521739141
40
0.26956521739130446
40
0.27826086956521751
40
0.28695652173913055
40
0.2956521739130436
40
0.30434782608695665
40
0.3130434782608697
40
0.32173913043478275
40
0.3304347826086958
40
0.33913043478260885
40
0.3478260869565219
40
0.35652173913043494
40
0.36521739130434799
40
0.37391304347826104
40
0.38260869565217409
40
0.39130434782608714
40
0.40000000000000019
40
0.40869565217391324
40
0.41739130434782629
40
0.42608695652173934
40
0.43478260869565238
40
0.44347826086956543
40
0.45217391304347848
40
0.46086956521739153
40
0.46956521739130458
40
0.47826086956521763
40
0.48695652173913068
40
0.49565217391304373
40
0.50434782608695672
40
0.51304347826086971
40
0.52173913043478271
40
0.5304347826086957
40
0.53913043478260869
40
0.54782608695652169
40
0.55652173913043468
40
0.56521739130434767
40
0.57391304347826066
40
0.58260869565217366
40
0.59130434782608665
40
0.59999999999999964
40
0.60869565217391264
40
0.61739130434782563
40
0.62608695652173862
40
0.63478260869565162
40
0.64347826086956461
40
0.6521739130434776
40
0.6608695652173906
40
0.66956521739130359
40
0.67826086956521658
40
0.68695652173912958
40
0.69565217391304257
40
0.70434782608695556
40
0.71304347826086856
40
0.72173913043478155
40
0.73043478260869454
40
0.73913043478260754
40
0.74782608695652053
40
0.75652173913043352
40
0.76521739130434652
40
0.77391304347825951
40
0.7826086956521725
40
0.7913043478260855
40
0.79999999999999849
40
0.80869565217391148
40
0.81739130434782448
40
0.82608695652173747
40
0.83478260869565046
40
0.84347826086956346
40
0.85217391304347645
40
0.86086956521738944
40
0.86956521739130244
40
0.87826086956521543
40
0.88695652173912842
40
0.89565217391304142
40
0.90434782608695441
40
0.9130434782608674
40
0.9217391304347804
40
0.93043478260869339
40
0.93913043478260638
40
0.94782608695651938
40
0.95652173913043237
40
0.96521739130434536
40
0.97391304347825836
40
0.98260869565217135
40
0.99130434782608434
40
1
40
1
40
1
40
1
40
1
40
1
41
1
41
1
41
1
41
1
41
1
41
1
41
1
41
1
41
1
41
1
41
1
41
1
41
1
41
1
41
1
41
1
41
1
41
1
41
1
41
1
41
1
41
1
41
1
41
1
41
1
41
1
41
1
41
1
41
1
41
1
41
1
41
1
41
1
41
1
41
1
41
1
41
1
41
1
41
1
41
1
41
1
41
1
41
1
41
1
41
1
41
1
41
1
41
1
41
1
41
1
41
1
41
1
41
1
41
1
41
1
41
1
41
1
41
1
41
1
41
1
41
1
41
1
41
1
41
1
41
1
41
1
41
1
41
1
41
1
41
1
41
1
41
1
41
1
41
1
41
1
41
1
41
1
41
1
41
1
41
1
41
1
41
1
41
1
41
1
41
1
41
1
41
1
41
1
41
1
41
1
41
1
41
1
41
1
41
1
41
1
41
1
41
1
41
1
41
1
41
1
41
1
41
1
41
1
41
1
41
1
41
1
41
1
41
1
41
1
41
1
41
1
41
1
41
1
41
1
41
1
41
1
41
1
41
1
41
1
41
1
10
56.405843013590705
20
58.397884076880956
30
0
10
56.330995503906898
20
58.522635800740588
30
0
10
56.209016211030267
20
58.782950577225634
30
0
10
56.114725851855425
20
59.200388371750762
30
0
10
56.174853350585892
20
59.790116015426051
30
0
10
56.531286571334611
20
60.53672230941573
30
0
10
57.109283533385025
20
61.253759174781408
30
0
10
57.836778039994108
20
61.909690201357009
30
0
10
58.647018982537034
20
62.481037154983319
30
0
10
59.499438856598914
20
62.953238415917305
30
0
10
60.376614352645667
20
63.319522342727403
30
0
10
61.276096229443738
20
63.579362677732199
30
0
10
62.204138567478992
20
63.737085731412705
30
0
10
63.168361653367214
20
63.800406594301762
30
0
10
64.171512277939399
20
63.77902147143422
30
0
10
65.203186148688374
20
63.683119547372712
30
0
10
66.238207766120439
20
63.52214342694613
30
0
10
67.243380364361343
20
63.303856704976283
30
0
10
68.182124566173144
20
63.033334272252176
30
0
10
69.019971316995765
20
62.71198176175826
30
0
10
69.729689105931769
20
62.33654311264872
30
0
10
70.296572561040037
20
61.898105698325892
30
0
10
70.723667986732309
20
61.381114555500176
30
0
10
71.026345487117567
20
60.768363520735065
30
0
10
71.226740017361891
20
60.046128257223728
30
0
10
71.348449415866284
20
59.208989337116208
30
0
10
71.410652124338412
20
58.265391904399515
30
0
10
71.423886483971145
20
57.24109738416302
30
0
10
71.394002491378117
20
56.172220016043681
30
0
10
71.325116716407777
20
55.099551611286408
30
0
10
71.222813131442621
20
54.062535859553797
30
0
10
71.097557763632722
20
53.093058937396592
30
0
10
70.967282081211621
20
52.210092374430076
30
0
10
70.862140502978136
20
51.412063651374574
30
0
10
70.821814729368754
20
50.677061105847187
30
0
10
70.882972652192819
20
49.973646212375762
30
0
10
71.068573333636095
20
49.269326208181432
30
0
10
71.377655364882614
20
48.539382282343638
30
0
10
71.771957961490472
20
47.776955677919716
30
0
10
72.173401098309441
20
46.998053175445719
30
0
10
72.489087565305169
20
46.233244081403122
30
0
10
72.631313589809622
20
45.521901545404155
30
0
10
72.538890836719418
20
44.90551696064567
30
0
10
72.199493850060776
20
44.421227479826854
30
0
10
71.666979997546065
20
44.095788319923159
30
0
10
71.029033870515931
20
43.94524474407109
30
0
10
70.380343263049028
20
43.974020159618767
30
0
10
69.791382714289384
20
44.174329765697934
30
0
10
69.285735644853432
20
44.525139429907341
30
0
10
68.85808759768392
20
44.989327160082837
30
0
10
68.487173641905969
20
45.511003264459013
30
0
10
68.150671425143955
20
46.012859837400143
30
0
10
67.83921331249519
20
46.393324391442249
30
0
10
67.545891540288906
20
46.561655231494768
30
0
10
67.256982416365616
20
46.469341580216508
30
0
10
66.939768745215432
20
46.150207676498979
30
0
10
66.552975898174068
20
45.692316329207287
30
0
10
66.059901996301221
20
45.200895821529706
30
0
10
65.443139247259111
20
44.758471728395818
30
0
10
64.70973967573795
20
44.407039588992021
30
0
10
63.882454541914697
20
44.163069085155648
30
0
10
62.994511009037531
20
44.02417375746478
30
0
10
62.082879291172837
20
43.979281284343614
30
0
10
61.182375894226993
20
44.017003258565921
30
0
10
60.318905458917278
20
44.135571484935703
30
0
10
59.51062786064238
20
44.340196429213556
30
0
10
58.769806648980861
20
44.639415729871388
30
0
10
58.104451005991095
20
45.04168792630022
30
0
10
57.519957340852187
20
45.55213344476649
30
0
10
57.020955513296563
20
46.168602915652805
30
0
10
56.612333163549863
20
46.880194976216465
30
0
10
56.299000761959228
20
47.669488125449966
30
0
10
56.085951707024734
20
48.513884327390748
30
0
10
55.978218523512552
20
49.387299369317518
30
0
10
55.980837634014371
20
50.26172382402703
30
0
10
56.098904773115578
20
51.108783877775494
30
0
10
56.336553837764328
20
51.901829526111605
30
0
10
56.695816101744825
20
52.618037755461231
30
0
10
57.175457695442439
20
53.240649280745572
30
0
10
57.769967455908919
20
53.760840321836028
30
0
10
58.468127256705159
20
54.180520416281375
30
0
10
59.253108921205651
20
54.511783466919042
30
0
10
60.104269963369163
20
54.772592727961602
30
0
10
60.99848400546135
20
54.983567905279386
30
0
10
61.911691813711052
20
55.164096561780795
30
0
10
62.820281725035947
20
55.329264092832119
30
0
10
63.702733072117965
20
55.48510107243019
30
0
10
64.540248764612073
20
55.630767542253565
30
0
10
65.316766740757828
20
55.76479680551116
30
0
10
66.019187984230655
20
55.890361370642083
30
0
10
66.637455222562664
20
56.020391491675596
30
0
10
67.164844213436851
20
56.18408198493006
30
0
10
67.597696071303503
20
56.428671220124869
30
0
10
67.932183971391552
20
56.796950050417252
30
0
10
68.161969260032649
20
57.310805186652125
30
0
10
68.274458244803469
20
57.946635307251313
30
0
10
68.252817663936341
20
58.642578688188884
30
0
10
68.081187873001241
20
59.32338584526957
30
0
10
67.748696932775971
20
59.918396741863909
30
0
10
67.254462374658743
20
60.385708175439319
30
0
10
66.610578760083641
20
60.72289505076516
30
0
10
65.840730813367045
20
60.949084042814889
30
0
10
64.979792212943636
20
61.092320828137552
30
0
10
64.072766263557483
20
61.175494202860065
30
0
10
63.174653889869894
20
61.201346230892348
30
0
10
62.348062584850808
20
61.142376342531833
30
0
10
61.649582281289796
20
60.960066416470077
30
0
10
61.11665644329608
20
60.621295445985616
30
0
10
60.755954132382101
20
60.114338049177704
30
0
10
60.527070493895103
20
59.468611101738311
30
0
10
60.341088626530912
20
58.761375986052677
30
0
10
60.095150328590954
20
58.091794891360593
30
0
10
59.701700583746096
20
57.560442173521295
30
0
10
59.116439462281384
20
57.248461206844112
30
0
10
58.375428575350263
20
57.192313984926095
30
0
10
57.579613530599715
20
57.386220810609849
30
0
10
57.001833166421427
20
57.714304398120035
30
0
10
56.658101269132985
20
58.034440234067674
30
0
10
56.480690523274511
20
58.273132353021268
30
0
10
56.405843013590705
20
58.397884076880956
30
0
0
SPLINE
5
104
100
AcDbEntity
8
0
100
AcDbSpline
70
6
71
5
72
46
73
40
74
0
42
0.000000001
43
0.0000000001
44
0.0000000001
40
0
40
0
40
0
40
0
40
0
40
0
40
0.028571428571428571
40
0.057142857142857141
40
0.085714285714285715
40
0.11428571428571428
40
0.14285714285714285
40
0.17142857142857143
40
0.20000000000000001
40
0.22857142857142859
40
0.25714285714285717
40
0.28571428571428575
40
0.31428571428571433
40
0.34285714285714292
40
0.3714285714285715
40
0.40000000000000008
40
0.42857142857142866
40
0.45714285714285724
40
0.48571428571428582
40
0.51428571428571435
40
0.54285714285714293
40
0.57142857142857151
40
0.60000000000000009
40
0.62857142857142867
40
0.65714285714285725
40
0.68571428571428583
40
0.71428571428571441
40
0.74285714285714299
40
0.77142857142857157
40
0.80000000000000016
40
0.82857142857142874
40
0.85714285714285732
40
0.8857142857142859
40
0.91428571428571448
40
0.94285714285714306
40
0.97142857142857164
40
1
40
1
40
1
40
1
40
1
40
1
41
1
41
1
41
1
41
1
41
1
41
1
41
1
41
1
41
1
41
1
41
1
41
1
41
1
41
1
41
1
41
1
41
1
41
1
41
1
41
1
41
1
41
1
41
1
41
1
41
1
41
1
41
1
41
1
41
1
41
1
41
1
41
1
41
1
41
1
41
1
41
1
41
1
41
1
41
1
41
1
10
68.000001013278961
20
54.000000804662704
30
0
10
67.920206826245405
20
54.058125964027909
30
0
10
67.741109977443159
20
54.141552206837332
30
0
10
67.413817631862969
20
54.1673278939532
30
0
10
66.865074259659082
20
54.01737613248136
30
0
10
66.024551417170073
20
53.617597718965158
30
0
10
65.075797793318245
20
53.129194782674432
30
0
10
64.072107107282946
20
52.673228309494455
30
0
10
63.067478731182433
20
52.340381104984239
30
0
10
62.109176407346126
20
52.153954723313767
30
0
10
61.234438192476205
20
52.063837459639245
30
0
10
60.472806296221357
20
51.98224640785395
30
0
10
59.847056364905711
20
51.809565594422189
30
0
10
59.374569554163116
20
51.462722692242878
30
0
10
59.068639339109339
20
50.905754920672877
30
0
10
58.939242297549811
20
50.169859931060103
30
0
10
58.991382962397232
20
49.327310143151983
30
0
10
59.223663054956532
20
48.471908867191374
30
0
10
59.626932207545607
20
47.698261642524145
30
0
10
60.182306312911862
20
47.078702523095075
30
0
10
60.861214590707505
20
46.651067382851785
30
0
10
61.629112564060605
20
46.426914233264796
30
0
10
62.448361728172088
20
46.394836885495749
30
0
10
63.281334871712183
20
46.525871358477453
30
0
10
64.093594087054711
20
46.777217487177978
30
0
10
64.856427474586951
20
47.098725062344911
30
0
10
65.547768619080799
20
47.443648497108541
30
0
10
66.153670444950507
20
47.779247752543014
30
0
10
66.669242922827607
20
48.095987843097284
30
0
10
67.100749188648393
20
48.421073029883715
30
0
10
67.464414759976336
20
48.818423687742168
30
0
10
67.777062127379082
20
49.354795425682518
30
0
10
68.048743003733236
20
50.073903977106582
30
0
10
68.273752940085586
20
50.964471362810329
30
0
10
68.424608827046768
20
51.938725223295343
30
0
10
68.462985469777806
20
52.869730434039617
30
0
10
68.371591172599338
20
53.471608880234058
30
0
10
68.219875099644511
20
53.792801250646079
30
0
10
68.079795200312546
20
53.941875645297515
30
0
10
68.000001013278961
20
54.000000804662704
30
0
0
SPLINE
5
105
100
AcDbEntity
8
0
100
AcDbSpline
70
6
71
5
72
106
73
100
74
0
42
0.000000001
43
0.0000000001
44
0.0000000001
40
0
40
0
40
0
40
0
40
0
40
0
40
0.010526315789473684
40
0.021052631578947368
40
0.031578947368421054
40
0.042105263157894736
40
0.052631578947368418
40
0.063157894736842107
40
0.073684210526315796
40
0.084210526315789486
40
0.094736842105263175
40
0.10526315789473686
40
0.11578947368421055
40
0.12631578947368424
40
0.13684210526315793
40
0.14736842105263162
40
0.15789473684210531
40
0.168421052631579
40
0.17894736842105269
40
0.18947368421052638
40
0.20000000000000007
40
0.21052631578947376
40
0.22105263157894744
40
0.23157894736842113
40
0.24210526315789482
40
0.25263157894736848
40
0.26315789473684215
40
0.27368421052631581
40
0.28421052631578947
40
0.29473684210526313
40
0.30526315789473679
40
0.31578947368421045
40
0.32631578947368411
40
0.33684210526315778
40
0.34736842105263144
40
0.3578947368421051
40
0.36842105263157876
40
0.37894736842105242
40
0.38947368421052608
40
0.39999999999999974
40
0.41052631578947341
40
0.42105263157894707
40
0.43157894736842073
40
0.44210526315789439
40
0.45263157894736805
40
0.46315789473684171
40
0.47368421052631537
40
0.48421052631578904
40
0.4947368421052627
40
0.50526315789473641
40
0.51578947368421013
40
0.52631578947368385
40
0.53684210526315757
40
0.54736842105263128
40
0.557894736842105
40
0.56842105263157872
40
0.57894736842105243
40
0.58947368421052615
40
0.59999999999999987
40
0.61052631578947358
40
0.6210526315789473
40
0.63157894736842102
40
0.64210526315789473
40
0.65263157894736845
40
0.66315789473684217
40
0.67368421052631589
40
0.6842105263157896
40
0.69473684210526332
40
0.70526315789473704
40
0.71578947368421075
40
0.72631578947368447
40
0.73684210526315819
40
0.7473684210526319
40
0.75789473684210562
40
0.76842105263157934
40
0.77894736842105305
40
0.78947368421052677
40
0.80000000000000049
40
0.81052631578947421
40
0.82105263157894792
40
0.83157894736842164
40
0.84210526315789536
40
0.85263157894736907
40
0.86315789473684279
40
0.87368421052631651
40
0.88421052631579022
40
0.89473684210526394
40
0.90526315789473766
40
0.91578947368421137
40
0.92631578947368509
40
0.93684210526315881
40
0.94736842105263253
40
0.95789473684210624
40
0.96842105263157996
40
0.97894736842105368
40
0.98947368421052739
40
1
40
1
40
1
40
1
40
1
40
1
41
1
41
1
41
1
41
1
41
1
41
1
41
1
41
1
41
1
41
1
41
1
41
1
41
1
41
1
41
1
41
1
41
1
41
1
41
1
41
1
41
1
41
1
41
1
41
1
41
1
41
1
41
1
41
1
41
1
41
1
41
1
41
1
41
1
41
1
41
1
41
1
41
1
41
1
41
1
41
1
41
1
41
1
41
1
41
1
41
1
41
1
41
1
41
1
41
1
41
1
41
1
41
1
41
1
41
1
41
1
41
1
41
1
41
1
41
1
41
1
41
1
41
1
41
1
41
1
41
1
41
1
41
1
41
1
41
1
41
1
41
1
41
1
41
1
41
1
41
1
41
1
41
1
41
1
41
1
41
1
41
1
41
1
41
1
41
1
41
1
41
1
41
1
41
1
41
1
41
1
41
1
41
1
41
1
41
1
41
1
41
1
41
1
41
1
41
1
41
1
10
76.000001132488251
20
63.000000938773155
30
0
10
75.84228433220909
20
62.898664432138325
30
0
10
75.552877573781899
20
62.668655160071225
30
0
10
75.211766364512755
20
62.241726214667821
30
0
10
74.974153737019719
20
61.512183397819285
30
0
10
75.009894849894479
20
60.355299281892911
30
0
10
75.277169753799015
20
58.986743558096066
30
0
10
75.637292667487529
20
57.448543682878359
30
0
10
75.95036312069405
20
55.789123153233561
30
0
10
76.107386121359667
20
54.061032197925712
30
0
10
76.072576724929689
20
52.318495909452274
30
0
10
75.885969695947153
20
50.615687493029419
30
0
10
75.633528982620589
20
49.005594651143227
30
0
10
75.426401117906764
20
47.53871914936763
30
0
10
75.376763926995963
20
46.261836937553859
30
0
10
75.574387222892454
20
45.216743705756514
30
0
10
76.064628569130477
20
44.438969580289807
30
0
10
76.821572827547683
20
43.956581656257626
30
0
10
77.73618273973014
20
43.788698664369562
30
0
10
78.660681120314393
20
43.942969129794285
30
0
10
79.444317569376466
20
44.4131766472794
30
0
10
79.972108154135015
20
45.176841903812821
30
0
10
80.203388619093488
20
46.19265770731819
30
0
10
80.156934862935827
20
47.40612239250396
30
0
10
79.89438558675927
20
48.755432534821026
30
0
10
79.504520840176397
20
50.177168042554072
30
0
10
79.086797454237114
20
51.612299434027172
30
0
10
78.736163674259444
20
53.011503636245962
30
0
10
78.524893955685471
20
54.342207577259252
30
0
10
78.500137661989328
20
55.586390845490754
30
0
10
78.687304855027449
20
56.73485792706397
30
0
10
79.091578082542512
20
57.782795869477553
30
0
10
79.700085100439125
20
58.724521705513297
30
0
10
80.484016148206564
20
59.549227068042399
30
0
10
81.400138663141718
20
60.234652460935706
30
0
10
82.395580585894876
20
60.749796831233368
30
0
10
83.414269106765914
20
61.062251243545127
30
0
10
84.403088013133441
20
61.144346370982497
30
0
10
85.31762330200533
20
60.979242901721342
30
0
10
86.129363783441789
20
60.568380400429149
30
0
10
86.828062049199048
20
59.933944866905257
30
0
10
87.414191008077665
20
59.110875865258549
30
0
10
87.893212062279076
20
58.140904699671722
30
0
10
88.269711671356049
20
57.066173712343641
30
0
10
88.540192793795441
20
55.922114243790269
30
0
10
88.691100830035637
20
54.73370221862158
30
0
10
88.708437489744881
20
53.519307497148141
30
0
10
88.584861826983641
20
52.292937149426635
30
0
10
88.327993327489793
20
51.067137785081229
30
0
10
87.967765459623962
20
49.855566971000663
30
0
10
87.565264934620501
20
48.675820365708532
30
0
10
87.217853482769044
20
47.551823784713257
30
0
10
87.03288723994055
20
46.513077733141401
30
0
10
87.104590534189001
20
45.594142094372707
30
0
10
87.489043865343405
20
44.834111630158006
30
0
10
88.181506869869267
20
44.275917012292652
30
0
10
89.088494164222624
20
43.966202989662847
30
0
10
90.061574910331942
20
43.947226380055476
30
0
10
90.939889812247912
20
44.247219355697496
30
0
10
91.585956693465604
20
44.872493755930456
30
0
10
91.932929380722584
20
45.795908342097718
30
0
10
91.991691627362059
20
46.958714116870084
30
0
10
91.822789777879606
20
48.2842874889661
30
0
10
91.518455403434103
20
49.688361099651182
30
0
10
91.179984638439336
20
51.091044628593245
30
0
10
90.898359785444583
20
52.427241060642579
30
0
10
90.730474535516805
20
53.659787967089805
30
0
10
90.687059495524522
20
54.784796878724649
30
0
10
90.746989090939707
20
55.819017940992268
30
0
10
90.866218028901898
20
56.790968317526371
30
0
10
90.989087534536111
20
57.730203099584642
30
0
10
91.058021171360735
20
58.658240920239706
30
0
10
91.025409301443517
20
59.576580508768096
30
0
10
90.855891733844189
20
60.468636143984398
30
0
10
90.524973594805601
20
61.307110007312097
30
0
10
90.018833005445771
20
62.05956732474732
30
0
10
89.333635203550983
20
62.694825239631705
30
0
10
88.475092958479195
20
63.188793971251762
30
0
10
87.460158487719738
20
63.524519491925602
30
0
10
86.318373792908261
20
63.692451863684127
30
0
10
85.093959152883741
20
63.690522953572412
30
0
10
83.846224379483246
20
63.524572869410001
30
0
10
82.654147489041918
20
63.207984191839515
30
0
10
81.603345072873609
20
62.764496534481431
30
0
10
80.764584566835524
20
62.232001665005157
30
0
10
80.17169063573931
20
61.667500701321174
30
0
10
79.806703177655606
20
61.148386362322505
30
0
10
79.564655068820358
20
60.783164358080619
30
0
10
79.293621637184671
20
60.688347013497285
30
0
10
78.96970138334261
20
60.908884123155566
30
0
10
78.786913938838495
20
61.369314930715191
30
0
10
78.884946232320829
20
61.946083866198556
30
0
10
79.092419786211281
20
62.531640174455774
30
0
10
79.105048907924797
20
63.037221988002194
30
0
10
78.689849711053256
20
63.390877958721639
30
0
10
77.879849708474794
20
63.537351211395872
30
0
10
77.074531163766977
20
63.457576815991168
30
0
10
76.499178375456779
20
63.276674199880162
30
0
10
76.157717932767369
20
63.101337445407957
30
0
10
76.000001132488251
20
63.000000938773155
30
0
0
SPLINE
5
106
100
AcDbEntity
8
0
100
AcDbSpline
70
6
71
5
72
181
73
175
74
0
42
0.000000001
43
0.0000000001
44
0.0000000001
40
0
40
0
40
0
40
0
40
0
40
0
40
0.0058823529411764705
40
0.011764705882352941
40
0.017647058823529412
40
0.023529411764705882
40
0.029411764705882353
40
0.035294117647058823
40
0.041176470588235294
40
0.047058823529411764
40
0.052941176470588235
40
0.058823529411764705
40
0.064705882352941169
40
0.070588235294117646
40
0.076470588235294124
40
0.082352941176470601
40
0.088235294117647078
40
0.094117647058823556
40
0.10000000000000003
40
0.10588235294117651
40
0.11176470588235299
40
0.11764705882352947
40
0.12352941176470594
40
0.12941176470588242
40
0.1352941176470589
40
0.14117647058823538
40
0.14705882352941185
40
0.15294117647058833
40
0.15882352941176481
40
0.16470588235294129
40
0.17058823529411776
40
0.17647058823529424
40
0.18235294117647072
40
0.18823529411764719
40
0.19411764705882367
40
0.20000000000000015
40
0.20588235294117663
40
0.2117647058823531
40
0.21764705882352958
40
0.22352941176470606
40
0.22941176470588254
40
0.23529411764705901
40
0.24117647058823549
40
0.24705882352941197
40
0.25294117647058845
40
0.2588235294117649
40
0.26470588235294135
40
0.2705882352941178
40
0.27647058823529425
40
0.2823529411764707
40
0.28823529411764715
40
0.29411764705882359
40
0.30000000000000004
40
0.30588235294117649
40
0.31176470588235294
40
0.31764705882352939
40
0.32352941176470584
40
0.32941176470588229
40
0.33529411764705874
40
0.34117647058823519
40
0.34705882352941164
40
0.35294117647058809
40
0.35882352941176454
40
0.36470588235294099
40
0.37058823529411744
40
0.37647058823529389
40
0.38235294117647034
40
0.38823529411764679
40
0.39411764705882324
40
0.39999999999999969
40
0.40588235294117614
40
0.41176470588235259
40
0.41764705882352904
40
0.42352941176470549
40
0.42941176470588194
40
0.43529411764705839
40
0.44117647058823484
40
0.44705882352941129
40
0.45294117647058774
40
0.45882352941176419
40
0.46470588235294064
40
0.47058823529411709
40
0.47647058823529354
40
0.48235294117646998
40
0.48823529411764643
40
0.49411764705882288
40
0.49999999999999933
40
0.50588235294117578
40
0.51176470588235223
40
0.51764705882352868
40
0.52352941176470513
40
0.52941176470588158
40
0.53529411764705803
40
0.54117647058823448
40
0.54705882352941093
40
0.55294117647058738
40
0.55882352941176383
40
0.56470588235294028
40
0.57058823529411673
40
0.57647058823529318
40
0.58235294117646963
40
0.58823529411764608
40
0.59411764705882253
40
0.59999999999999898
40
0.60588235294117543
40
0.61176470588235188
40
0.61764705882352833
40
0.62352941176470478
40
0.62941176470588123
40
0.63529411764705768
40
0.64117647058823413
40
0.64705882352941058
40
0.65294117647058703
40
0.65882352941176348
40
0.66470588235293993
40
0.67058823529411637
40
0.67647058823529282
40
0.68235294117646927
40
0.68823529411764572
40
0.69411764705882217
40
0.69999999999999862
40
0.70588235294117507
40
0.71176470588235152
40
0.71764705882352797
40
0.72352941176470442
40
0.72941176470588087
40
0.73529411764705732
40
0.74117647058823377
40
0.74705882352941022
40
0.75294117647058667
40
0.75882352941176312
40
0.76470588235293957
40
0.77058823529411602
40
0.77647058823529247
40
0.78235294117646892
40
0.78823529411764537
40
0.79411764705882182
40
0.79999999999999827
40
0.80588235294117472
40
0.81176470588235117
40
0.81764705882352762
40
0.82352941176470407
40
0.82941176470588052
40
0.83529411764705697
40
0.84117647058823342
40
0.84705882352940987
40
0.85294117647058632
40
0.85882352941176276
40
0.86470588235293921
40
0.87058823529411566
40
0.87647058823529211
40
0.88235294117646856
40
0.88823529411764501
40
0.89411764705882146
40
0.89999999999999791
40
0.90588235294117436
40
0.91176470588235081
40
0.91764705882352726
40
0.92352941176470371
40
0.92941176470588016
40
0.93529411764705661
40
0.94117647058823306
40
0.94705882352940951
40
0.95294117647058596
40
0.95882352941176241
40
0.96470588235293886
40
0.97058823529411531
40
0.97647058823529176
40
0.98235294117646821
40
0.98823529411764466
40
0.99411764705882111
40
1
40
1
40
1
40
1
40
1
40
1
41
1
41
1
41
1
41
1
41
1
41
1
41
1
41
1
41
1
41
1
41
1
41
1
41
1
41
1
41
1
41
1
41
1
41
1
41
1
41
1
41
1
41
1
41
1
41
1
41
1
41
1
41
1
41
1
41
1
41
1
41
1
41
1
41
1
41
1
41
1
41
1
41
1
41
1
41
1
41
1
41
1
41
1
41
1
41
1
41
1
41
1
41
1
41
1
41
1
41
1
41
1
41
1
41
1
41
1
41
1
41
1
41
1
41
1
41
1
41
1
41
1
41
1
41
1
41
1
41
1
41
1
41
1
41
1
41
1
41
1
41
1
41
1
41
1
41
1
41
1
41
1
41
1
41
1
41
1
41
1
41
1
41
1
41
1
41
1
41
1
41
1
41
1
41
1
41
1
41
1
41
1
41
1
41
1
41
1
41
1
41
1
41
1
41
1
41
1
41
1
41
1
41
1
41
1
41
1
41
1
41
1
41
1
41
1
41
1
41
1
41
1
41
1
41
1
41
1
41
1
41
1
41
1
41
1
41
1
41
1
41
1
41
1
41
1
41
1
41
1
41
1
41
1
41
1
41
1
41
1
41
1
41
1
41
1
41
1
41
1
41
1
41
1
41
1
41
1
41
1
41
1
41
1
41
1
41
1
41
1
41
1
41
1
41
1
41
1
41
1
41
1
41
1
41
1
41
1
41
1
41
1
41
1
41
1
41
1
41
1
41
1
41
1
41
1
41
1
41
1
41
1
41
1
41
1
41
1
41
1
41
1
41
1
41
1
41
1
41
1
10
95.500001423060894
20
69.500001035630703
30
0
10
95.575912791030674
20
69.573863439831669
30
0
10
95.746812445312031
20
69.710118230517452
30
0
10
96.058134879980841
20
69.878007826055992
30
0
10
96.563760716084715
20
70.020402287569738
30
0
10
97.265581044952569
20
70.043502029274137
30
0
10
97.942788792803867
20
69.897371701371043
30
0
10
98.507226431011958
20
69.575273851053225
30
0
10
98.895801333893928
20
69.080722685247451
30
0
10
99.091239231883023
20
68.430548127521234
30
0
10
99.112672830598356
20
67.651539776864382
30
0
10
99.003880653350151
20
66.776587293567886
30
0
10
98.822417348946743
20
65.841019393853827
30
0
10
98.628287899923805
20
64.878825522212239
30
0
10
98.473013581085638
20
63.919007515801042
30
0
10
98.388066102157637
20
62.981685110760885
30
0
10
98.374893332641093
20
62.074848399925138
30
0
10
98.414770966919122
20
61.199283640749798
30
0
10
98.477334742644103
20
60.352940095644797
30
0
10
98.529662667179821
20
59.535558397874205
30
0
10
98.545001789071961
20
58.753073276509433
30
0
10
98.511928310445597
20
58.022380335516829
30
0
10
98.442666278988185
20
57.375323812100298
30
0
10
98.383501666216247
20
56.864643072982723
30
0
10
98.39304809359426
20
56.542243586270644
30
0
10
98.520840452959703
20
56.438781050944044
30
0
10
98.781205889016093
20
56.53675327785642
30
0
10
99.143620900532909
20
56.765200539561064
30
0
10
99.560911436139619
20
57.042775635344931
30
0
10
99.991524683242972
20
57.314231751237628
30
0
10
100.41981567768912
20
57.581367346872419
30
0
10
100.84564094882535
20
57.877502390945786
30
0
10
101.27759187550777
20
58.248129413929625
30
0
10
101.72547896035371
20
58.73100656104252
30
0
10
102.19149098689161
20
59.331992910617103
30
0
10
102.66848749370169
20
60.020641868299613
30
0
10
103.14558200048799
20
60.745592186259401
30
0
10
103.61171448293989
20
61.444513582886472
30
0
10
104.06003937886942
20
62.05625983991564
30
0
10
104.4919828987001
20
62.532118518055114
30
0
10
104.92140096023149
20
62.847349983744742
30
0
10
105.37883788957484
20
63.01289897027619
30
0
10
105.89830600661611
20
63.062746560168115
30
0
10
106.50294897771822
20
63.040351167830828
30
0
10
107.1926468744404
20
62.986283488997465
30
0
10
107.92720502778357
20
62.92335483765774
30
0
10
108.62289430923668
20
62.849238179061459
30
0
10
109.18155068122135
20
62.747734649209718
30
0
10
109.5149103261559
20
62.596853862061444
30
0
10
109.56778709937674
20
62.377381127852793
30
0
10
109.34929350618731
20
62.083152736647662
30
0
10
108.92570044865521
20
61.72177820788928
30
0
10
108.38664803843726
20
61.3087390468501
30
0
10
107.82118425867502
20
60.863668782140188
30
0
10
107.2855945912152
20
60.405317830996282
30
0
10
106.78828247448325
20
59.948430898409704
30
0
10
106.31035084510485
20
59.504032479888906
30
0
10
105.81878124618416
20
59.079087957855648
30
0
10
105.28334203532765
20
58.676358038014875
30
0
10
104.69007382184543
20
58.294289967765309
30
0
10
104.06078583521318
20
57.926593941875609
30
0
10
103.45130363530536
20
57.563177763129836
30
0
10
102.93181872464152
20
57.19225711542687
30
0
10
102.57174034845178
20
56.802186477102296
30
0
10
102.42382240390178
20
56.383289970226265
30
0
10
102.5059199624597
20
55.929966678096548
30
0
10
102.79239475377867
20
55.441794565475007
30
0
10
103.23122261232584
20
54.922006039840454
30
0
10
103.75622398982075
20
54.376464281013654
30
0
10
104.30109169328544
20
53.812448464212757
30
0
10
104.81296722040027
20
53.237504648203583
30
0
10
105.26531472672443
20
52.658314615404862
30
0
10
105.65191843485955
20
52.080504013855837
30
0
10
105.98189799660037
20
51.508406542882582
30
0
10
106.27429803557186
20
50.944827444414528
30
0
10
106.55295740136894
20
50.390846362994033
30
0
10
106.84103062347192
20
49.845508558135172
30
0
10
107.15634900794164
20
49.305852178858778
30
0
10
107.51020251843798
20
48.768491165924779
30
0
10
107.90574899035929
20
48.230931367511225
30
0
10
108.33634924705865
20
47.693089333998998
30
0
10
108.78443087301582
20
47.15849856676472
30
0
10
109.21886460869003
20
46.636221611321957
30
0
10
109.59912871311278
20
46.139673511921977
30
0
10
109.88312741329268
20
45.683812323701211
30
0
10
110.03407183869611
20
45.28271964737641
30
0
10
110.02732440319626
20
44.94727301630099
30
0
10
109.85836326192705
20
44.682123718861604
30
0
10
109.54201427420422
20
44.487819030768293
30
0
10
109.10935451746901
20
44.364206582938372
30
0
10
108.6055328594328
20
44.313509968463684
30
0
10
108.08067108019186
20
44.339522920570225
30
0
10
107.58030902824135
20
44.446598076897786
30
0
10
107.13675047752557
20
44.638697076873257
30
0
10
106.75813704314578
20
44.918466979668061
30
0
10
106.43329200563574
20
45.285744636761365
30
0
10
106.14062146471824
20
45.735705397075328
30
0
10
105.8551140534238
20
46.257508587417099
30
0
10
105.55735802031072
20
46.831839411373444
30
0
10
105.23683648842865
20
47.432490471165394
30
0
10
104.89004254124318
20
48.0318908125193
30
0
10
104.51997531645696
20
48.60546383028116
30
0
10
104.13512135875484
20
49.13666303272899
30
0
10
103.74854675329092
20
49.621256263301674
30
0
10
103.3772364459554
20
50.07316136748323
30
0
10
103.03824574378312
20
50.516673658987237
30
0
10
102.7443695944072
20
50.976696154822314
30
0
10
102.49992841686064
20
51.46957864873653
30
0
10
102.29662664452768
20
51.9939121373584
30
0
10
102.10902368694249
20
52.520742346963658
30
0
10
101.90384894893253
20
53.005140551962313
30
0
10
101.65059309665166
20
53.399388672537881
30
0
10
101.33031782419424
20
53.664259549617228
30
0
10
100.94839887133719
20
53.784276169917582
30
0
10
100.53214180744311
20
53.767820934499184
30
0
10
100.11684799423026
20
53.635584041284332
30
0
10
99.734611262084783
20
53.411963077248288
30
0
10
99.403607721374414
20
53.11634470907503
30
0
10
99.131686869264968
20
52.764198644214481
30
0
10
98.918330623946218
20
52.367025636986149
30
0
10
98.757241831514534
20
51.932676944389762
30
0
10
98.638694299160917
20
51.465777682099386
30
0
10
98.552156293293393
20
50.968817885956639
30
0
10
98.488726572547719
20
50.443084190953897
30
0
10
98.443871045418959
20
49.88964785460351
30
0
10
98.419389254805083
20
49.310351310028615
30
0
10
98.419349470050648
20
48.708977591736996
30
0
10
98.446560164134979
20
48.092422233291302
30
0
10
98.498884077580669
20
47.471818008823533
30
0
10
98.565507020557007
20
46.863789246338435
30
0
10
98.623534302984325
20
46.29136433497635
30
0
10
98.643713581200757
20
45.778865424345334
30
0
10
98.595911385835166
20
45.346463961627855
30
0
10
98.45452106515539
20
45.005947076179069
30
0
10
98.204301038606189
20
44.753322819568517
30
0
10
97.844000723241905
20
44.574574296602435
30
0
10
97.38781454700603
20
44.458665831444179
30
0
10
96.868658831849217
20
44.410509852473865
30
0
10
96.33718975661381
20
44.457540398410188
30
0
10
95.849227185652012
20
44.634571022907217
30
0
10
95.455338317292302
20
44.97278119813955
30
0
10
95.189372001172913
20
45.486837708900858
30
0
10
95.057980591464869
20
46.163434866772441
30
0
10
95.047213644434137
20
46.969310206940605
30
0
10
95.128634005631113
20
47.858779205461076
30
0
10
95.265527335113774
20
48.781321584296535
30
0
10
95.419247144035296
20
49.689412543675253
30
0
10
95.555087806719285
20
50.545624825572247
30
0
10
95.649365869497984
20
51.331565239518959
30
0
10
95.692516871514144
20
52.050781441842801
30
0
10
95.685253130623352
20
52.721136633401777
30
0
10
95.636308235849029
20
53.36963681532616
30
0
10
95.559509215053737
20
54.026124026414386
30
0
10
95.471222108871473
20
54.717802902460605
30
0
10
95.387433205041873
20
55.462568185703802
30
0
10
95.321665061102294
20
56.265632180526978
30
0
10
95.284560755842179
20
57.1230661599336
30
0
10
95.283129185805421
20
58.0239213051984
30
0
10
95.320123023066145
20
58.952915202116706
30
0
10
95.393362377953395
20
59.892872998787226
30
0
10
95.495072893395658
20
60.827279342183161
30
0
10
95.611234707756765
20
61.742768701586222
30
0
10
95.720874763130084
20
62.631681108247939
30
0
10
95.800520629007963
20
63.49059998104272
30
0
10
95.828705627147116
20
64.318848494831855
30
0
10
95.790473531420616
20
65.116999636843488
30
0
10
95.681843201610235
20
65.885385701465495
30
0
10
95.514389010951049
20
66.622596930802757
30
0
10
95.319547442481749
20
67.324010878081367
30
0
10
95.153667194960164
20
67.980235884125989
30
0
10
95.083163380449761
20
68.577863154960028
30
0
10
95.151714067194575
20
68.995824049813308
30
0
10
95.291344237493277
20
69.26694380531147
30
0
10
95.424090055091085
20
69.426138631429666
30
0
10
95.500001423060894
20
69.500001035630703
30
0
0
SPLINE
5
107
100
AcDbEntity
8
0
100
AcDbSpline
70
6
71
5
72
151
73
145
74
0
42
0.000000001
43
0.0000000001
44
0.0000000001
40
0
40
0
40
0
40
0
40
0
40
0
40
0.0071428571428571426
40
0.014285714285714285
40
0.021428571428571429
40
0.028571428571428571
40
0.035714285714285712
40
0.042857142857142858
40
0.050000000000000003
40
0.057142857142857148
40
0.064285714285714293
40
0.071428571428571438
40
0.078571428571428584
40
0.085714285714285729
40
0.092857142857142874
40
0.10000000000000002
40
0.10714285714285716
40
0.11428571428571431
40
0.12142857142857146
40
0.12857142857142859
40
0.13571428571428573
40
0.14285714285714288
40
0.15000000000000002
40
0.15714285714285717
40
0.16428571428571431
40
0.17142857142857146
40
0.1785714285714286
40
0.18571428571428575
40
0.19285714285714289
40
0.20000000000000004
40
0.20714285714285718
40
0.21428571428571433
40
0.22142857142857147
40
0.22857142857142862
40
0.23571428571428577
40
0.24285714285714291
40
0.25000000000000006
40
0.25714285714285717
40
0.26428571428571429
40
0.27142857142857141
40
0.27857142857142853
40
0.28571428571428564
40
0.29285714285714276
40
0.29999999999999988
40
0.307142857142857
40
0.31428571428571411
40
0.32142857142857123
40
0.32857142857142835
40
0.33571428571428547
40
0.34285714285714258
40
0.3499999999999997
40
0.35714285714285682
40
0.36428571428571394
40
0.37142857142857105
40
0.37857142857142817
40
0.38571428571428529
40
0.39285714285714241
40
0.39999999999999952
40
0.40714285714285664
40
0.41428571428571376
40
0.42142857142857088
40
0.42857142857142799
40
0.43571428571428511
40
0.44285714285714223
40
0.44999999999999934
40
0.45714285714285646
40
0.46428571428571358
40
0.4714285714285707
40
0.47857142857142781
40
0.48571428571428493
40
0.49285714285714205
40
0.49999999999999917
40
0.50714285714285634
40
0.51428571428571346
40
0.52142857142857058
40
0.52857142857142769
40
0.53571428571428481
40
0.54285714285714193
40
0.54999999999999905
40
0.55714285714285616
40
0.56428571428571328
40
0.5714285714285704
40
0.57857142857142752
40
0.58571428571428463
40
0.59285714285714175
40
0.59999999999999887
40
0.60714285714285599
40
0.6142857142857131
40
0.62142857142857022
40
0.62857142857142734
40
0.63571428571428445
40
0.64285714285714157
40
0.64999999999999869
40
0.65714285714285581
40
0.66428571428571292
40
0.67142857142857004
40
0.67857142857142716
40
0.68571428571428428
40
0.69285714285714139
40
0.69999999999999851
40
0.70714285714285563
40
0.71428571428571275
40
0.72142857142856986
40
0.72857142857142698
40
0.7357142857142841
40
0.74285714285714122
40
0.74999999999999833
40
0.75714285714285545
40
0.76428571428571257
40
0.77142857142856969
40
0.7785714285714268
40
0.78571428571428392
40
0.79285714285714104
40
0.79999999999999816
40
0.80714285714285527
40
0.81428571428571239
40
0.82142857142856951
40
0.82857142857142663
40
0.83571428571428374
40
0.84285714285714086
40
0.84999999999999798
40
0.8571428571428551
40
0.86428571428571221
40
0.87142857142856933
40
0.87857142857142645
40
0.88571428571428357
40
0.89285714285714068
40
0.8999999999999978
40
0.90714285714285492
40
0.91428571428571204
40
0.92142857142856915
40
0.92857142857142627
40
0.93571428571428339
40
0.94285714285714051
40
0.94999999999999762
40
0.95714285714285474
40
0.96428571428571186
40
0.97142857142856898
40
0.97857142857142609
40
0.98571428571428321
40
0.99285714285714033
40
1
40
1
40
1
40
1
40
1
40
1
41
1
41
1
41
1
41
1
41
1
41
1
41
1
41
1
41
1
41
1
41
1
41
1
41
1
41
1
41
1
41
1
41
1
41
1
41
1
41
1
41
1
41
1
41
1
41
1
41
1
41
1
41
1
41
1
41
1
41
1
41
1
41
1
41
1
41
1
41
1
41
1
41
1
41
1
41
1
41
1
41
1
41
1
41
1
41
1
41
1
41
1
41
1
41
1
41
1
41
1
41
1
41
1
41
1
41
1
41
1
41
1
41
1
41
1
41
1
41
1
41
1
41
1
41
1
41
1
41
1
41
1
41
1
41
1
41
1
41
1
41
1
41
1
41
1
41
1
41
1
41
1
41
1
41
1
41
1
41
1
41
1
41
1
41
1
41
1
41
1
41
1
41
1
41
1
41
1
41
1
41
1
41
1
41
1
41
1
41
1
41
1
41
1
41
1
41
1
41
1
41
1
41
1
41
1
41
1
41
1
41
1
41
1
41
1
41
1
41
1
41
1
41
1
41
1
41
1
41
1
41
1
41
1
41
1
41
1
41
1
41
1
41
1
41
1
41
1
41
1
41
1
41
1
41
1
41
1
41
1
41
1
41
1
41
1
41
1
41
1
41
1
41
1
41
1
41
1
41
1
41
1
41
1
41
1
41
1
41
1
10
33.602512543920362
20
29.159048781663333
30
0
10
33.546907873409495
20
29.263743909047257
30
0
10
33.446190837535539
20
29.469526499491199
30
0
10
33.331651151242959
20
29.765634290868775
30
0
10
33.275084564305494
20
30.127977092950115
30
0
10
33.415042374055638
20
30.507512520778665
30
0
10
33.790356634796638
20
30.794415247907189
30
0
10
34.373929657685444
20
30.970223682947882
30
0
10
35.091762748278718
20
31.01894599571148
30
0
10
35.849489846876672
20
30.929324747687179
30
0
10
36.553600747069346
20
30.697110700473793
30
0
10
37.132544982267092
20
30.326947995743751
30
0
10
37.563628543873008
20
29.83539188852577
30
0
10
37.871089296344408
20
29.249026798197981
30
0
10
38.105394774253938
20
28.599488169494261
30
0
10
38.327641841964507
20
27.91928529829001
30
0
10
38.593103982572707
20
27.237581624207955
30
0
10
38.932118918870302
20
26.575297590860675
30
0
10
39.342656699076841
20
25.942917631339736
30
0
10
39.80326810762871
20
25.342885137744197
30
0
10
40.281113123153069
20
24.770975220296002
30
0
10
40.742367984860543
20
24.217987473974922
30
0
10
41.16068596453551
20
23.671506434635031
30
0
10
41.528849728010648
20
23.11711110782532
30
0
10
41.856691588742841
20
22.542457120417527
30
0
10
42.162841026819763
20
21.942441612842948
30
0
10
42.468099594554815
20
21.324541491685949
30
0
10
42.788853952688235
20
20.712939332852478
30
0
10
43.128739737365507
20
20.155959659145054
30
0
10
43.477294696414873
20
19.721972410388773
30
0
10
43.81992855104734
20
19.476347692482747
30
0
10
44.144366662190812
20
19.46516206815733
30
0
10
44.450337992960051
20
19.691162018212985
30
0
10
44.751213673431891
20
20.111408355708594
30
0
10
45.065563439128844
20
20.663130989507849
30
0
10
45.411742284243672
20
21.2808299698046
30
0
10
45.80000786856003
20
21.920934589507588
30
0
10
46.231045994796567
20
22.56592671919222
30
0
10
46.698803426061076
20
23.214390793420719
30
0
10
47.192088632468
20
23.875209585479269
30
0
10
47.696681156772541
20
24.559804153594005
30
0
10
48.197210507843323
20
25.275809194176155
30
0
10
48.679160597481179
20
26.018678280685311
30
0
10
49.130734692201912
20
26.769278463018065
30
0
10
49.544664996898121
20
27.500862186167247
30
0
10
49.919926717589391
20
28.183764006088126
30
0
10
50.263719769932166
20
28.791221291910283
30
0
10
50.592816657794017
20
29.304232998943526
30
0
10
50.936440129183723
20
29.717991821070765
30
0
10
51.334562943707724
20
30.044014545354493
30
0
10
51.822414183647794
20
30.299407263107938
30
0
10
52.416982891661945
20
30.498123430262392
30
0
10
53.103533472887634
20
30.641900963852624
30
0
10
53.819960198082562
20
30.710093176507385
30
0
10
54.476437547967109
20
30.669896959314027
30
0
10
54.979468875737794
20
30.489190718364409
30
0
10
55.252573605899343
20
30.147337575894745
30
0
10
55.262573127123396
20
29.649421248125734
30
0
10
55.029315714229377
20
29.030293841030158
30
0
10
54.605357438141993
20
28.340139488593366
30
0
10
54.06220079114032
20
27.634057095784122
30
0
10
53.474009675167608
20
26.960125546723276
30
0
10
52.902179136620042
20
26.347903847372358
30
0
10
52.380173461393696
20
25.79734214294113
30
0
10
51.919874290853407
20
25.288645465706328
30
0
10
51.517055982697713
20
24.791189244084993
30
0
10
51.157332171549434
20
24.273183647588048
30
0
10
50.8215674685053
20
23.710118890995588
30
0
10
50.492334371367008
20
23.095962461692192
30
0
10
50.156576388592178
20
22.444067578074588
30
0
10
49.804895171826615
20
21.778844057856052
30
0
10
49.43177743584684
20
21.130040048318399
30
0
10
49.035439667520002
20
20.525882580613811
30
0
10
48.617834526640422
20
19.986879605811922
30
0
10
48.184595913638347
20
19.518869940994776
30
0
10
47.745109737529262
20
19.115200243446846
30
0
10
47.312673131473673
20
18.759501345600022
30
0
10
46.904444961456555
20
18.428291593534944
30
0
10
46.541904234407419
20
18.093545069417132
30
0
10
46.24975711180511
20
17.725627323334297
30
0
10
46.047657207325116
20
17.298562668738793
30
0
10
45.94404247902159
20
16.794326151492886
30
0
10
45.9269226629484
20
16.208858879629652
30
0
10
45.963868726377122
20
15.552577293700768
30
0
10
46.013980952748966
20
14.843619584339489
30
0
10
46.037160076727915
20
14.102743543099482
30
0
10
46.003927542725748
20
13.347861101930008
30
0
10
45.906296576911956
20
12.588008294149311
30
0
10
45.764291190865322
20
11.819746447258714
30
0
10
45.613292047887775
20
11.034315674640403
30
0
10
45.49417992055568
20
10.223223704956474
30
0
10
45.442434645978423
20
9.3844106837544441
30
0
10
45.477573347619931
20
8.5282505257230206
30
0
10
45.592686623150286
20
7.683435978740639
30
0
10
45.743235086238634
20
6.9034563531438975
30
0
10
45.863369593544917
20
6.2499773010584034
30
0
10
45.883564939402461
20
5.7748201869689435
30
0
10
45.747107278231354
20
5.503589651822737
30
0
10
45.428605563217765
20
5.4159467452122421
30
0
10
44.947047226214629
20
5.4354539458071836
30
0
10
44.351777044258746
20
5.4740093798688969
30
0
10
43.7119705384154
20
5.4645233856214714
30
0
10
43.10478585492141
20
5.4083417162874889
30
0
10
42.603815746884486
20
5.3791340036592041
30
0
10
42.265642341303121
20
5.4701208923600531
30
0
10
42.118649897477489
20
5.7593787225010935
30
0
10
42.146789227688132
20
6.2586067797493925
30
0
10
42.298976613996388
20
6.9214924137493119
30
0
10
42.50840530020038
20
7.6734277722355539
30
0
10
42.708944395337824
20
8.434834022055
30
0
10
42.852062058694564
20
9.1461639146355509
30
0
10
42.925362170266553
20
9.7947895498074065
30
0
10
42.942759372387577
20
10.4018615857212
30
0
10
42.931985855261075
20
11.00532075299521
30
0
10
42.922761613110964
20
11.643859264151475
30
0
10
42.935385611743186
20
12.341515586217479
30
0
10
42.967306132419708
20
13.08928014357085
30
0
10
42.998356584832905
20
13.854172535047534
30
0
10
42.999072250168588
20
14.592767591964893
30
0
10
42.938186172347883
20
15.263700585596114
30
0
10
42.789878678280417
20
15.839380987706967
30
0
10
42.542563181477391
20
16.321004021288758
30
0
10
42.20211172040446
20
16.742031315050369
30
0
10
41.78518131550311
20
17.151405909458365
30
0
10
41.314661013857517
20
17.600922939261171
30
0
10
40.814509636361379
20
18.131810929212968
30
0
10
40.304236145754828
20
18.759386272416315
30
0
10
39.798314441209598
20
19.476017785880913
30
0
10
39.306891956980543
20
20.258721594430074
30
0
10
38.836050384844214
20
21.075137295636608
30
0
10
38.388249574289965
20
21.890223166678897
30
0
10
37.962699586490864
20
22.672540287925187
30
0
10
37.555743044393573
20
23.400953333315776
30
0
10
37.161287399201989
20
24.070468998713345
30
0
10
36.772074030909238
20
24.68753073440141
30
0
10
36.380895253379535
20
25.266033538874446
30
0
10
35.981822343458958
20
25.822973809992654
30
0
10
35.571449181037863
20
26.374473092890224
30
0
10
35.150081601127148
20
26.931116563345761
30
0
10
34.723113457632003
20
27.495313478805311
30
0
10
34.302862104820285
20
28.06312623234242
30
0
10
33.988789293009191
20
28.512778964710222
30
0
10
33.77981886060077
20
28.841355735187616
30
0
10
33.658117214431243
20
29.054353654279389
30
0
10
33.602512543920362
20
29.159048781663333
30
0
0
SPLINE
5
108
100
AcDbEntity
8
0
100
AcDbSpline
70
6
71
5
72
71
73
65
74
0
42
0.000000001
43
0.0000000001
44
0.0000000001
40
0
40
0
40
0
40
0
40
0
40
0
40
0.016666666666666666
40
0.033333333333333333
40
0.050000000000000003
40
0.066666666666666666
40
0.083333333333333329
40
0.099999999999999992
40
0.11666666666666665
40
0.13333333333333333
40
0.14999999999999999
40
0.16666666666666666
40
0.18333333333333332
40
0.19999999999999998
40
0.21666666666666665
40
0.23333333333333331
40
0.24999999999999997
40
0.26666666666666666
40
0.28333333333333333
40
0.29999999999999999
40
0.31666666666666665
40
0.33333333333333331
40
0.34999999999999998
40
0.36666666666666664
40
0.3833333333333333
40
0.39999999999999997
40
0.41666666666666663
40
0.43333333333333329
40
0.44999999999999996
40
0.46666666666666662
40
0.48333333333333328
40
0.49999999999999994
40
0.51666666666666661
40
0.53333333333333333
40
0.55000000000000004
40
0.56666666666666676
40
0.58333333333333348
40
0.6000000000000002
40
0.61666666666666692
40
0.63333333333333364
40
0.65000000000000036
40
0.66666666666666707
40
0.68333333333333379
40
0.70000000000000051
40
0.71666666666666723
40
0.73333333333333395
40
0.75000000000000067
40
0.76666666666666738
40
0.7833333333333341
40
0.80000000000000082
40
0.81666666666666754
40
0.83333333333333426
40
0.85000000000000098
40
0.8666666666666677
40
0.88333333333333441
40
0.90000000000000113
40
0.91666666666666785
40
0.93333333333333457
40
0.95000000000000129
40
0.96666666666666801
40
0.98333333333333472
40
1
40
1
40
1
40
1
40
1
40
1
41
1
41
1
41
1
41
1
41
1
41
1
41
1
41
1
41
1
41
1
41
1
41
1
41
1
41
1
41
1
41
1
41
1
41
1
41
1
41
1
41
1
41
1
41
1
41
1
41
1
41
1
41
1
41
1
41
1
41
1
41
1
41
1
41
1
41
1
41
1
41
1
41
1
41
1
41
1
41
1
41
1
41
1
41
1
41
1
41
1
41
1
41
1
41
1
41
1
41
1
41
1
41
1
41
1
41
1
41
1
41
1
41
1
41
1
41
1
41
1
41
1
41
1
41
1
41
1
41
1
10
62.500000931322575
20
24.500000365078449
30
0
10
62.706914737793809
20
24.509091701470872
30
0
10
63.122816337538453
20
24.517311322112548
30
0
10
63.750380262988848
20
24.498802261258529
30
0
10
64.581088051034655
20
24.40885307208427
30
0
10
65.56775221485799
20
24.180871890833036
30
0
10
66.462116791673566
20
23.834003726326959
30
0
10
67.233907841005674
20
23.369559935147954
30
0
10
67.871974658251602
20
22.79466509005249
30
0
10
68.394290871578306
20
22.123649586668222
30
0
10
68.83639074662959
20
21.375234914868358
30
0
10
69.237812913610583
20
20.569323912398669
30
0
10
69.630331347651776
20
19.724159153633703
30
0
10
70.02295691477805
20
18.852807763748356
30
0
10
70.396451815223543
20
17.961642832898622
30
0
10
70.717132595249552
20
17.052915775412522
30
0
10
70.947031666368062
20
16.126509956837079
30
0
10
71.05463571134193
20
15.181927911748296
30
0
10
71.027449651993891
20
14.220387777342678
30
0
10
70.876904125551278
20
13.246168451733942
30
0
10
70.627256773366696
20
12.266274582435784
30
0
10
70.307779897745078
20
11.290484909359089
30
0
10
69.944002055569158
20
10.331218683075649
30
0
10
69.548517214482047
20
9.4035641488430528
30
0
10
69.114451926009465
20
8.5250072214280639
30
0
10
68.624075590773344
20
7.7137805596686606
30
0
10
68.05559281125764
20
6.9873516836990524
30
0
10
67.390333390709912
20
6.360922840490649
30
0
10
66.620476253921552
20
5.8457642296558534
30
0
10
65.754448158893709
20
5.4480846523396629
30
0
10
64.811256848454434
20
5.1703707689929193
30
0
10
63.816316060494543
20
5.0123934630043356
30
0
10
62.796873568918869
20
4.9722973588322557
30
0
10
61.777216673815012
20
5.0477419117127305
30
0
10
60.775182431373047
20
5.2367363086736667
30
0
10
59.804771828074934
20
5.5370589452113252
30
0
10
58.877856724464969
20
5.9458830334211967
30
0
10
58.006257203883926
20
6.4593165114302566
30
0
10
57.20361050486445
20
7.0719813913500138
30
0
10
56.487462317546445
20
7.7765551465953484
30
0
10
55.87558251987965
20
8.5641076443220658
30
0
10
55.382229933794449
20
9.4244490356979682
30
0
10
55.014257240477335
20
10.346478014650643
30
0
10
54.767662971921425
20
11.318508966333358
30
0
10
54.622898398520078
20
12.328652878162892
30
0
10
54.55087246146519
20
13.364723493178039
30
0
10
54.520456251591511
20
14.414087545744545
30
0
10
54.505873592950167
20
15.463492841340326
30
0
10
54.493198409059858
20
16.498995898486399
30
0
10
54.489575341721952
20
17.505621233154869
30
0
10
54.522413195695336
20
18.467986852399839
30
0
10
54.627900727616606
20
19.371913279314882
30
0
10
54.84189244430614
20
20.205879502126713
30
0
10
55.190867101343606
20
20.962317314203002
30
0
10
55.680269553421304
20
21.639551394864277
30
0
10
56.295716055612772
20
22.240867814821584
30
0
10
57.013014339535708
20
22.771641647479637
30
0
10
57.805358414814904
20
23.237091799034854
30
0
10
58.652033097690563
20
23.639687695520152
30
0
10
59.54547185627942
20
23.976961515544019
30
0
10
60.484652497050895
20
24.242848600383514
30
0
10
61.272435454386944
20
24.391604895287177
30
0
10
61.881333498711086
20
24.462763303758027
30
0
10
62.293087124851382
20
24.490909028686019
30
0
10
62.500000931322575
20
24.500000365078449
30
0
0
SPLINE
5
109
100
AcDbEntity
8
0
100
AcDbSpline
70
6
71
5
72
61
73
55
74
0
42
0.000000001
43
0.0000000001
44
0.0000000001
40
0
40
0
40
0
40
0
40
0
40
0
40
0.02
40
0.040000000000000001
40
0.059999999999999998
40
0.080000000000000002
40
0.10000000000000001
40
0.12000000000000001
40
0.14000000000000001
40
0.16
40
0.17999999999999999
40
0.19999999999999998
40
0.21999999999999997
40
0.23999999999999996
40
0.25999999999999995
40
0.27999999999999997
40
0.29999999999999999
40
0.32000000000000001
40
0.34000000000000002
40
0.36000000000000004
40
0.38000000000000006
40
0.40000000000000008
40
0.4200000000000001
40
0.44000000000000011
40
0.46000000000000013
40
0.48000000000000015
40
0.50000000000000011
40
0.52000000000000013
40
0.54000000000000015
40
0.56000000000000016
40
0.58000000000000018
40
0.6000000000000002
40
0.62000000000000022
40
0.64000000000000024
40
0.66000000000000025
40
0.68000000000000027
40
0.70000000000000029
40
0.72000000000000031
40
0.74000000000000032
40
0.76000000000000034
40
0.78000000000000036
40
0.80000000000000038
40
0.8200000000000004
40
0.84000000000000041
40
0.86000000000000043
40
0.88000000000000045
40
0.90000000000000047
40
0.92000000000000048
40
0.9400000000000005
40
0.96000000000000052
40
0.98000000000000054
40
1
40
1
40
1
40
1
40
1
40
1
41
1
41
1
41
1
41
1
41
1
41
1
41
1
41
1
41
1
41
1
41
1
41
1
41
1
41
1
41
1
41
1
41
1
41
1
41
1
41
1
41
1
41
1
41
1
41
1
41
1
41
1
41
1
41
1
41
1
41
1
41
1
41
1
41
1
41
1
41
1
41
1
41
1
41
1
41
1
41
1
41
1
41
1
41
1
41
1
41
1
41
1
41
1
41
1
41
1
41
1
41
1
41
1
41
1
41
1
41
1
10
62.500000931322575
20
22.000000327825546
30
0
10
62.646940384270522
20
21.978399496946828
30
0
10
62.942522953802005
20
21.920760632537586
30
0
10
63.3891012333223
20
21.791229998791781
30
0
10
63.982780520467685
20
21.537436606174985
30
0
10
64.700190293551159
20
21.110807171684751
30
0
10
65.371158194923623
20
20.606271475179025
30
0
10
65.97529728562975
20
20.053557918296075
30
0
10
66.494930448974102
20
19.473478794903095
30
0
10
66.916483190301477
20
18.869880680233212
30
0
10
67.231526239353883
20
18.234932276909742
30
0
10
67.437912050625641
20
17.555640783643828
30
0
10
67.540684589416244
20
16.819619347252001
30
0
10
67.553600724347177
20
16.021842105672196
30
0
10
67.498854698320315
20
15.168874279625932
30
0
10
67.401177511543722
20
14.275697465535783
30
0
10
67.283065265447391
20
13.363838691280154
30
0
10
67.159276297322961
20
12.45901392405271
30
0
10
67.032282189598703
20
11.588975180096019
30
0
10
66.885578794624308
20
10.781324083724979
30
0
10
66.689227838410133
20
10.061014254056058
30
0
10
66.409136501190247
20
9.4476954762438172
30
0
10
66.015010520861054
20
8.953146398522744
30
0
10
65.489012983968692
20
8.5785381832536434
30
0
10
64.833746501672621
20
8.312040688989434
30
0
10
64.067468384024664
20
8.1352012068438739
30
0
10
63.21969646675484
20
8.0291864125958572
30
0
10
62.326770780729525
20
7.9807288133073664
30
0
10
61.427310839625626
20
7.988997340543003
30
0
10
60.558179134549839
20
8.0697062763454657
30
0
10
59.752775335456604
20
8.2470543741281723
30
0
10
59.038972838479339
20
8.5473693613287303
30
0
10
58.437214578093332
20
8.9921754922355817
30
0
10
57.95843881073214
20
9.5913102181764671
30
0
10
57.602280172216247
20
10.336516894552158
30
0
10
57.360136848255635
20
11.206143300159399
30
0
10
57.217939977613156
20
12.169189374104999
30
0
10
57.159095333852946
20
13.189665502840393
30
0
10
57.16715681908034
20
14.230580759336105
30
0
10
57.229059134344631
20
15.258616384066954
30
0
10
57.336413543770711
20
16.246486894547076
30
0
10
57.484596413811609
20
17.172711090688381
30
0
10
57.672408125143079
20
18.022016203699391
30
0
10
57.90153452801357
20
18.785621451820095
30
0
10
58.176039500024899
20
19.461317570196787
30
0
10
58.502004883665137
20
20.054357978296132
30
0
10
58.886280129018758
20
20.574218464847029
30
0
10
59.33471371426343
20
21.028943686607864
30
0
10
59.850656170450087
20
21.42089266171461
30
0
10
60.433087435997464
20
21.740422017366512
30
0
10
61.07576755598599
20
21.965465376603063
30
0
10
61.629640929284207
20
22.04996142767877
30
0
10
62.060886236114357
20
22.050365617809881
30
0
10
62.353061478374642
20
22.021601158704271
30
0
10
62.500000931322575
20
22.000000327825546
30
0
0
SPLINE
5
110
100
AcDbEntity
8
0
100
AcDbSpline
70
6
71
5
72
161
73
155
74
0
42
0.000000001
43
0.0000000001
44
0.0000000001
40
0
40
0
40
0
40
0
40
0
40
0
40
0.0066666666666666671
40
0.013333333333333334
40
0.02
40
0.026666666666666668
40
0.033333333333333333
40
0.040000000000000001
40
0.046666666666666669
40
0.053333333333333337
40
0.060000000000000005
40
0.066666666666666666
40
0.073333333333333334
40
0.080000000000000002
40
0.08666666666666667
40
0.093333333333333338
40
0.10000000000000001
40
0.10666666666666667
40
0.11333333333333334
40
0.12000000000000001
40
0.12666666666666668
40
0.13333333333333333
40
0.13999999999999999
40
0.14666666666666664
40
0.15333333333333329
40
0.15999999999999995
40
0.1666666666666666
40
0.17333333333333326
40
0.17999999999999991
40
0.18666666666666656
40
0.19333333333333322
40
0.19999999999999987
40
0.20666666666666653
40
0.21333333333333318
40
0.21999999999999983
40
0.22666666666666649
40
0.23333333333333314
40
0.2399999999999998
40
0.24666666666666645
40
0.25333333333333313
40
0.25999999999999979
40
0.26666666666666644
40
0.2733333333333331
40
0.27999999999999975
40
0.2866666666666664
40
0.29333333333333306
40
0.29999999999999971
40
0.30666666666666637
40
0.31333333333333302
40
0.31999999999999967
40
0.32666666666666633
40
0.33333333333333298
40
0.33999999999999964
40
0.34666666666666629
40
0.35333333333333294
40
0.3599999999999996
40
0.36666666666666625
40
0.37333333333333291
40
0.37999999999999956
40
0.38666666666666621
40
0.39333333333333287
40
0.39999999999999952
40
0.40666666666666618
40
0.41333333333333283
40
0.41999999999999948
40
0.42666666666666614
40
0.43333333333333279
40
0.43999999999999945
40
0.4466666666666661
40
0.45333333333333276
40
0.45999999999999941
40
0.46666666666666606
40
0.47333333333333272
40
0.47999999999999937
40
0.48666666666666603
40
0.49333333333333268
40
0.49999999999999933
40
0.50666666666666604
40
0.51333333333333275
40
0.51999999999999946
40
0.52666666666666617
40
0.53333333333333288
40
0.53999999999999959
40
0.5466666666666663
40
0.55333333333333301
40
0.55999999999999972
40
0.56666666666666643
40
0.57333333333333314
40
0.57999999999999985
40
0.58666666666666656
40
0.59333333333333327
40
0.59999999999999998
40
0.60666666666666669
40
0.6133333333333334
40
0.62000000000000011
40
0.62666666666666682
40
0.63333333333333353
40
0.64000000000000024
40
0.64666666666666694
40
0.65333333333333365
40
0.66000000000000036
40
0.66666666666666707
40
0.67333333333333378
40
0.68000000000000049
40
0.6866666666666672
40
0.69333333333333391
40
0.70000000000000062
40
0.70666666666666733
40
0.71333333333333404
40
0.72000000000000075
40
0.72666666666666746
40
0.73333333333333417
40
0.74000000000000088
40
0.74666666666666759
40
0.7533333333333343
40
0.76000000000000101
40
0.76666666666666772
40
0.77333333333333443
40
0.78000000000000114
40
0.78666666666666785
40
0.79333333333333456
40
0.80000000000000127
40
0.80666666666666798
40
0.81333333333333468
40
0.82000000000000139
40
0.8266666666666681
40
0.83333333333333481
40
0.84000000000000152
40
0.84666666666666823
40
0.85333333333333494
40
0.86000000000000165
40
0.86666666666666836
40
0.87333333333333507
40
0.88000000000000178
40
0.88666666666666849
40
0.8933333333333352
40
0.90000000000000191
40
0.90666666666666862
40
0.91333333333333533
40
0.92000000000000204
40
0.92666666666666875
40
0.93333333333333546
40
0.94000000000000217
40
0.94666666666666888
40
0.95333333333333559
40
0.9600000000000023
40
0.96666666666666901
40
0.97333333333333572
40
0.98000000000000242
40
0.98666666666666913
40
0.99333333333333584
40
1
40
1
40
1
40
1
40
1
40
1
41
1
41
1
41
1
41
1
41
1
41
1
41
1
41
1
41
1
41
1
41
1
41
1
41
1
41
1
41
1
41
1
41
1
41
1
41
1
41
1
41
1
41
1
41
1
41
1
41
1
41
1
41
1
41
1
41
1
41
1
41
1
41
1
41
1
41
1
41
1
41
1
41
1
41
1
41
1
41
1
41
1
41
1
41
1
41
1
41
1
41
1
41
1
41
1
41
1
41
1
41
1
41
1
41
1
41
1
41
1
41
1
41
1
41
1
41
1
41
1
41
1
41
1
41
1
41
1
41
1
41
1
41
1
41
1
41
1
41
1
41
1
41
1
41
1
41
1
41
1
41
1
41
1
41
1
41
1
41
1
41
1
41
1
41
1
41
1
41
1
41
1
41
1
41
1
41
1
41
1
41
1
41
1
41
1
41
1
41
1
41
1
41
1
41
1
41
1
41
1
41
1
41
1
41
1
41
1
41
1
41
1
41
1
41
1
41
1
41
1
41
1
41
1
41
1
41
1
41
1
41
1
41
1
41
1
41
1
41
1
41
1
41
1
41
1
41
1
41
1
41
1
41
1
41
1
41
1
41
1
41
1
41
1
41
1
41
1
41
1
41
1
41
1
41
1
41
1
41
1
41
1
41
1
41
1
41
1
41
1
41
1
41
1
41
1
41
1
41
1
41
1
41
1
41
1
41
1
41
1
10
77.516271766656075
20
23.914538458093855
30
0
10
77.57007527824365
20
23.865164954071268
30
0
10
77.665076043868893
20
23.745960963102142
30
0
10
77.768953506503991
20
23.502684621680658
30
0
10
77.832289896692487
20
23.047337826139369
30
0
10
77.81035911506865
20
22.292616264359168
30
0
10
77.723014826956387
20
21.409439587451363
30
0
10
77.609969044575251
20
20.465513992984956
30
0
10
77.507483299641848
20
19.525547401662546
30
0
10
77.440887225238129
20
18.637592640056678
30
0
10
77.41709955798126
20
17.819404777198077
30
0
10
77.429569016992005
20
17.066042930520677
30
0
10
77.463254552996602
20
16.357535018133412
30
0
10
77.499514119259601
20
15.666400091265974
30
0
10
77.521197842955857
20
14.965485443468316
30
0
10
77.517261902981318
20
14.235065088951623
30
0
10
77.488599474435645
20
13.471812353511247
30
0
10
77.446894063669717
20
12.687007537924996
30
0
10
77.41116720934302
20
11.901155869937481
30
0
10
77.405109284073347
20
11.139880237829038
30
0
10
77.454047397304024
20
10.429100124069643
30
0
10
77.582156779218366
20
9.7909434811388572
30
0
10
77.809348470345896
20
9.2382738658047252
30
0
10
78.149321668565946
20
8.7747171150220904
30
0
10
78.608415606652841
20
8.3981685005494171
30
0
10
79.1841079347803
20
8.103331165054751
30
0
10
79.863907898467914
20
7.8844897279782096
30
0
10
80.623428153246394
20
7.7386044349357928
30
0
10
81.429501014061231
20
7.6652320567727719
30
0
10
82.244689272415826
20
7.6655270428288
30
0
10
83.031242013668702
20
7.7415711080328311
30
0
10
83.755467074908211
20
7.8955343618012286
30
0
10
84.391495528240512
20
8.1289810973545897
30
0
10
84.92638756602841
20
8.4419321918497729
30
0
10
85.359755916740113
20
8.832853415138457
30
0
10
85.699811483203447
20
9.299228919867975
30
0
10
85.960415917280542
20
9.837987489575502
30
0
10
86.157858816374059
20
10.445929241957586
30
0
10
86.307400021892263
20
11.120306069666402
30
0
10
86.422228089342283
20
11.858320668055409
30
0
10
86.513229670351151
20
12.656265208175503
30
0
10
86.588502629343353
20
13.508797666706965
30
0
10
86.652936119937749
20
14.408121557285689
30
0
10
86.707852650547323
20
15.343295744579395
30
0
10
86.750402224874563
20
16.299272856306878
30
0
10
86.773746057410094
20
17.256719974913317
30
0
10
86.769948611803542
20
18.194478002202366
30
0
10
86.732446366127647
20
19.091605396974028
30
0
10
86.658639371242515
20
19.929551837495133
30
0
10
86.552531305880677
20
20.694352829566192
30
0
10
86.427118395011107
20
21.37864038948485
30
0
10
86.307442199324242
20
21.984154518932325
30
0
10
86.231743877709533
20
22.522818162574318
30
0
10
86.240982948439978
20
23.009110302296499
30
0
10
86.36924997057163
20
23.453039464683584
30
0
10
86.634615574395013
20
23.853611226123547
30
0
10
87.027786351617081
20
24.190216586241853
30
0
10
87.517381371165811
20
24.429790710241083
30
0
10
88.059440643518656
20
24.538335808871953
30
0
10
88.605102177005364
20
24.489939685272031
30
0
10
89.109964730422533
20
24.279308961642769
30
0
10
89.5380984797754
20
23.920189142405999
30
0
10
89.863729625993187
20
23.436641625805557
30
0
10
90.073386520747945
20
22.85688636602524
30
0
10
90.168445135109877
20
22.205306960818291
30
0
10
90.165656928751417
20
21.497688720183305
30
0
10
90.091395476968671
20
20.744503751515211
30
0
10
89.977062534790406
20
19.952784166465712
30
0
10
89.854001966379229
20
19.128571212370204
30
0
10
89.748704690406015
20
18.279068124039696
30
0
10
89.677696429496791
20
17.415039444919262
30
0
10
89.643102919022027
20
16.552768093087206
30
0
10
89.636991637352253
20
15.710683868326893
30
0
10
89.645231826638195
20
14.906244233789963
30
0
10
89.651445744680871
20
14.152845226312378
30
0
10
89.64112119770374
20
13.456434346386981
30
0
10
89.605185716971562
20
12.812912794407147
30
0
10
89.544985161954259
20
12.203539895165086
30
0
10
89.471558639568116
20
11.59838821167477
30
0
10
89.400673821057268
20
10.965715235911066
30
0
10
89.349053364306997
20
10.279769920092773
30
0
10
89.330209623166297
20
9.5288984569023718
30
0
10
89.350215335997532
20
8.7243453449577935
30
0
10
89.404165556941408
20
7.9063305477799792
30
0
10
89.477529805913122
20
7.1293377439267802
30
0
10
89.547302637311432
20
6.4501465627296914
30
0
10
89.582573946545082
20
5.9136788369936077
30
0
10
89.546842910109518
20
5.5423595883274217
30
0
10
89.39591882771731
20
5.3176225908632899
30
0
10
89.091155209866514
20
5.1885475966091823
30
0
10
88.626001168131552
20
5.1073731122353125
30
0
10
88.055120530041791
20
5.0632070259304509
30
0
10
87.472502693989881
20
5.0739119833056554
30
0
10
86.976130915871209
20
5.1666453577592364
30
0
10
86.640811333804095
20
5.3638629777954385
30
0
10
86.479217173545408
20
5.6635623962523516
30
0
10
86.446812882918209
20
6.0382363236715841
30
0
10
86.47199017470723
20
6.4447366264973844
30
0
10
86.480332239741216
20
6.8306491399871483
30
0
10
86.412143337795925
20
7.1429637708431777
30
0
10
86.230777108420753
20
7.3361177353334837
30
0
10
85.938743344937251
20
7.3812950353802718
30
0
10
85.565102941995292
20
7.2702415186586329
30
0
10
85.139989217775721
20
7.017385788981696
30
0
10
84.676108533719642
20
6.6612100059793322
30
0
10
84.174912883657512
20
6.2537664225265601
30
0
10
83.631036384462462
20
5.8512882749139195
30
0
10
83.037277092877446
20
5.5046012989852811
30
0
10
82.389547385221306
20
5.2490981548828231
30
0
10
81.69125899634696
20
5.0964095724950695
30
0
10
80.951776033003455
20
5.0415704752780313
30
0
10
80.185405936643534
20
5.0687632195184094
30
0
10
79.410195011089485
20
5.1576777738897404
30
0
10
78.646786211021549
20
5.2894347357233986
30
0
10
77.917303863446833
20
5.4531074092005696
30
0
10
77.244070703297382
20
5.6507812519819423
30
0
10
76.646883370092795
20
5.8921735921655758
30
0
10
76.140482483029544
20
6.1903423029640834
30
0
10
75.731847951631323
20
6.5568795954501162
30
0
10
75.41779398163834
20
6.99755206094125
30
0
10
75.181824757620618
20
7.5071405943033067
30
0
10
74.999367731853454
20
8.0726726517292686
30
0
10
74.843959827614881
20
8.677592401070072
30
0
10
74.693083557008237
20
9.3055905182093497
30
0
10
74.534173604018491
20
9.9445904191161976
30
0
10
74.37048773238466
20
10.590629769755438
30
0
10
74.215607323686726
20
11.245303508850771
30
0
10
74.088138716634418
20
11.913305644974423
30
0
10
74.006119337727853
20
12.599829768301365
30
0
10
73.982056530365128
20
13.30827154812966
30
0
10
74.016452513085028
20
14.037209703730733
30
0
10
74.096552775955303
20
14.779880339164732
30
0
10
74.201897626822742
20
15.526923464940943
30
0
10
74.308102680188554
20
16.268245082108017
30
0
10
74.391490128881969
20
16.995372775243929
30
0
10
74.433046581192414
20
17.703288501012707
30
0
10
74.423425313492828
20
18.393248158194659
30
0
10
74.364843582283569
20
19.072478828998811
30
0
10
74.268270304004176
20
19.74894190612746
30
0
10
74.151708110247199
20
20.427419860779786
30
0
10
74.038062368390115
20
21.104717954431706
30
0
10
73.953128783624763
20
21.766056725223383
30
0
10
73.923688032355244
20
22.378828359853689
30
0
10
73.974420739418761
20
22.902134559594497
30
0
10
74.124240904038132
20
23.302556740577511
30
0
10
74.383147210149076
20
23.565562013763085
30
0
10
74.748090652001849
20
23.714170282438957
30
0
10
75.20219394250914
20
23.802999553030745
30
0
10
75.717127059479566
20
23.885171927737726
30
0
10
76.255020638028071
20
23.989572501900398
30
0
10
76.769634879789692
20
24.086464675179698
30
0
10
77.124921193234911
20
24.101365482182327
30
0
10
77.34225497434349
20
24.042201987237661
30
0
10
77.462468255068529
20
23.963911962116423
30
0
10
77.516271766656075
20
23.914538458093855
30
0
0
LINE
5
111
100
AcDbEntity
8
0
100
AcDbLine
10
22.680768072605133
20
44.508867263793945
30
0
11
22.680768072605133
21
66.558661460876465
31
0
0
LINE
5
112
100
AcDbEntity
8
0
100
AcDbLine
10
22.680768072605133
20
66.558661460876465
30
0
11
14.444070160388947
21
66.558661460876465
31
0
0
LINE
5
113
100
AcDbEntity
8
0
100
AcDbLine
10
14.444070160388947
20
66.558661460876465
30
0
11
14.444070160388947
21
69.508867263793945
31
0
0
LINE
5
114
100
AcDbEntity
8
0
100
AcDbLine
10
14.444070160388947
20
69.508867263793945
30
0
11
34.259895384311676
21
69.508867263793945
31
0
0
LINE
5
115
100
AcDbEntity
8
0
100
AcDbLine
10
34.259895384311676
20
69.508867263793945
30
0
11
34.259895384311676
21
66.558661460876465
31
0
0
LINE
5
116
100
AcDbEntity
8
0
100
AcDbLine
10
34.259895384311676
20
66.558661460876465
30
0
11
25.989090502262115
21
66.558661460876465
31
0
0
LINE
5
117
100
AcDbEntity
8
0
100
AcDbLine
10
25.989090502262115
20
66.558661460876465
30
0
11
25.989090502262115
21
44.508867263793945
31
0
0
LINE
5
118
100
AcDbEntity
8
0
100
AcDbLine
10
25.989090502262115
20
44.508867263793945
30
0
11
22.680768072605133
21
44.508867263793945
31
0
0
LINE
5
119
100
AcDbEntity
8
0
100
AcDbLine
10
37.261258661746979
20
44.508867263793945
30
0
11
37.261258661746979
21
69.508867263793945
31
0
0
LINE
5
120
100
AcDbEntity
8
0
100
AcDbLine
10
37.261258661746979
20
69.508867263793945
30
0
11
40.330833494663239
21
69.508867263793945
31
0
0
LINE
5
121
100
AcDbEntity
8
0
100
AcDbLine
10
40.330833494663239
20
69.508867263793945
30
0
11
40.330833494663239
21
60.538880825042725
31
0
0
SPLINE
5
122
100
AcDbEntity
8
0
100
AcDbSpline
70
0
71
2
72
6
73
3
74
0
42
0.000000001
43
0.0000000001
44
0.0000000001
40
0
40
0
40
0
40
1
40
1
40
1
10
40.330833494663239
20
60.538880825042725
30
0
10
42.479538023471832
20
63.028647899627686
30
0
10
45.753754675388336
20
63.028647899627686
30
0
0
SPLINE
5
123
100
AcDbEntity
8
0
100
AcDbSpline
70
0
71
2
72
6
73
3
74
0
42
0.000000001
43
0.0000000001
44
0.0000000001
40
0
40
0
40
0
40
1
40
1
40
1
10
45.753754675388336
20
63.028647899627686
30
0
10
47.766031324863434
20
63.028647899627686
30
0
10
49.249662458896637
20
62.235674858093262
30
0
0
SPLINE
5
124
100
AcDbEntity
8
0
100
AcDbSpline
70
0
71
2
72
6
73
3
74
0
42
0.000000001
43
0.0000000001
44
0.0000000001
40
0
40
0
40
0
40
1
40
1
40
1
10
49.249662458896637
20
62.235674858093262
30
0
10
50.73329359292984
20
61.442701816558838
30
0
10
51.372784674167633
20
60.044338703155518
30
0
0
SPLINE
5
125
100
AcDbEntity
8
0
100
AcDbSpline
70
0
71
2
72
6
73
3
74
0
42
0.000000001
43
0.0000000001
44
0.0000000001
40
0
40
0
40
0
40
1
40
1
40
1
10
51.372784674167633
20
60.044338703155518
30
0
10
52.012280523777008
20
58.645975589752197
30
0
10
52.012280523777008
20
55.985674858093262
30
0
0
LINE
5
126
100
AcDbEntity
8
0
100
AcDbLine
10
52.012280523777008
20
55.985674858093262
30
0
11
52.012280523777008
21
44.508867263793945
31
0
0
LINE
5
127
100
AcDbEntity
8
0
100
AcDbLine
10
52.012280523777008
20
44.508867263793945
30
0
11
48.942703306674957
21
44.508867263793945
31
0
0
LINE
5
128
100
AcDbEntity
8
0
100
AcDbLine
10
48.942703306674957
20
44.508867263793945
30
0
11
48.942703306674957
21
55.985674858093262
31
0
0
SPLINE
5
129
100
AcDbEntity
8
0
100
AcDbSpline
70
0
71
2
72
6
73
3
74
0
42
0.000000001
43
0.0000000001
44
0.0000000001
40
0
40
0
40
0
40
1
40
1
40
1
10
48.942703306674957
20
55.985674858093262
30
0
10
48.942703306674957
20
58.287856578826904
30
0
10
47.945093214511871
20
59.336628913879395
30
0
0
SPLINE
5
130
100
AcDbEntity
8
0
100
AcDbSpline
70
0
71
2
72
6
73
3
74
0
42
0.000000001
43
0.0000000001
44
0.0000000001
40
0
40
0
40
0
40
1
40
1
40
1
10
47.945093214511871
20
59.336628913879395
30
0
10
46.947478353977203
20
60.385401248931885
30
0
10
45.122789442539215
20
60.385401248931885
30
0
0
SPLINE
5
131
100
AcDbEntity
8
0
100
AcDbSpline
70
0
71
2
72
6
73
3
74
0
42
0.000000001
43
0.0000000001
44
0.0000000001
40
0
40
0
40
0
40
1
40
1
40
1
10
45.122789442539215
20
60.385401248931885
30
0
10
43.758529722690582
20
60.385401248931885
30
0
10
42.556280195713043
20
59.677693843841553
30
0
0
SPLINE
5
132
100
AcDbEntity
8
0
100
AcDbSpline
70
0
71
2
72
6
73
3
74
0
42
0.000000001
43
0.0000000001
44
0.0000000001
40
0
40
0
40
0
40
1
40
1
40
1
10
42.556280195713043
20
59.677693843841553
30
0
10
41.354030668735504
20
58.969986438751221
30
0
10
40.842432081699371
20
57.759206295013428
30
0
0
SPLINE
5
133
100
AcDbEntity
8
0
100
AcDbSpline
70
0
71
2
72
6
73
3
74
0
42
0.000000001
43
0.0000000001
44
0.0000000001
40
0
40
0
40
0
40
1
40
1
40
1
10
40.842432081699371
20
57.759206295013428
30
0
10
40.330833494663239
20
56.548430919647217
30
0
10
40.330833494663239
20
54.416780471801758
30
0
0
LINE
5
134
100
AcDbEntity
8
0
100
AcDbLine
10
40.330833494663239
20
54.416780471801758
30
0
11
40.330833494663239
21
44.508867263793945
31
0
0
LINE
5
135
100
AcDbEntity
8
0
100
AcDbLine
10
40.330833494663239
20
44.508867263793945
30
0
11
37.261258661746979
21
44.508867263793945
31
0
0
SPLINE
5
136
100
AcDbEntity
8
0
100
AcDbSpline
70
0
71
2
72
6
73
3
74
0
42
0.000000001
43
0.0000000001
44
0.0000000001
40
0
40
0
40
0
40
1
40
1
40
1
10
68.502730429172516
20
46.742837429046631
30
0
10
66.797408163547516
20
45.293314456939697
30
0
10
65.21998792886734
20
44.696452617645264
30
0
0
SPLINE
5
137
100
AcDbEntity
8
0
100
AcDbSpline
70
0
71
2
72
6
73
3
74
0
42
0.000000001
43
0.0000000001
44
0.0000000001
40
0
40
0
40
0
40
1
40
1
40
1
10
65.21998792886734
20
44.696452617645264
30
0
10
63.642562925815582
20
44.09959077835083
30
0
10
61.834925711154938
20
44.09959077835083
30
0
0
SPLINE
5
138
100
AcDbEntity
8
0
100
AcDbSpline
70
0
71
2
72
6
73
3
74
0
42
0.000000001
43
0.0000000001
44
0.0000000001
40
0
40
0
40
0
40
1
40
1
40
1
10
61.834925711154938
20
44.09959077835083
30
0
10
58.850611746311188
20
44.09959077835083
30
0
10
57.247613966464996
20
45.557639598846436
30
0
0
SPLINE
5
139
100
AcDbEntity
8
0
100
AcDbSpline
70
0
71
2
72
6
73
3
74
0
42
0.000000001
43
0.0000000001
44
0.0000000001
40
0
40
0
40
0
40
1
40
1
40
1
10
57.247613966464996
20
45.557639598846436
30
0
10
55.644611418247223
20
47.015688419342041
30
0
10
55.644611418247223
20
49.283764362335205
30
0
0
SPLINE
5
140
100
AcDbEntity
8
0
100
AcDbSpline
70
0
71
2
72
6
73
3
74
0
42
0.000000001
43
0.0000000001
44
0.0000000001
40
0
40
0
40
0
40
1
40
1
40
1
10
55.644611418247223
20
49.283764362335205
30
0
10
55.644611418247223
20
50.613915920257568
30
0
10
56.249999105930328
20
51.713845729827881
30
0
0
SPLINE
5
141
100
AcDbEntity
8
0
100
AcDbSpline
70
0
71
2
72
6
73
3
74
0
42
0.000000001
43
0.0000000001
44
0.0000000001
40
0
40
0
40
0
40
1
40
1
40
1
10
56.249999105930328
20
51.713845729827881
30
0
10
56.855386793613434
20
52.813777923583984
30
0
10
57.835949957370758
20
53.478853702545166
30
0
0
SPLINE
5
142
100
AcDbEntity
8
0
100
AcDbSpline
70
0
71
2
72
6
73
3
74
0
42
0.000000001
43
0.0000000001
44
0.0000000001
40
0
40
0
40
0
40
1
40
1
40
1
10
57.835949957370758
20
53.478853702545166
30
0
10
58.8165083527565
20
54.143927097320557
30
0
10
60.044340193271637
20
54.484992027282715
30
0
0
SPLINE
5
143
100
AcDbEntity
8
0
100
AcDbSpline
70
0
71
2
72
6
73
3
74
0
42
0.000000001
43
0.0000000001
44
0.0000000001
40
0
40
0
40
0
40
1
40
1
40
1
10
60.044340193271637
20
54.484992027282715
30
0
10
60.948156416416168
20
54.723737239837646
30
0
10
62.772850096225739
20
54.945428371429443
30
0
0
SPLINE
5
144
100
AcDbEntity
8
0
100
AcDbSpline
70
0
71
2
72
6
73
3
74
0
42
0.000000001
43
0.0000000001
44
0.0000000001
40
0
40
0
40
0
40
1
40
1
40
1
10
62.772850096225739
20
54.945428371429443
30
0
10
66.490449011325836
20
55.388813018798828
30
0
10
68.246931135654449
20
56.002728939056396
30
0
0
SPLINE
5
145
100
AcDbEntity
8
0
100
AcDbSpline
70
0
71
2
72
6
73
3
74
0
42
0.000000001
43
0.0000000001
44
0.0000000001
40
0
40
0
40
0
40
1
40
1
40
1
10
68.246931135654449
20
56.002728939056396
30
0
10
68.263982832431793
20
56.633696556091309
30
0
10
68.263982832431793
20
56.804230213165283
30
0
0
SPLINE
5
146
100
AcDbEntity
8
0
100
AcDbSpline
70
0
71
2
72
6
73
3
74
0
42
0.000000001
43
0.0000000001
44
0.0000000001
40
0
40
0
40
0
40
1
40
1
40
1
10
68.263982832431793
20
56.804230213165283
30
0
10
68.263982832431793
20
58.680081367492676
30
0
10
67.394270002841949
20
59.447476863861084
30
0
0
SPLINE
5
147
100
AcDbEntity
8
0
100
AcDbSpline
70
0
71
2
72
6
73
3
74
0
42
0.000000001
43
0.0000000001
44
0.0000000001
40
0
40
0
40
0
40
1
40
1
40
1
10
67.394270002841949
20
59.447476863861084
30
0
10
66.217598021030426
20
60.487720966339111
30
0
10
63.898362219333649
20
60.487720966339111
30
0
0
SPLINE
5
148
100
AcDbEntity
8
0
100
AcDbSpline
70
0
71
2
72
6
73
3
74
0
42
0.000000001
43
0.0000000001
44
0.0000000001
40
0
40
0
40
0
40
1
40
1
40
1
10
63.898362219333649
20
60.487720966339111
30
0
10
61.732605993747711
20
60.487720966339111
30
0
10
60.700887739658356
20
59.728853702545166
30
0
0
SPLINE
5
149
100
AcDbEntity
8
0
100
AcDbSpline
70
0
71
2
72
6
73
3
74
0
42
0.000000001
43
0.0000000001
44
0.0000000001
40
0
40
0
40
0
40
1
40
1
40
1
10
60.700887739658356
20
59.728853702545166
30
0
10
59.669169485569
20
58.969986438751221
30
0
10
59.174622595310211
20
57.042973041534424
30
0
0
LINE
5
150
100
AcDbEntity
8
0
100
AcDbLine
10
59.174622595310211
20
57.042973041534424
30
0
11
56.173261702060699
21
57.45225191116333
31
0
0
SPLINE
5
151
100
AcDbEntity
8
0
100
AcDbSpline
70
0
71
2
72
6
73
3
74
0
42
0.000000001
43
0.0000000001
44
0.0000000001
40
0
40
0
40
0
40
1
40
1
40
1
10
56.173261702060699
20
57.45225191116333
30
0
10
56.582535803318024
20
59.379262924194336
30
0
10
57.520464956760406
20
60.564460754394531
30
0
0
SPLINE
5
152
100
AcDbEntity
8
0
100
AcDbSpline
70
0
71
2
72
6
73
3
74
0
42
0.000000001
43
0.0000000001
44
0.0000000001
40
0
40
0
40
0
40
1
40
1
40
1
10
57.520464956760406
20
60.564460754394531
30
0
10
58.458389341831207
20
61.749658584594727
30
0
10
60.231923162937164
20
62.389153242111206
30
0
0
SPLINE
5
153
100
AcDbEntity
8
0
100
AcDbSpline
70
0
71
2
72
6
73
3
74
0
42
0.000000001
43
0.0000000001
44
0.0000000001
40
0
40
0
40
0
40
1
40
1
40
1
10
60.231923162937164
20
62.389153242111206
30
0
10
62.005456984043121
20
63.028649091720581
30
0
10
64.341744482517242
20
63.028649091720581
30
0
0
SPLINE
5
154
100
AcDbEntity
8
0
100
AcDbSpline
70
0
71
2
72
6
73
3
74
0
42
0.000000001
43
0.0000000001
44
0.0000000001
40
0
40
0
40
0
40
1
40
1
40
1
10
64.341744482517242
20
63.028649091720581
30
0
10
66.660985052585602
20
63.028649091720581
30
0
10
68.110503256320953
20
62.482945919036865
30
0
0
SPLINE
5
155
100
AcDbEntity
8
0
100
AcDbSpline
70
0
71
2
72
6
73
3
74
0
42
0.000000001
43
0.0000000001
44
0.0000000001
40
0
40
0
40
0
40
1
40
1
40
1
10
68.110503256320953
20
62.482945919036865
30
0
10
69.560026228427887
20
61.937243938446045
30
0
10
70.242156088352203
20
61.110162734985352
30
0
0
SPLINE
5
156
100
AcDbEntity
8
0
100
AcDbSpline
70
0
71
2
72
6
73
3
74
0
42
0.000000001
43
0.0000000001
44
0.0000000001
40
0
40
0
40
0
40
1
40
1
40
1
10
70.242156088352203
20
61.110162734985352
30
0
10
70.924281179904938
20
60.283081531524658
30
0
10
71.19713693857193
20
59.021146297454834
30
0
0
SPLINE
5
157
100
AcDbEntity
8
0
100
AcDbSpline
70
0
71
2
72
6
73
3
74
0
42
0.000000001
43
0.0000000001
44
0.0000000001
40
0
40
0
40
0
40
1
40
1
40
1
10
71.19713693857193
20
59.021146297454834
30
0
10
71.350611746311188
20
58.236696720123291
30
0
10
71.350611746311188
20
56.190311908721924
30
0
0
LINE
5
158
100
AcDbEntity
8
0
100
AcDbLine
10
71.350611746311188
20
56.190311908721924
30
0
11
71.350611746311188
21
52.097542285919189
31
0
0
SPLINE
5
159
100
AcDbEntity
8
0
100
AcDbSpline
70
0
71
2
72
6
73
3
74
0
42
0.000000001
43
0.0000000001
44
0.0000000001
40
0
40
0
40
0
40
1
40
1
40
1
10
71.350611746311188
20
52.097542285919189
30
0
10
71.350611746311188
20
47.817189693450928
30
0
10
71.546725332736969
20
46.683151721954346
30
0
0
SPLINE
5
160
100
AcDbEntity
8
0
100
AcDbSpline
70
0
71
2
72
6
73
3
74
0
42
0.000000001
43
0.0000000001
44
0.0000000001
40
0
40
0
40
0
40
1
40
1
40
1
10
71.546725332736969
20
46.683151721954346
30
0
10
71.74283891916275
20
45.549113750457764
30
0
10
72.322644293308258
20
44.508867263793945
30
0
0
LINE
5
161
100
AcDbEntity
8
0
100
AcDbLine
10
72.322644293308258
20
44.508867263793945
30
0
11
69.116643965244293
21
44.508867263793945
31
0
0
SPLINE
5
162
100
AcDbEntity
8
0
100
AcDbSpline
70
0
71
2
72
6
73
3
74
0
42
0.000000001
43
0.0000000001
44
0.0000000001
40
0
40
0
40
0
40
1
40
1
40
1
10
69.116643965244293
20
44.508867263793945
30
0
10
68.63915354013443
20
45.463845729827881
30
0
10
68.502730429172516
20
46.742837429046631
30
0
0
SPLINE
5
163
100
AcDbEntity
8
0
100
AcDbSpline
70
0
71
2
72
6
73
3
74
0
42
0.000000001
43
0.0000000001
44
0.0000000001
40
0
40
0
40
0
40
1
40
1
40
1
10
68.246931135654449
20
53.598225116729736
30
0
10
66.575717031955719
20
52.916097640991211
30
0
10
63.233288824558258
20
52.438607215881348
30
0
0
SPLINE
5
164
100
AcDbEntity
8
0
100
AcDbSpline
70
0
71
2
72
6
73
3
74
0
42
0.000000001
43
0.0000000001
44
0.0000000001
40
0
40
0
40
0
40
1
40
1
40
1
10
63.233288824558258
20
52.438607215881348
30
0
10
61.340383589267731
20
52.165756225585938
30
0
10
60.555934011936188
20
51.824691295623779
30
0
0
SPLINE
5
165
100
AcDbEntity
8
0
100
AcDbSpline
70
0
71
2
72
6
73
3
74
0
42
0.000000001
43
0.0000000001
44
0.0000000001
40
0
40
0
40
0
40
1
40
1
40
1
10
60.555934011936188
20
51.824691295623779
30
0
10
59.771489202976227
20
51.483628749847412
30
0
10
59.345158636569977
20
50.827081203460693
30
0
0
SPLINE
5
166
100
AcDbEntity
8
0
100
AcDbSpline
70
0
71
2
72
6
73
3
74
0
42
0.000000001
43
0.0000000001
44
0.0000000001
40
0
40
0
40
0
40
1
40
1
40
1
10
59.345158636569977
20
50.827081203460693
30
0
10
58.918828070163727
20
50.170531272888184
30
0
10
58.918828070163727
20
49.369029998779297
30
0
0
SPLINE
5
167
100
AcDbEntity
8
0
100
AcDbSpline
70
0
71
2
72
6
73
3
74
0
42
0.000000001
43
0.0000000001
44
0.0000000001
40
0
40
0
40
0
40
1
40
1
40
1
10
58.918828070163727
20
49.369029998779297
30
0
10
58.918828070163727
20
48.141200542449951
30
0
10
59.848226606845856
20
47.322647571563721
30
0
0
SPLINE
5
168
100
AcDbEntity
8
0
100
AcDbSpline
70
0
71
2
72
6
73
3
74
0
42
0.000000001
43
0.0000000001
44
0.0000000001
40
0
40
0
40
0
40
1
40
1
40
1
10
59.848226606845856
20
47.322647571563721
30
0
10
60.777625143527985
20
46.504092216491699
30
0
10
62.568215429782867
20
46.504092216491699
30
0
0
SPLINE
5
169
100
AcDbEntity
8
0
100
AcDbSpline
70
0
71
2
72
6
73
3
74
0
42
0.000000001
43
0.0000000001
44
0.0000000001
40
0
40
0
40
0
40
1
40
1
40
1
10
62.568215429782867
20
46.504092216491699
30
0
10
64.341744482517242
20
46.504092216491699
30
0
10
65.723055899143219
20
47.280013561248779
30
0
0
SPLINE
5
170
100
AcDbEntity
8
0
100
AcDbSpline
70
0
71
2
72
6
73
3
74
0
42
0.000000001
43
0.0000000001
44
0.0000000001
40
0
40
0
40
0
40
1
40
1
40
1
10
65.723055899143219
20
47.280013561248779
30
0
10
67.104367315769196
20
48.055932521820068
30
0
10
67.752389013767242
20
49.403135776519775
30
0
0
SPLINE
5
171
100
AcDbEntity
8
0
100
AcDbSpline
70
0
71
2
72
6
73
3
74
0
42
0.000000001
43
0.0000000001
44
0.0000000001
40
0
40
0
40
0
40
1
40
1
40
1
10
67.752389013767242
20
49.403135776519775
30
0
10
68.246931135654449
20
50.443382263183594
30
0
10
68.246931135654449
20
52.472712993621826
30
0
0
LINE
5
172
100
AcDbEntity
8
0
100
AcDbLine
10
68.246931135654449
20
52.472712993621826
30
0
11
68.246931135654449
21
53.598225116729736
31
0
0
LINE
5
173
100
AcDbEntity
8
0
100
AcDbLine
10
76.108464300632477
20
44.508867263793945
30
0
11
76.108464300632477
21
62.61937141418457
31
0
0
LINE
5
174
100
AcDbEntity
8
0
100
AcDbLine
10
76.108464300632477
20
62.61937141418457
30
0
11
78.871082365512848
21
62.61937141418457
31
0
0
LINE
5
175
100
AcDbEntity
8
0
100
AcDbLine
10
78.871082365512848
20
62.61937141418457
30
0
11
78.871082365512848
21
60.044338703155518
31
0
0
SPLINE
5
176
100
AcDbEntity
8
0
100
AcDbSpline
70
0
71
2
72
6
73
3
74
0
42
0.000000001
43
0.0000000001
44
0.0000000001
40
0
40
0
40
0
40
1
40
1
40
1
10
78.871082365512848
20
60.044338703155518
30
0
10
80.86630254983902
20
63.028647899627686
30
0
10
84.635070860385895
20
63.028647899627686
30
0
0
SPLINE
5
177
100
AcDbEntity
8
0
100
AcDbSpline
70
0
71
2
72
6
73
3
74
0
42
0.000000001
43
0.0000000001
44
0.0000000001
40
0
40
0
40
0
40
1
40
1
40
1
10
84.635070860385895
20
63.028647899627686
30
0
10
86.272167265415192
20
63.028647899627686
30
0
10
87.64496237039566
20
62.440313100814819
30
0
0
SPLINE
5
178
100
AcDbEntity
8
0
100
AcDbSpline
70
0
71
2
72
6
73
3
74
0
42
0.000000001
43
0.0000000001
44
0.0000000001
40
0
40
0
40
0
40
1
40
1
40
1
10
87.64496237039566
20
62.440313100814819
30
0
10
89.017738401889801
20
61.851977109909058
30
0
10
89.699863493442535
20
60.896997451782227
30
0
0
SPLINE
5
179
100
AcDbEntity
8
0
100
AcDbSpline
70
0
71
2
72
6
73
3
74
0
42
0.000000001
43
0.0000000001
44
0.0000000001
40
0
40
0
40
0
40
1
40
1
40
1
10
89.699863493442535
20
60.896997451782227
30
0
10
90.381998121738434
20
59.942018985748291
30
0
10
90.654853880405426
20
58.628921508789062
30
0
0
SPLINE
5
180
100
AcDbEntity
8
0
100
AcDbSpline
70
0
71
2
72
6
73
3
74
0
42
0.000000001
43
0.0000000001
44
0.0000000001
40
0
40
0
40
0
40
1
40
1
40
1
10
90.654853880405426
20
58.628921508789062
30
0
10
90.825380384922028
20
57.776262760162354
30
0
10
90.825380384922028
20
55.644609928131104
30
0
0
LINE
5
181
100
AcDbEntity
8
0
100
AcDbLine
10
90.825380384922028
20
55.644609928131104
30
0
11
90.825380384922028
21
44.508867263793945
31
0
0
LINE
5
182
100
AcDbEntity
8
0
100
AcDbLine
10
90.825380384922028
20
44.508867263793945
30
0
11
87.755798399448395
21
44.508867263793945
31
0
0
LINE
5
183
100
AcDbEntity
8
0
100
AcDbLine
10
87.755798399448395
20
44.508867263793945
30
0
11
87.755798399448395
21
55.525238513946533
31
0
0
SPLINE
5
184
100
AcDbEntity
8
0
100
AcDbSpline
70
0
71
2
72
6
73
3
74
0
42
0.000000001
43
0.0000000001
44
0.0000000001
40
0
40
0
40
0
40
1
40
1
40
1
10
87.755798399448395
20
55.525238513946533
30
0
10
87.755798399448395
20
57.401092052459717
30
0
10
87.397693693637848
20
58.330490589141846
30
0
0
SPLINE
5
185
100
AcDbEntity
8
0
100
AcDbSpline
70
0
71
2
72
6
73
3
74
0
42
0.000000001
43
0.0000000001
44
0.0000000001
40
0
40
0
40
0
40
1
40
1
40
1
10
87.397693693637848
20
58.330490589141846
30
0
10
87.039569914340973
20
59.259889125823975
30
0
10
86.12722784280777
20
59.814119338989258
30
0
0
SPLINE
5
186
100
AcDbEntity
8
0
100
AcDbSpline
70
0
71
2
72
6
73
3
74
0
42
0.000000001
43
0.0000000001
44
0.0000000001
40
0
40
0
40
0
40
1
40
1
40
1
10
86.12722784280777
20
59.814119338989258
30
0
10
85.214876234531403
20
60.368349552154541
30
0
10
83.987049162387848
20
60.368349552154541
30
0
0
SPLINE
5
187
100
AcDbEntity
8
0
100
AcDbSpline
70
0
71
2
72
6
73
3
74
0
42
0.000000001
43
0.0000000001
44
0.0000000001
40
0
40
0
40
0
40
1
40
1
40
1
10
83.987049162387848
20
60.368349552154541
30
0
10
82.025932371616364
20
60.368349552154541
30
0
10
80.601982176303864
20
59.123466014862061
30
0
0
SPLINE
5
188
100
AcDbEntity
8
0
100
AcDbSpline
70
0
71
2
72
6
73
3
74
0
42
0.000000001
43
0.0000000001
44
0.0000000001
40
0
40
0
40
0
40
1
40
1
40
1
10
80.601982176303864
20
59.123466014862061
30
0
10
79.178041517734528
20
57.878580093383789
30
0
10
79.178041517734528
20
54.399726390838623
30
0
0
LINE
5
189
100
AcDbEntity
8
0
100
AcDbLine
10
79.178041517734528
20
54.399726390838623
30
0
11
79.178041517734528
21
44.508867263793945
31
0
0
LINE
5
190
100
AcDbEntity
8
0
100
AcDbLine
10
79.178041517734528
20
44.508867263793945
30
0
11
76.108464300632477
21
44.508867263793945
31
0
0
LINE
5
191
100
AcDbEntity
8
0
100
AcDbLine
10
95.549110472202301
20
44.508867263793945
30
0
11
95.549110472202301
21
69.508867263793945
31
0
0
LINE
5
192
100
AcDbEntity
8
0
100
AcDbLine
10
95.549110472202301
20
69.508867263793945
30
0
11
98.61868292093277
21
69.508867263793945
31
0
0
LINE
5
193
100
AcDbEntity
8
0
100
AcDbLine
10
98.61868292093277
20
69.508867263793945
30
0
11
98.61868292093277
21
55.252387523651123
31
0
0
LINE
5
194
100
AcDbEntity
8
0
100
AcDbLine
10
98.61868292093277
20
55.252387523651123
30
0
11
105.88335424661636
21
62.61937141418457
31
0
0
LINE
5
195
100
AcDbEntity
8
0
100
AcDbLine
10
105.88335424661636
20
62.61937141418457
30
0
11
109.85676199197769
21
62.61937141418457
31
0
0
LINE
5
196
100
AcDbEntity
8
0
100
AcDbLine
10
109.85676199197769
20
62.61937141418457
30
0
11
102.9331436753273
21
55.90040922164917
31
0
0
LINE
5
197
100
AcDbEntity
8
0
100
AcDbLine
10
102.9331436753273
20
55.90040922164917
30
0
11
110.55593878030777
21
44.508867263793945
31
0
0
LINE
5
198
100
AcDbEntity
8
0
100
AcDbLine
10
110.55593878030777
20
44.508867263793945
30
0
11
106.77011877298355
21
44.508867263793945
31
0
0
LINE
5
199
100
AcDbEntity
8
0
100
AcDbLine
10
106.77011877298355
20
44.508867263793945
30
0
11
100.78445822000504
21
53.76875638961792
31
0
0
LINE
5
200
100
AcDbEntity
8
0
100
AcDbLine
10
100.78445822000504
20
53.76875638961792
30
0
11
98.61868292093277
21
51.688268184661865
31
0
0
LINE
5
201
100
AcDbEntity
8
0
100
AcDbLine
10
98.61868292093277
20
51.688268184661865
30
0
11
98.61868292093277
21
44.508867263793945
31
0
0
LINE
5
202
100
AcDbEntity
8
0
100
AcDbLine
10
98.61868292093277
20
44.508867263793945
30
0
11
95.549110472202301
21
44.508867263793945
31
0
0
LINE
5
203
100
AcDbEntity
8
0
100
AcDbLine
10
42.428373396396637
20
5.4911351203918457
30
0
11
42.428373396396637
21
16.081173419952393
31
0
0
LINE
5
204
100
AcDbEntity
8
0
100
AcDbLine
10
42.428373396396637
20
16.081173419952393
30
0
11
32.793315947055817
21
30.491135120391846
31
0
0
LINE
5
205
100
AcDbEntity
8
0
100
AcDbLine
10
32.793315947055817
20
30.491135120391846
30
0
11
36.817871630191803
21
30.491135120391846
31
0
0
LINE
5
206
100
AcDbEntity
8
0
100
AcDbLine
10
36.817871630191803
20
30.491135120391846
30
0
11
41.746248304843903
21
22.953617572784424
31
0
0
SPLINE
5
207
100
AcDbEntity
8
0
100
AcDbSpline
70
0
71
2
72
6
73
3
74
0
42
0.000000001
43
0.0000000001
44
0.0000000001
40
0
40
0
40
0
40
1
40
1
40
1
10
41.746248304843903
20
22.953617572784424
30
0
10
43.110503256320953
20
20.8390212059021
30
0
10
44.287175238132477
20
18.724424839019775
30
0
0
SPLINE
5
208
100
AcDbEntity
8
0
100
AcDbSpline
70
0
71
2
72
6
73
3
74
0
42
0.000000001
43
0.0000000001
44
0.0000000001
40
0
40
0
40
0
40
1
40
1
40
1
10
44.287175238132477
20
18.724424839019775
30
0
10
45.412687361240387
20
20.68554162979126
30
0
10
47.01568990945816
20
23.141205310821533
30
0
0
LINE
5
209
100
AcDbEntity
8
0
100
AcDbLine
10
47.01568990945816
20
23.141205310821533
30
0
11
51.858800947666168
21
30.491135120391846
31
0
0
LINE
5
210
100
AcDbEntity
8
0
100
AcDbLine
10
51.858800947666168
20
30.491135120391846
30
0
11
55.71282297372818
21
30.491135120391846
31
0
0
LINE
5
211
100
AcDbEntity
8
0
100
AcDbLine
10
55.71282297372818
20
30.491135120391846
30
0
11
45.73669821023941
21
16.081173419952393
31
0
0
LINE
5
212
100
AcDbEntity
8
0
100
AcDbLine
10
45.73669821023941
20
16.081173419952393
30
0
11
45.73669821023941
21
5.4911351203918457
31
0
0
LINE
5
213
100
AcDbEntity
8
0
100
AcDbLine
10
45.73669821023941
20
5.4911351203918457
30
0
11
42.428373396396637
21
5.4911351203918457
31
0
0
SPLINE
5
214
100
AcDbEntity
8
0
100
AcDbSpline
70
0
71
2
72
6
73
3
74
0
42
0.000000001
43
0.0000000001
44
0.0000000001
40
0
40
0
40
0
40
1
40
1
40
1
10
53.939289152622223
20
14.546387195587158
30
0
10
53.939289152622223
20
19.577085971832275
30
0
10
56.736015379428864
20
21.998636722564697
30
0
0
SPLINE
5
215
100
AcDbEntity
8
0
100
AcDbSpline
70
0
71
2
72
6
73
3
74
0
42
0.000000001
43
0.0000000001
44
0.0000000001
40
0
40
0
40
0
40
1
40
1
40
1
10
56.736015379428864
20
21.998636722564697
30
0
10
59.072302877902985
20
24.010918140411377
30
0
10
62.431787550449371
20
24.010918140411377
30
0
0
SPLINE
5
216
100
AcDbEntity
8
0
100
AcDbSpline
70
0
71
2
72
6
73
3
74
0
42
0.000000001
43
0.0000000001
44
0.0000000001
40
0
40
0
40
0
40
1
40
1
40
1
10
62.431787550449371
20
24.010918140411377
30
0
10
66.166438162326813
20
24.010918140411377
30
0
10
68.536833822727203
20
21.563780307769775
30
0
0
SPLINE
5
217
100
AcDbEntity
8
0
100
AcDbSpline
70
0
71
2
72
6
73
3
74
0
42
0.000000001
43
0.0000000001
44
0.0000000001
40
0
40
0
40
0
40
1
40
1
40
1
10
68.536833822727203
20
21.563780307769775
30
0
10
70.907229483127594
20
19.116647243499756
30
0
10
70.907229483127594
20
14.802186489105225
30
0
0
SPLINE
5
218
100
AcDbEntity
8
0
100
AcDbSpline
70
0
71
2
72
6
73
3
74
0
42
0.000000001
43
0.0000000001
44
0.0000000001
40
0
40
0
40
0
40
1
40
1
40
1
10
70.907229483127594
20
14.802186489105225
30
0
10
70.907229483127594
20
11.306278705596924
30
0
10
69.858454763889313
20
9.302527904510498
30
0
0
SPLINE
5
219
100
AcDbEntity
8
0
100
AcDbSpline
70
0
71
2
72
6
73
3
74
0
42
0.000000001
43
0.0000000001
44
0.0000000001
40
0
40
0
40
0
40
1
40
1
40
1
10
69.858454763889313
20
9.302527904510498
30
0
10
68.809684813022614
20
7.2987771034240723
30
0
10
66.805934011936188
20
6.1903166770935059
30
0
0
SPLINE
5
220
100
AcDbEntity
8
0
100
AcDbSpline
70
0
71
2
72
6
73
3
74
0
42
0.000000001
43
0.0000000001
44
0.0000000001
40
0
40
0
40
0
40
1
40
1
40
1
10
66.805934011936188
20
6.1903166770935059
30
0
10
64.802183210849762
20
5.0818562507629395
30
0
10
62.431787550449371
20
5.0818562507629395
30
0
0
SPLINE
5
221
100
AcDbEntity
8
0
100
AcDbSpline
70
0
71
2
72
6
73
3
74
0
42
0.000000001
43
0.0000000001
44
0.0000000001
40
0
40
0
40
0
40
1
40
1
40
1
10
62.431787550449371
20
5.0818562507629395
30
0
10
58.628920614719391
20
5.0818562507629395
30
0
10
56.284107267856598
20
7.5204682350158691
30
0
0
SPLINE
5
222
100
AcDbEntity
8
0
100
AcDbSpline
70
0
71
2
72
6
73
3
74
0
42
0.000000001
43
0.0000000001
44
0.0000000001
40
0
40
0
40
0
40
1
40
1
40
1
10
56.284107267856598
20
7.5204682350158691
30
0
10
53.939289152622223
20
9.9590754508972168
30
0
10
53.939289152622223
20
14.546387195587158
30
0
0
SPLINE
5
223
100
AcDbEntity
8
0
100
AcDbSpline
70
0
71
2
72
6
73
3
74
0
42
0.000000001
43
0.0000000001
44
0.0000000001
40
0
40
0
40
0
40
1
40
1
40
1
10
57.094129621982574
20
14.546387195587158
30
0
10
57.094129621982574
20
11.067531108856201
30
0
10
58.611864149570465
20
9.3366312980651855
30
0
0
SPLINE
5
224
100
AcDbEntity
8
0
100
AcDbSpline
70
0
71
2
72
6
73
3
74
0
42
0.000000001
43
0.0000000001
44
0.0000000001
40
0
40
0
40
0
40
1
40
1
40
1
10
58.611864149570465
20
9.3366312980651855
30
0
10
60.129603445529938
20
7.6057314872741699
30
0
10
62.431787550449371
20
7.6057314872741699
30
0
0
SPLINE
5
225
100
AcDbEntity
8
0
100
AcDbSpline
70
0
71
2
72
6
73
3
74
0
42
0.000000001
43
0.0000000001
44
0.0000000001
40
0
40
0
40
0
40
1
40
1
40
1
10
62.431787550449371
20
7.6057314872741699
30
0
10
64.716915190219879
20
7.6057314872741699
30
0
10
66.23464971780777
20
9.3451619148254395
30
0
0
SPLINE
5
226
100
AcDbEntity
8
0
100
AcDbSpline
70
0
71
2
72
6
73
3
74
0
42
0.000000001
43
0.0000000001
44
0.0000000001
40
0
40
0
40
0
40
1
40
1
40
1
10
66.23464971780777
20
9.3451619148254395
30
0
10
67.75238424539566
20
11.084587574005127
30
0
10
67.75238424539566
20
14.648706912994385
30
0
0
SPLINE
5
227
100
AcDbEntity
8
0
100
AcDbSpline
70
0
71
2
72
6
73
3
74
0
42
0.000000001
43
0.0000000001
44
0.0000000001
40
0
40
0
40
0
40
1
40
1
40
1
10
67.75238424539566
20
14.648706912994385
30
0
10
67.75238424539566
20
18.008186817169189
30
0
10
66.226123869419098
20
19.739086627960205
30
0
0
SPLINE
5
228
100
AcDbEntity
8
0
100
AcDbSpline
70
0
71
2
72
6
73
3
74
0
42
0.000000001
43
0.0000000001
44
0.0000000001
40
0
40
0
40
0
40
1
40
1
40
1
10
66.226123869419098
20
19.739086627960205
30
0
10
64.699863493442535
20
21.469986438751221
30
0
10
62.431787550449371
20
21.469986438751221
30
0
0
SPLINE
5
229
100
AcDbEntity
8
0
100
AcDbSpline
70
0
71
2
72
6
73
3
74
0
42
0.000000001
43
0.0000000001
44
0.0000000001
40
0
40
0
40
0
40
1
40
1
40
1
10
62.431787550449371
20
21.469986438751221
30
0
10
60.129603445529938
20
21.469986438751221
30
0
10
58.611864149570465
20
19.747612476348877
30
0
0
SPLINE
5
230
100
AcDbEntity
8
0
100
AcDbSpline
70
0
71
2
72
6
73
3
74
0
42
0.000000001
43
0.0000000001
44
0.0000000001
40
0
40
0
40
0
40
1
40
1
40
1
10
58.611864149570465
20
19.747612476348877
30
0
10
57.094129621982574
20
18.025243282318115
30
0
10
57.094129621982574
20
14.546387195587158
30
0
0
LINE
5
231
100
AcDbEntity
8
0
100
AcDbLine
10
86.374486982822418
20
5.4911351203918457
30
0
11
86.374486982822418
21
8.1514334678649902
31
0
0
SPLINE
5
232
100
AcDbEntity
8
0
100
AcDbSpline
70
0
71
2
72
6
73
3
74
0
42
0.000000001
43
0.0000000001
44
0.0000000001
40
0
40
0
40
0
40
1
40
1
40
1
10
86.374486982822418
20
8.1514334678649902
30
0
10
84.259885847568512
20
5.0818562507629395
30
0
10
80.627559721469879
20
5.0818562507629395
30
0
0
SPLINE
5
233
100
AcDbEntity
8
0
100
AcDbSpline
70
0
71
2
72
6
73
3
74
0
42
0.000000001
43
0.0000000001
44
0.0000000001
40
0
40
0
40
0
40
1
40
1
40
1
10
80.627559721469879
20
5.0818562507629395
30
0
10
79.024552404880524
20
5.0818562507629395
30
0
10
77.634715139865875
20
5.6957745552062988
30
0
0
SPLINE
5
234
100
AcDbEntity
8
0
100
AcDbSpline
70
0
71
2
72
6
73
3
74
0
42
0.000000001
43
0.0000000001
44
0.0000000001
40
0
40
0
40
0
40
1
40
1
40
1
10
77.634715139865875
20
5.6957745552062988
30
0
10
76.244882643222809
20
6.3096880912780762
30
0
10
75.571278631687164
20
7.2390866279602051
30
0
0
SPLINE
5
235
100
AcDbEntity
8
0
100
AcDbSpline
70
0
71
2
72
6
73
3
74
0
42
0.000000001
43
0.0000000001
44
0.0000000001
40
0
40
0
40
0
40
1
40
1
40
1
10
75.571278631687164
20
7.2390866279602051
30
0
10
74.897679388523102
20
8.168489933013916
30
0
10
74.62482362985611
20
9.515693187713623
30
0
0
SPLINE
5
236
100
AcDbEntity
8
0
100
AcDbSpline
70
0
71
2
72
6
73
3
74
0
42
0.000000001
43
0.0000000001
44
0.0000000001
40
0
40
0
40
0
40
1
40
1
40
1
10
74.62482362985611
20
9.515693187713623
30
0
10
74.437240660190582
20
10.419509410858154
30
0
10
74.437240660190582
20
12.380630970001221
30
0
0
LINE
5
237
100
AcDbEntity
8
0
100
AcDbLine
10
74.437240660190582
20
12.380630970001221
30
0
11
74.437240660190582
21
23.601639270782471
31
0
0
LINE
5
238
100
AcDbEntity
8
0
100
AcDbLine
10
74.437240660190582
20
23.601639270782471
30
0
11
77.506817877292633
21
23.601639270782471
31
0
0
LINE
5
239
100
AcDbEntity
8
0
100
AcDbLine
10
77.506817877292633
20
23.601639270782471
30
0
11
77.506817877292633
21
13.557302951812744
31
0
0
SPLINE
5
240
100
AcDbEntity
8
0
100
AcDbSpline
70
0
71
2
72
6
73
3
74
0
42
0.000000001
43
0.0000000001
44
0.0000000001
40
0
40
0
40
0
40
1
40
1
40
1
10
77.506817877292633
20
13.557302951812744
30
0
10
77.506817877292633
20
11.152799129486084
30
0
10
77.69440084695816
20
10.31719446182251
30
0
0
SPLINE
5
241
100
AcDbEntity
8
0
100
AcDbSpline
70
0
71
2
72
6
73
3
74
0
42
0.000000001
43
0.0000000001
44
0.0000000001
40
0
40
0
40
0
40
1
40
1
40
1
10
77.69440084695816
20
10.31719446182251
30
0
10
77.984308302402496
20
9.1064143180847168
30
0
10
78.922232687473297
20
8.4157586097717285
30
0
0
SPLINE
5
242
100
AcDbEntity
8
0
100
AcDbSpline
70
0
71
2
72
6
73
3
74
0
42
0.000000001
43
0.0000000001
44
0.0000000001
40
0
40
0
40
0
40
1
40
1
40
1
10
78.922232687473297
20
8.4157586097717285
30
0
10
79.860157072544098
20
7.7251029014587402
30
0
10
81.241468489170074
20
7.7251029014587402
30
0
0
SPLINE
5
243
100
AcDbEntity
8
0
100
AcDbSpline
70
0
71
2
72
6
73
3
74
0
42
0.000000001
43
0.0000000001
44
0.0000000001
40
0
40
0
40
0
40
1
40
1
40
1
10
81.241468489170074
20
7.7251029014587402
30
0
10
82.622779905796051
20
7.7251029014587402
30
0
10
83.833555281162262
20
8.4328150749206543
30
0
0
SPLINE
5
244
100
AcDbEntity
8
0
100
AcDbSpline
70
0
71
2
72
6
73
3
74
0
42
0.000000001
43
0.0000000001
44
0.0000000001
40
0
40
0
40
0
40
1
40
1
40
1
10
83.833555281162262
20
8.4328150749206543
30
0
10
85.044330656528473
20
9.1405224800109863
30
0
10
85.547403395175934
20
10.359823703765869
30
0
0
SPLINE
5
245
100
AcDbEntity
8
0
100
AcDbSpline
70
0
71
2
72
6
73
3
74
0
42
0.000000001
43
0.0000000001
44
0.0000000001
40
0
40
0
40
0
40
1
40
1
40
1
10
85.547403395175934
20
10.359823703765869
30
0
10
86.050476133823395
20
11.579129695892334
30
0
10
86.050476133823395
20
13.898365497589111
30
0
0
LINE
5
246
100
AcDbEntity
8
0
100
AcDbLine
10
86.050476133823395
20
13.898365497589111
30
0
11
86.050476133823395
21
23.601639270782471
31
0
0
LINE
5
247
100
AcDbEntity
8
0
100
AcDbLine
10
86.050476133823395
20
23.601639270782471
30
0
11
89.120048582553864
21
23.601639270782471
31
0
0
LINE
5
248
100
AcDbEntity
8
0
100
AcDbLine
10
89.120048582553864
20
23.601639270782471
30
0
11
89.120048582553864
21
5.4911351203918457
31
0
0
LINE
5
249
100
AcDbEntity
8
0
100
AcDbLine
10
89.120048582553864
20
5.4911351203918457
30
0
11
86.374486982822418
21
5.4911351203918457
31
0
0
ENDSEC
0
SECTION
2
OBJECTS
0
DICTIONARY
5
C
100
AcDbDictionary
3
ACAD_GROUP
350
D
3
ACAD_MLINESTYLE
350
17
0
DICTIONARY
5
D
100
AcDbDictionary
0
DICTIONARY
5
1A
330
C
100
AcDbDictionary
0
DICTIONARY
5
17
100
AcDbDictionary
0
ENDSEC
0
EOF
