0
SECTION
2
HEADER
9
$INSUNITS
70
4
9
$ACADVER
1
AC1014
9
$HANDSEED
5
FFFF
0
ENDSEC
0
SECTION
2
TABLES
0
TABLE
2
VPORT
5
8
100
AcDbSymbolTable
0
ENDTAB
0
TABLE
2
LTYPE
5
5
100
AcDbSymbolTable
0
LTYPE
5
14
100
AcDbSymbolTableRecord
100
AcDbLinetypeTableRecord
2
BYBLOCK
70
0
0
LTYPE
5
15
100
AcDbSymbolTableRecord
100
AcDbLinetypeTableRecord
2
BYLAYER
70
0
0
ENDTAB
0
TABLE
2
LAYER
5
2
100
AcDbSymbolTable
70
2
0
LAYER
5
50
100
AcDbSymbolTableRecord
100
AcDbLayerTableRecord
2
0
70
0
6
CONTINUOUS
0
ENDTAB
0
TABLE
2
STYLE
5
3
100
AcDbSymbolTable
70
1
0
STYLE
5
11
100
AcDbSymbolTableRecord
100
AcDbTextStyleTableRecord
2
STANDARD
70
0
0
ENDTAB
0
TABLE
2
VIEW
5
6
100
AcDbSymbolTable
70
0
0
ENDTAB
0
TABLE
2
UCS
5
7
100
AcDbSymbolTable
70
0
0
ENDTAB
0
TABLE
2
APPID
5
9
100
AcDbSymbolTable
70
2
0
APPID
5
12
100
AcDbSymbolTableRecord
100
AcDbRegAppTableRecord
2
ACAD
70
0
0
ENDTAB
0
TABLE
2
DIMSTYLE
5
A
100
AcDbSymbolTable
70
1
0
ENDTAB
0
TABLE
2
BLOCK_RECORD
5
1
100
AcDbSymbolTable
70
1
0
BLOCK_RECORD
5
1F
100
AcDbSymbolTableRecord
100
AcDbBlockTableRecord
2
*MODEL_SPACE
0
BLOCK_RECORD
5
1B
100
AcDbSymbolTableRecord
100
AcDbBlockTableRecord
2
*PAPER_SPACE
0
ENDTAB
0
ENDSEC
0
SECTION
2
BLOCKS
0
BLOCK
5
20
100
AcDbEntity
100
AcDbBlockBegin
2
*MODEL_SPACE
0
ENDBLK
5
21
100
AcDbEntity
100
AcDbBlockEnd
0
BLOCK
5
1C
100
AcDbEntity
100
AcDbBlockBegin
2
*PAPER_SPACE
0
ENDBLK
5
1D
100
AcDbEntity
100
AcDbBlockEnd
0
ENDSEC
0
SECTION
2
ENTITIES
0
SPLINE
5
100
100
AcDbEntity
8
0
100
AcDbSpline
70
4
71
5
72
41
73
35
74
0
42
0.000000001
43
0.0000000001
44
0.0000000001
40
0
40
0
40
0
40
0
40
0
40
0
40
0.033333333333333333
40
0.066666666666666666
40
0.10000000000000001
40
0.13333333333333333
40
0.16666666666666666
40
0.19999999999999998
40
0.23333333333333331
40
0.26666666666666666
40
0.29999999999999999
40
0.33333333333333331
40
0.36666666666666664
40
0.39999999999999997
40
0.43333333333333329
40
0.46666666666666662
40
0.49999999999999994
40
0.53333333333333333
40
0.56666666666666665
40
0.59999999999999998
40
0.6333333333333333
40
0.66666666666666663
40
0.69999999999999996
40
0.73333333333333328
40
0.76666666666666661
40
0.79999999999999993
40
0.83333333333333326
40
0.86666666666666659
40
0.89999999999999991
40
0.93333333333333324
40
0.96666666666666656
40
1
40
1
40
1
40
1
40
1
40
1
41
1
41
1
41
1
41
1
41
1
41
1
41
1
41
1
41
1
41
1
41
1
41
1
41
1
41
1
41
1
41
1
41
1
41
1
41
1
41
1
41
1
41
1
41
1
41
1
41
1
41
1
41
1
41
1
41
1
41
1
41
1
41
1
41
1
41
1
41
1
10
40
20
25
30
0
10
38.998812806979572
20
25.362885829258207
30
0
10
37.074188799580639
20
26.275780164945989
30
0
10
34.42054073103823
20
28.206454176971807
30
0
10
31.349443657597437
20
31.90569355606268
30
0
10
28.35474984448151
20
38.334179524512365
30
0
10
26.387051671337414
20
46.340061792378776
30
0
10
25.817292184925364
20
55.441729632628657
30
0
10
27.227219371538105
20
64.850269400225756
30
0
10
31.211803301736616
20
73.624894819348384
30
0
10
38.214179292072579
20
80.797450270885463
30
0
10
48.342440480539189
20
85.510387048293012
30
0
10
61.20104402262502
20
87.145608051751836
30
0
10
75.685724838936054
20
85.470612128483197
30
0
10
90.22423833022475
20
80.590870106193293
30
0
10
103.05234023249049
20
72.888296698573754
30
0
10
112.47473613179416
20
62.967498853932227
30
0
10
117.13331583982458
20
51.601286977819527
30
0
10
116.27314952139285
20
39.678304848224968
30
0
10
110.01854007339023
20
28.151495915701243
30
0
10
99.640806284964668
20
17.986059697527047
30
0
10
87.124248085027673
20
10.06378505874838
30
0
10
74.743461922143439
20
5.0855643004459106
30
0
10
64.649872102668652
20
3.4768036991176943
30
0
10
58.432125760187894
20
5.2805218934405911
30
0
10
56.736357684354971
20
10.072410351561876
30
0
10
58.718367487856256
20
16.810358756392098
30
0
10
62.440276321540111
20
24.047005489429374
30
0
10
65.573808457208941
20
30.261408740954671
30
0
10
65.982021163647559
20
34.141952080883385
30
0
10
62.391109630846188
20
34.911130057019115
30
0
10
55.831369711331234
20
32.741674653868984
30
0
10
48.753373591990616
20
29.498231895238781
30
0
10
43.077354457997103
20
26.618916296556684
30
0
10
40.000000000000007
20
25
30
0
0
SPLINE
5
101
100
AcDbEntity
8
0
100
AcDbSpline
70
6
71
5
72
56
73
50
74
0
42
0.000000001
43
0.0000000001
44
0.0000000001
40
0
40
0
40
0
40
0
40
0
40
0
40
0.022222222222222223
40
0.044444444444444446
40
0.066666666666666666
40
0.088888888888888892
40
0.11111111111111112
40
0.13333333333333333
40
0.15555555555555556
40
0.17777777777777778
40
0.20000000000000001
40
0.22222222222222224
40
0.24444444444444446
40
0.26666666666666666
40
0.28888888888888886
40
0.31111111111111106
40
0.33333333333333326
40
0.35555555555555546
40
0.37777777777777766
40
0.39999999999999986
40
0.42222222222222205
40
0.44444444444444425
40
0.46666666666666645
40
0.48888888888888865
40
0.51111111111111085
40
0.5333333333333331
40
0.55555555555555536
40
0.57777777777777761
40
0.59999999999999987
40
0.62222222222222212
40
0.64444444444444438
40
0.66666666666666663
40
0.68888888888888888
40
0.71111111111111114
40
0.73333333333333339
40
0.75555555555555565
40
0.7777777777777779
40
0.80000000000000016
40
0.82222222222222241
40
0.84444444444444466
40
0.86666666666666692
40
0.88888888888888917
40
0.91111111111111143
40
0.93333333333333368
40
0.95555555555555594
40
0.97777777777777819
40
1
40
1
40
1
40
1
40
1
40
1
41
1
41
1
41
1
41
1
41
1
41
1
41
1
41
1
41
1
41
1
41
1
41
1
41
1
41
1
41
1
41
1
41
1
41
1
41
1
41
1
41
1
41
1
41
1
41
1
41
1
41
1
41
1
41
1
41
1
41
1
41
1
41
1
41
1
41
1
41
1
41
1
41
1
41
1
41
1
41
1
41
1
41
1
41
1
41
1
41
1
41
1
41
1
41
1
41
1
41
1
10
60.000000000000007
20
100.00000000000001
30
0
10
63.4336887056213
20
98.74767169650589
30
0
10
71.002857841934542
20
96.513108317992291
30
0
10
84.34019792449682
20
93.979808619339309
30
0
10
105.07246954213456
20
92.016248100880418
30
0
10
131.77577505671889
20
90.539906310704069
30
0
10
154.58491421036814
20
88.292124175309951
30
0
10
169.32921726024483
20
83.61385833822068
30
0
10
173.34683390143195
20
75.372349156734359
30
0
10
166.64271349354328
20
63.459006546243174
30
0
10
152.61081736891296
20
49.116196704588297
30
0
10
136.43494623039214
20
34.347524472034358
30
0
10
123.72832422795622
20
21.424857940490575
30
0
10
119.18883933879584
20
12.396097585592596
30
0
10
124.99555503368916
20
8.5048185257943114
30
0
10
140.14984385160287
20
9.9391858066439855
30
0
10
161.6968528542713
20
16.235211519732992
30
0
10
185.5516714952557
20
26.54598497651126
30
0
10
207.44040992259497
20
39.941715987016707
30
0
10
223.88930877203239
20
55.749878977110335
30
0
10
232.47603828041412
20
73.492547885794878
30
0
10
231.85517552278588
20
92.71406062220008
30
0
10
221.88114314807768
20
112.83664522517506
30
0
10
203.6584430567234
20
133.02561512793218
30
0
10
179.71529760559122
20
151.99727437970577
30
0
10
153.82802838617832
20
168.03033842119888
30
0
10
130.21257050855075
20
179.35878722706883
30
0
10
112.87723125894077
20
184.46897160151315
30
0
10
104.87033587230624
20
182.45771359778541
30
0
10
107.6629830368972
20
173.31604451490617
30
0
10
120.23884457212594
20
158.372271069741
30
0
10
139.21918991764372
20
140.1744885842553
30
0
10
160.00628563777238
20
121.82067580328786
30
0
10
177.62563951421015
20
106.45361280405587
30
0
10
187.73030231232923
20
96.662884626255931
30
0
10
187.4413670216436
20
93.986185141288331
30
0
10
176.50731975322412
20
98.209253168866866
30
0
10
156.96736382689429
20
107.61672206640586
30
0
10
132.18413805184682
20
119.64282020981841
30
0
10
106.09921459787201
20
131.38353220959124
30
0
10
82.365267654505118
20
140.17967684685419
30
0
10
63.609576425652143
20
144.13457107116579
30
0
10
50.43429960179963
20
142.75461071364464
30
0
10
42.219785624796479
20
136.71890783503412
30
0
10
38.15819820566746
20
127.47833358916004
30
0
10
38.428508714864847
20
116.92505277560933
30
0
10
43.379511051260039
20
108.99121689384977
30
0
10
50.400725608206905
20
104.02707813895695
30
0
10
56.566311294378778
20
101.25232830349415
30
0
10
60.000000000000007
20
100.00000000000001
30
0
0
ENDSEC
0
SECTION
2
OBJECTS
0
DICTIONARY
5
C
100
AcDbDictionary
3
ACAD_GROUP
350
D
3
ACAD_MLINESTYLE
350
17
0
DICTIONARY
5
D
100
AcDbDictionary
0
DICTIONARY
5
1A
330
C
100
AcDbDictionary
0
DICTIONARY
5
17
100
AcDbDictionary
0
ENDSEC
0
EOF
